<?xml version="1.0" standalone="no"?>
<!DOCTYPE svg PUBLIC "-//W3C//DTD SVG 1.1//EN" "http://www.w3.org/Graphics/SVG/1.1/DTD/svg11.dtd" >
<svg xmlns="http://www.w3.org/2000/svg" xmlns:xlink="http://www.w3.org/1999/xlink" version="1.1">
<metadata>
Created by FontForge 20170731 at Thu Jun 25 20:55:38 2020
 By Aleksey,,,
Copyright (c) 2019 by Hanzel Graphic. All rights reserved.
</metadata>
<defs>
<font id="RosellindaAlyamore" horiz-adv-x="1484" >
  <font-face 
    font-family="Rosellinda Alyamore"
    font-weight="400"
    font-stretch="normal"
    units-per-em="2048"
    panose-1="2 0 5 0 0 0 0 0 0 0"
    ascent="1638"
    descent="-410"
    x-height="819"
    cap-height="1599"
    bbox="-825 -354 2479 1932"
    underline-thickness="150"
    underline-position="-442"
    unicode-range="U+001D-E001"
  />
<missing-glyph horiz-adv-x="1229" 
d="M120 -130v1721h989v-1721h-989zM180 -70h869v1601h-869v-1601zM390 1248q37 33 70 51q63 36 134 36q110 0 177.5 -57t67.5 -153q0 -58 -27.5 -117.5t-104.5 -155.5q-76 -96 -119 -158.5t-43 -118.5q0 -46 29 -160h-39q-42 116 -42 178q0 91 98 261.5t98 260.5
q0 68 -39.5 107.5t-109.5 39.5q-46 0 -83 -20q-31 -18 -67 -48v54zM467 271l68 70q13 12 24 12q12 0 27 -14l67 -72q11 -13 11 -24q0 -13 -12 -26l-68 -74q-16 -17 -25 -17q-13 0 -24 12l-73 85q-8 11 -8 22q0 12 13 26z" />
    <glyph glyph-name="ll" unicode="ll" horiz-adv-x="551" 
d="M708 1344q-35 -51 -68.5 -119t-62.5 -131q-8 -18 -16 -35q-9 -20 -20 -39q-11 -20 -21 -40q-51 -113 -96 -228q-13 -33 -27 -66q-11 -28 -23 -56q-70 -170 -135 -341q-30 -85 -67 -203.5t-59 -205.5q-11 -43 -18 -88q-1 -8 -1 -16v-8q1 -2 1 -4q0 -7 -8 -7h-3
q-19 3 -32 17q-31 32 -32 77q4 83 33 158q5 15 10 29q36 115 87.5 262t96.5 259q34 83 68 167q11 25 21 51q2 6 5 12q1 3 2 7q-3 0 -4.5 -1.5t-2.5 -3.5l-1 -1q-34 -50 -69 -98q-44 -60 -85 -122q-62 -90 -139 -166q-18 -20 -42 -33q-18 -10 -38 -10q-5 0 -10 1
q-48 9 -57 61q-1 9 -1 18q0 28 7 55q16 62 40 122q78 202 172 398q27 55 60 124.5t59 125.5q17 35 36 68q23 37 65 43q22 3 43 5q4 1 8 1l5 1l4 -1q10 -3 10 -9q0 -3 -3 -8l-4 -6l-4 -4q-13 -18 -23 -38q-30 -61 -72 -137q-26 -48 -46 -85q0 -1 -1 -2t-1 -3
q-130 -264 -235 -538q-18 -45 -27 -92q-1 -5 -1 -11q0 -3 -1 -6q6 0 11 2.5l9 4.5l2 2q42 29 77 66q106 109 184 240t166 256q5 6 9 14q22 48 55 110q25 48 43 85q17 36 37 71l10 16q14 26 40 42q19 12 39 12q13 0 26 -5q7 -3 12 -9l3 -3v-4z" />
    <glyph glyph-name=".notdef" horiz-adv-x="1229" 
d="M120 -130v1721h989v-1721h-989zM180 -70h869v1601h-869v-1601zM390 1248q37 33 70 51q63 36 134 36q110 0 177.5 -57t67.5 -153q0 -58 -27.5 -117.5t-104.5 -155.5q-76 -96 -119 -158.5t-43 -118.5q0 -46 29 -160h-39q-42 116 -42 178q0 91 98 261.5t98 260.5
q0 68 -39.5 107.5t-109.5 39.5q-46 0 -83 -20q-31 -18 -67 -48v54zM467 271l68 70q13 12 24 12q12 0 27 -14l67 -72q11 -13 11 -24q0 -13 -12 -26l-68 -74q-16 -17 -25 -17q-13 0 -24 12l-73 85q-8 11 -8 22q0 12 13 26z" />
    <glyph glyph-name=".null" horiz-adv-x="0" 
 />
    <glyph glyph-name=".null" horiz-adv-x="0" 
 />
    <glyph glyph-name="nonmarkingreturn" horiz-adv-x="508" 
 />
    <glyph glyph-name="space" unicode=" " horiz-adv-x="508" 
 />
    <glyph glyph-name="space" unicode="&#xa0;" horiz-adv-x="508" 
 />
    <glyph glyph-name="exclam" unicode="!" horiz-adv-x="729" 
d="M114 419q1 27 15 51q4 8 12 14q13 9 26 9q10 0 20 -5q19 -12 19 -33q0 -5 -1 -10q-12 -41 -42 -71q-7 -7 -15 -7q-3 0 -6 1q-12 2 -19 14q-9 16 -9 36v1zM633 1547q-2 -15 -10 -27q-53 -78 -85 -167q-21 -54 -42 -110q-40 -106 -83 -212q-67 -169 -151 -330
q-16 -28 -34 -54q-16 -22 -29 -45q-2 -3 -5 -6q-4 -5 -10 -5q-2 0 -5 1q-7 4 -8 12q0 13 5 25q1 2 1 4q22 67 49 132q34 86 59 174l6 18q22 68 49 135q15 38 29 76q44 121 93 240q27 70 66 133q12 21 30 38q14 13 31 13q8 0 17 -3q27 -12 27 -42z" />
    <glyph glyph-name="quotedbl" unicode="&#x22;" horiz-adv-x="601" 
d="M532 1215v-4q0 -17 -13 -28q-48 -52 -81 -110q-5 -12 -12 -23q-20 -30 -48 -57l-2 -1q-5 -5 -8.5 -7t-6.5 -2q-5 0 -12 3q-9 5 -9 11t4 12l-1 1q4 11 9 22l22 60q9 17 16 33q25 48 37 102q9 29 43 29q6 0 13 -1q18 -4 32 -14.5t17 -25.5zM336 1225q1 -4 1 -9
q0 -10 -9 -19q-63 -62 -99 -136q-7 -15 -15 -29q-7 -12 -13 -24q-8 -13 -16 -27q-1 -3 -3.5 -4.5t-3.5 -1.5q-3 0 -6 2q-5 1 -7 3.5t-2 4.5v2q1 15 6 28q26 74 53 149q2 5 4 9q11 30 15 63q6 24 39 24h7q18 -3 31.5 -12.5t17.5 -22.5z" />
    <glyph glyph-name="numbersign" unicode="#" horiz-adv-x="1008" 
d="M711 840q7 -1 14 -1l34 -2q58 -2 112 -25h1q12 -5 21 -13q10 -8 10 -20q0 -4 -1 -8q-3 -10 -8 -12.5t-9 -2.5q-5 0 -10 2q-9 5 -19 5q-4 0 -9 -1q-39 -6 -78 -6q-23 0 -47 2q-8 1 -17 1q-13 1 -27 2l-4 1l-4 -1q-3 -1 -5 -6q-16 -31 -33 -63q-5 -11 -11 -22q6 -3 13 -3h8
q19 -1 39 -2q48 0 96 -8q21 -5 41 -11q4 -2 9 -3q9 -2 15 -9q7 -7 7 -16q0 -3 -1 -6q-4 -12 -17 -14q-48 -8 -95 -8q-18 0 -35 1q-20 2 -39 4q-30 2 -60 5h-1q-4 1 -7 1q-2 0 -4 -1q-4 0 -6.5 -3t-5.5 -10l-30 -54q-38 -71 -76 -143q-26 -49 -59 -94q-11 -15 -21 -29
q-2 -4 -6 -7q-10 -9 -21 -9q-5 0 -11 2q-16 9 -16 27q0 13 5 25q24 81 64 156q26 46 51 92q10 18 20 37q3 5 6 11q1 3 3 7q-8 1 -16 1q-19 2 -36 3q-13 0 -26 1q-16 0 -33 1h-3q-15 0 -22 -15q-23 -46 -46 -91q-17 -33 -34 -67q-29 -62 -69 -119q-17 -26 -30 -54
q-12 -23 -28 -23q-4 0 -8 1q-20 6 -20 29q0 4 1 9q0 3 1 6q4 15 9 31q15 63 43 121q29 55 57 110l22 42q2 5 5 11q1 3 3 7h-13q-13 0 -25 -1l-32 -2q-33 -1 -66 -6h-10q-5 1 -8 7q-1 3 -1 6q0 2 1 4q2 5 7 9q18 15 40 20q59 16 120 18q20 0 28 18q16 32 33 63l14 24
q-3 4 -6 4.5t-6 0.5h-2q-71 -1 -141 -10q-1 -1 -3 -1q-6 0 -12 -2t-12 -8q-4 -4 -11 -4h-3q-9 0 -15 5q-8 7 -8 16q0 6 3 12q8 15 24 22q34 16 72 22q70 13 142 14q19 0 27 17q49 89 106 174q25 36 56 68q11 11 25 19q6 3 12 3q9 0 17 -6q7 -8 7 -17q0 -5 -2 -10
q-9 -23 -22 -44q-1 -2 -3 -5q-1 -3 -3.5 -5t-6.5 -2h-2q-4 0 -6 -2q-3 -3 -5 -7v-1q-41 -77 -78 -156q-4 -8 -7 -15q-1 -1 -1.5 -3t-0.5 -3q2 -2 3.5 -2.5t2.5 -0.5h1q20 0 39 -1q40 0 81 -2q7 0 11.5 3.5t7.5 9.5q36 61 75 118q32 49 68 94q15 18 33 35q7 7 16 12t16 5
q9 0 16 -7q6 -6 6 -14t-5 -17q-6 -12 -15 -23q-23 -28 -41 -60q-41 -69 -78 -140q-1 -1 -1 -3q-2 -3 -3.5 -6.5t-1.5 -8.5zM575 770q-26 1 -50 2q-38 3 -75 3q-6 0 -8.5 -3t-4.5 -8q-7 -13 -14 -27q-14 -26 -27 -52q0 -1 -1 -2q-1 -2 -1.5 -5t2.5 -7h117q6 0 9.5 3t5.5 7
q9 16 17 31l18 32q1 2 3 5q5 8 9 21z" />
    <glyph glyph-name="dollar" unicode="$" horiz-adv-x="961" 
d="M186 292q-5 1 -11 1q-16 0 -30 2q-23 4 -42 17q-29 20 -29 52q0 5 1 10q21 149 128 254l4 4q3 4 5.5 6t4.5 2t5 -2q2 -1 2 -3t-1 -4q-1 -4 -4 -8q-2 -2 -3 -4q-18 -33 -37 -65q-43 -71 -55 -153q0 -1 -1 -2v-5q-1 -5 -1 -9q0 -9 4 -13q5 -6 21 -7q27 0 52 9q9 2 11 11
q37 128 92 249q16 38 32 77q6 15 11 29q6 17 13 33q2 4 2 6t-1 4q-1 4 -7 8q-36 28 -72 57q-22 17 -40 40q-26 36 -26 75q0 26 12 54q12 24 28 45q30 40 65 75q108 110 240 190q13 7 19 21q34 75 85 139l2 2q7 9 16 16q9 6 17 6q7 0 14 -5q10 -8 10 -21q0 -4 -1 -9
q-4 -9 -9 -17v-1q-9 -15 -18 -31q-10 -15 -19 -31q0 -1 -1 -2q-4 -6 -6 -14h5q5 0 9 1l4 2q39 12 80 12q20 0 40 -3q6 -1 11 -3q41 -13 49.5 -34.5t8.5 -34.5q0 -21 -12 -43q-16 -26 -37 -47q-47 -49 -100 -92l-24 -20q-41 -33 -80 -70l-1 -1q-4 -4 -7 -5t-4 -1q-3 0 -5 2
q-5 3 -5 8v1q0 4 3 9q6 11 13 20q20 27 45 51q17 18 35 35l48 48q30 31 56 66q9 11 15 25q1 4 1 6q0 8 -11 9q-9 1 -18 1q-12 0 -24 -2q-79 -17 -147 -61q-8 -6 -12 -15q-27 -67 -55 -133q-56 -128 -104 -259q-3 -8 -3 -10.5v-3.5q0 -3 2 -5q3 -3 10 -9q1 -1 3 -2
q10 -7 19 -14q76 -67 76 -155q0 -33 -10 -68q-19 -60 -57 -110q-66 -85 -159 -139q-32 -19 -69 -29q-13 -3 -17 -16q-16 -51 -37 -101q-4 -11 -8 -21q-4 -11 -10 -22q-5 -6 -12 -6h-4q-10 3 -11 14q0 11 3 22q11 47 22 95q1 6 2 13q1 4 1 7zM409 752q-1 -4 -3 -8
q-2 -5 -4 -11l-14 -36q-15 -38 -30 -75q-38 -94 -73 -190q0 -2 -1 -4q-2 -3 -2.5 -5.5t-0.5 -4.5t1 -5q8 3 14 8q1 1 3 2q55 37 99 86q42 48 65 106q9 24 9 45q0 57 -63 92zM506 1177q-5 0 -7.5 -1.5t-4.5 -2.5q0 -1 -1 -1q-63 -50 -119 -109q-32 -33 -58 -71
q-11 -18 -11 -30v-2q1 -14 18 -29q21 -20 43 -39q7 -5 14 -11q1 -1 1 -2q3 -2 5.5 -3.5t6.5 -1.5q51 152 113 303z" />
    <glyph glyph-name="percent" unicode="%" horiz-adv-x="907" 
d="M206 1107q17 8 27 25q1 1 2 3q46 59 78 128q6 13 12 27q8 22 27 22q4 0 9 -1q6 -1 10 -3q10 -6 19 -6h3q11 0 23 4q59 17 113 50q93 57 168 138q26 28 51 56q7 8 13 15q10 12 21 12q6 0 12 -3q15 -6 15 -22v-4q-2 -16 -9 -32q-24 -60 -55 -117q-66 -120 -141 -235
q-234 -358 -443 -733q-15 -29 -36 -54q-17 -18 -36 -18q-14 0 -28 9q-16 10 -16 26q0 6 2 12q8 26 21 50q204 367 433 717q72 109 142 219q3 4 5 8l4 6q-6 -1 -9.5 -3.5t-6.5 -5.5q-2 -2 -4 -3q-90 -80 -199 -127q-21 -11 -42 -11q-8 0 -17 2q-2 1 -4 1q-3 0 -5 -2
q-3 -2 -5 -7q-21 -42 -40 -85q-3 -6 -6 -13q-9 -24 -20 -47q-19 -39 -53 -64q-23 -18 -51 -18h-6q-70 7 -73 83v8q0 15 3 29q17 89 75 155q50 59 125 66h9q18 0 35 -6q10 -4 16 -12q3 -4 3 -9q0 -3 -1 -6q-3 -5 -9.5 -8.5t-11 -4t-5.5 -0.5q-5 0 -9 2q-2 2 -4 2h-2
q-2 0 -5 -2h-1q-22 -10 -39 -28q-69 -74 -85 -177v-7q1 0 1 -1zM502 670l1 3q0 2 -1 3.5t-2 3.5q-2 3 -2 5q-1 4 -1 7q0 8 11 9q11 0 20 -8q25 -21 41 -50q4 -7 5 -16q1 -11 1 -22q0 -113 -85 -163q-20 -12 -41 -12q-8 0 -16 2q-42 11 -46 56v14q0 97 76 157q16 11 33 11h6z
M454 489q16 8 25 20q38 50 38 112q0 12 -1 23q0 1 -1 2q-1 5 -4 5q-2 0 -4 -2q-5 -4 -9 -9q-34 -49 -44 -109q-2 -9 -2 -20q0 -10 2 -22z" />
    <glyph glyph-name="ampersand" unicode="&#x26;" horiz-adv-x="1369" 
d="M404 551q-6 1 -11 1h-10q-25 0 -50 -1t-50 -1t-50 1q-29 2 -56 10q-79 29 -82 110q0 48 17 92q27 73 73 136q64 92 143 171q230 235 511 409q93 59 197 96q53 16 107 23q11 1 22 1q44 -2 64 -27t20 -53q0 -10 -2 -21q-7 -31 -26 -57q-26 -36 -58 -68q-106 -108 -216 -212
l-4 -4q-48 -45 -91 -95q-21 -24 -35 -52q-3 -6 -3 -11t4 -11q7 -11 7 -21q0 -12 -9 -22q-13 -15 -32 -15q-6 0 -13 2q-29 9 -34 40v3q0 20 10 37q17 30 41 55q61 65 129 121q3 2 5 4q108 92 210 191q28 27 53 58q15 18 25 40q6 13 6 29v4q-4 33 -34 33q-4 0 -9 -1
q-28 -6 -54 -17q-82 -32 -158 -76q-346 -204 -617 -497q-61 -66 -108 -143q-32 -50 -47 -108q-4 -14 -4 -29q1 -14 6.5 -21t19.5 -11q25 -6 51 -6q75 1 151 4q26 1 53 1q103 5 204 25q7 2 13 2q7 0 14 -2q26 -7 33 -31q1 -6 1 -12q0 -18 -15 -32q-11 -10 -26 -14
q-210 -73 -390 -201q-84 -56 -149 -133q-73 -85 -92 -194q-2 -13 -2 -26q0 -8 1 -17q1 -24 22 -37q29 -16 61 -17q62 0 119 20q76 26 144 68q147 90 279 202q11 10 23 20q23 20 46 39q5 4 9 8q2 2 5 4q-2 2 -4 2h-7q-1 -1 -2 -1q-36 -7 -73 -13q-36 -6 -72 -13
q-42 -10 -78 -34q-7 -4 -10 -12q-5 -10 -12 -10q-6 0 -14 8q-10 12 -10 26t12 29q18 20 43 31q72 35 149 55q145 36 292 64q132 29 234 116q15 13 26 30l1 1q3 5 7 9q3 3 7 3q1 0 3 -1q5 -1 7 -7q1 -3 1 -7t-1 -8q-8 -38 -36 -65q-93 -102 -227 -139q-49 -13 -98 -25
q-16 -3 -24 -17q-8 -13 -20 -22q-198 -172 -413 -323q-76 -53 -161 -90q-70 -32 -147 -35h-4q-49 0 -93 23q-72 39 -75 119v12q0 52 16 102q41 129 140 224q79 77 173 136q46 30 92 57q2 0 4 1q6 3 12 10z" />
    <glyph glyph-name="quotesingle" unicode="'" horiz-adv-x="351" 
d="M274 1225q2 -5 2 -10q0 -10 -9 -18q-63 -62 -99 -136q-8 -15 -15 -29l-14 -24q-8 -13 -16 -27q0 -3 -2.5 -4.5t-4.5 -1.5t-6 2q-5 1 -7 4t-2 6q2 15 6 28q27 74 53 149q2 5 4 9q12 30 15 63q7 24 40 24h7q18 -3 31.5 -12.5t16.5 -22.5z" />
    <glyph glyph-name="parenleft" unicode="(" horiz-adv-x="632" 
d="M99 264q-1 18 -1 37q0 118 48 257q57 162 187 322t341 291q13 6 27 6q7 0 15 -2q24 -6 29 -26v-2q0 -21 -25 -23q-35 -7 -61 -26q-2 -2 -5 -3q-217 -138 -350.5 -366t-133.5 -443q0 -23 1 -46q2 -24 5 -48q2 -21 5 -41q4 -50 33 -93q9 -14 14 -29q1 -4 1 -7q0 -4 -1 -7
q-2 -7 -10 -10q-5 -2 -10 -2q-3 0 -6 1q-8 2 -13 8q-17 18 -26 38v1q-32 58 -45.5 114t-18.5 99z" />
    <glyph glyph-name="parenright" unicode=")" horiz-adv-x="582" 
d="M344 933q2 -22 2 -46q0 -116 -46 -253q-55 -165 -184.5 -328.5t-340.5 -295.5q-13 -7 -27 -7q-7 0 -15 2q-23 7 -27 27v3q0 19 24 22q34 7 61 27q2 1 3 2q218 142 349.5 374.5t131.5 452.5q0 23 -1 45q-4 25 -6 49q-3 22 -5 43q-6 49 -35 93q-10 15 -13 30q-3 5 -3 10
q0 2 1 4q2 7 11 11q5 2 9 2t7 -2q7 -2 14 -8q16 -18 26 -37v-2q32 -59 46 -116.5t18 -101.5z" />
    <glyph glyph-name="asterisk" unicode="*" horiz-adv-x="590" 
d="M273 1212q3 2 4 4.5t2 5.5q0 2 1 3q11 30 25 59q0 1 1 1l6 12q4 7 8.5 11t11.5 4h3q14 -3 15 -25v-8q0 -28 -6 -56q0 -2 -1 -4q-1 -5 -1 -9v-4h6l4 4q1 1 2 3q7 5 13 11q10 9 21 17q21 16 47 16h6q23 -2 29 -19q1 -4 1 -8q0 -14 -13 -23q-21 -16 -43 -31q-4 -2 -8 -5
q-37 -24 -72 -50q-9 -6 -9 -7.5v-2.5q0 -3 5 -10v-1q8 -14 18 -27q14 -16 26 -35q12 -17 26 -34q1 -1 2 -3q5 -8 5 -14q0 -5 -4 -9q-5 -4 -9 -4h-2q-6 1 -11 5q-10 6 -19 13q-25 15 -47 33q-4 4 -9 7l-3 3q-4 -1 -5 -3.5t-1 -5.5q-1 -1 -1 -2q-10 -45 -25 -90q-1 0 -1 -1
q-2 -7 -6 -14q-7 -12 -18 -12t-18 12q-5 8 -6 17q-2 18 -2 35q0 18 2 35q1 7 2 13q0 3 1 6q-2 1 -4 1h-1q-2 -1 -3 -2q-32 -27 -72 -40q-1 0 -2 -1q-1 0 -3 -1q-4 -2 -8 -2q-9 0 -16 7q-5 5 -5 12q0 6 4 14q14 27 39 46q28 18 55 38l14 10q10 6 10 8v3q0 3 -5 12
q-20 31 -36 64q-7 15 -9 32q0 12 6 22.5t16 14.5q6 2 12 2q15 0 29 -15q6 -8 11 -16q1 -2 3 -4z" />
    <glyph glyph-name="plus" unicode="+" horiz-adv-x="651" 
d="M395 758q13 -1 26 -3q30 -4 59 -8q22 -4 41 -15q15 -7 15 -23v-2q-2 -18 -20 -23q-21 -6 -44 -6q-44 0 -88 4q-6 0 -12 1q-5 1 -9 1q-3 0 -6 -1q-4 0 -7 -4t-8 -12l-12 -24q-23 -47 -51 -92q-8 -16 -12 -33q-2 -6 -5 -10t-10 -4h-2q-11 0 -17 11q-4 9 -4 18q-1 15 -1 29
q0 54 17 107q1 3 3 7v1q1 3 1 5v2q-1 3 -7 3h-28q-26 0 -52 -4l-8 -2q-7 -2 -14 -3h-6q-14 0 -23 12q-3 6 -3 13q0 10 7 20q14 16 34 24q28 12 58 14q4 0 7 1q26 3 53 3h14q15 0 22 13q20 33 47 60q10 11 22 17q9 5 17 5q11 0 21 -7q13 -10 13 -26q0 -4 -1 -8
q-3 -17 -12 -33q-4 -8 -9 -17q-3 -5 -6 -11z" />
    <glyph glyph-name="comma" unicode="," horiz-adv-x="343" 
d="M261 786q0 -22 -10 -41q-37 -75 -113 -111q-21 -11 -44 -17q-5 -1 -9 -1q-9 0 -18 4q-10 5 -10 12q0 5 6 11q3 3 6 5q2 2 4 3q43 30 76 71q6 7 7.5 12t1.5 9q0 5 -2 11q-1 6 -1 13q0 16 9 33q13 23 36 32q10 3 18 3q14 0 25 -8q17 -13 18 -41z" />
    <glyph glyph-name="hyphen" unicode="-" horiz-adv-x="683" 
d="M232 756q123 -2 236 -15q8 -1 15 -2q21 -1 38 -13q12 -11 12 -24v-3q-1 -13 -18 -22q-14 -7 -30 -7h-4q-63 2 -126 9q-42 4 -85 6q-21 2 -43 3q-30 2 -59 4q-3 1 -6 1q-7 0 -13 -4q-7 -3 -14 -3q-4 0 -8 1q-11 3 -17 12q-5 7 -5 16v3q1 11 9 19q18 17 43 18q24 1 45 1h30
z" />
    <glyph glyph-name="hyphen" unicode="&#xad;" horiz-adv-x="683" 
d="M232 756q123 -2 236 -15q8 -1 15 -2q21 -1 38 -13q12 -11 12 -24v-3q-1 -13 -18 -22q-14 -7 -30 -7h-4q-63 2 -126 9q-42 4 -85 6q-21 2 -43 3q-30 2 -59 4q-3 1 -6 1q-7 0 -13 -4q-7 -3 -14 -3q-4 0 -8 1q-11 3 -17 12q-5 7 -5 16v3q1 11 9 19q18 17 43 18q24 1 45 1h30
z" />
    <glyph glyph-name="period" unicode="." horiz-adv-x="350" 
d="M143 703q-32 0 -39 32q-1 7 -1 13q0 20 14 36q6 7 11 14q13 18 33 25q8 3 16 3q13 0 24 -8q18 -12 22 -35v-6q0 -18 -9 -33q-10 -18 -30 -29.5t-41 -11.5z" />
    <glyph glyph-name="slash" unicode="/" horiz-adv-x="567" 
d="M-116 224q1 25 16 46q5 9 11 18q45 66 89 132q248 375 512 740q70 96 148 187v1l18 20q13 11 24 11q8 0 16 -5q10 -6 12 -13t2 -10q0 -8 -4 -16q-10 -22 -24.5 -41t-39.5 -27q-4 -1 -6 -3.5t-4 -5.5q-2 -2 -3 -4q-94 -120 -180 -246q-237 -346 -463 -700q-16 -25 -31 -50
q-8 -12 -16 -25q-14 -20 -36 -33q-9 -6 -17 -6q-6 0 -12 4q-12 8 -12 26z" />
    <glyph glyph-name="zero" unicode="0" horiz-adv-x="728" 
d="M397 1248q26 38 53 71q39 51 91 88q31 23 66 33q13 3 25 3q44 0 72 -45q23 -41 26 -90q1 -20 1 -39q0 -75 -18 -148q-42 -172 -119 -329q-111 -242 -289 -433q-42 -45 -90 -83q-45 -37 -100 -48q-17 -3 -34 -3q-48 0 -92 26q-56 35 -71 101q-12 50 -12 100q0 36 6 71
q15 93 51 179q98 240 253 442q33 45 75 82q20 18 44 27q16 7 31 7q16 0 31 -12zM353 1178l4 6q-1 1 -2 1l-1 1q-2 -3 -5 -6q-5 -6 -9 -12q-89 -117 -164 -243q-82 -136 -139 -287q-28 -70 -37 -146q-3 -21 -3 -42q0 -36 8 -72q10 -38 45 -49q17 -6 34 -6q23 0 45 11
q32 18 59 43q62 56 114 121q158 195 256 431q52 116 82 241q14 55 14 111q0 17 -1 35q-1 19 -8 36q-5 10 -9 12.5t-8 2.5q-3 0 -8 -2q-22 -6 -41 -19q-31 -21 -57 -49q-54 -58 -97 -126q-57 -88 -115 -176l-10 -16q-7 -11 -16 -11q-3 0 -6 1q-11 5 -11 19v3q1 12 7 24v1
q29 76 70 147q5 7 9 15z" />
    <glyph glyph-name="one" unicode="1" horiz-adv-x="690" 
d="M455 1210q-9 -1 -15 -5q-2 -2 -4 -3q-33 -18 -71 -19q-17 0 -31 9q-10 6 -15 17q-2 4 -2 8q0 6 5 12q4 4 8 4q5 0 9 -4q6 -4 12 -4h3q7 1 15 4q34 14 63 38q57 48 106 106q12 13 23 26q11 14 22 27q16 17 35 17q10 0 20 -4q28 -13 28 -39q0 -8 -3 -17q-7 -19 -19 -37
q-1 -2 -3 -5q-23 -39 -46 -77q-50 -84 -99 -169q-127 -221 -241 -449q-70 -136 -113 -284q-8 -27 -19 -54q-9 -20 -9 -42v-25q0 -10 -7 -14q-3 -2 -7 -2q-6 0 -13 5q-9 7 -13 18q-2 7 -5 14q-9 25 -17 51q-5 18 -5 36q0 21 7 43q42 140 106 270q58 119 122 234q21 40 43 80
q58 109 120 215l3 3q4 7 7 16z" />
    <glyph glyph-name="two" unicode="2" horiz-adv-x="620" 
d="M-168 379h32q87 0 172 -24q134 -38 270 -64q62 -11 124 -11q52 0 105 8q13 2 27 2q3 0 5.5 -0.5t4.5 -2.5q1 -2 1 -3q0 -2 -1 -3q-1 -3 -4 -5v-1q-12 -12 -28 -17q-31 -9 -63 -13q-72 -10 -144 -18q-18 -1 -35 -1q-65 0 -127 17q-85 21 -169 45l-62 18q-59 16 -119 22
q-11 2 -21 2q-23 0 -46 -8q-5 -2 -11 -2q-8 0 -16 5q-8 6 -8 13q0 6 5 13q3 4 7 8q3 2 6 5q111 112 225 220q92 88 183 177l70 70q81 79 159 160q74 77 135 166q24 35 43 73q10 21 15 44q1 7 1 13q0 29 -25 48q-19 14 -43 21q-37 12 -73 12q-50 0 -99 -23
q-145 -73 -179 -234q-3 -19 -3 -39q0 -32 9 -63q1 -2 1 -4q4 -12 6 -23v-3q0 -10 -6 -14q-3 -2 -7 -2q-5 0 -11 3q-9 5 -16 15q-48 63 -48 135q0 32 9 65q30 109 120.5 184t211.5 78h5q74 0 141 -30q35 -15 61 -42q38 -40 38 -90q0 -17 -5 -36q-11 -42 -33 -79
q-49 -84 -117 -153q-79 -83 -162 -162q-14 -13 -27 -26q-178 -175 -363 -342q-52 -46 -107 -89q-1 -1 -3 -2q-3 -2 -6 -5t-5 -8z" />
    <glyph glyph-name="three" unicode="3" horiz-adv-x="845" 
d="M369 886q7 -1 12 -1q6 0 11 1q4 0 7 1q23 2 45 2q52 0 103 -11q33 -8 61 -27q49 -32 49 -90v-11q-4 -37 -19 -71q-26 -62 -67 -114q-124 -157 -292 -260q-55 -35 -116 -59q-51 -20 -106 -20h-10q-34 1 -64 17q-56 33 -56 93q0 10 2 21q8 46 31 85l12 20q43 78 91 152v1
q15 24 33 45q11 13 27 14q9 -1 9 -7q0 -1 -1 -4q-4 -11 -10 -20q-48 -78 -88 -160q-23 -46 -31 -97q-2 -13 -2 -26q0 -10 1 -19q4 -30 33 -36q11 -2 21 -2q15 0 30 4q41 9 79 30q189 99 324 268q41 50 66 109q9 21 12 44q1 7 1 13q0 27 -28 38q-34 13 -70 15q-23 2 -47 2
q-72 0 -142 -21q-21 -6 -40 -18q-17 -13 -37 -20q-7 -2 -14 -2q-15 0 -28 10q-12 11 -12 23q0 10 7 20q5 6 12 12q0 1 1 1q29 29 61 55q135 111 265 228q69 60 128 131q26 30 46 66q8 15 12 31v5q0 5 -1 8q-3 5 -11 7q-15 4 -31 4h-6q-49 0 -95 -14q-204 -61 -357 -211
q-59 -58 -93 -135q-5 -10 -9 -12.5t-9 -2.5h-3q-14 2 -17 21q-1 7 -1 13q0 26 10 50q23 59 62 109q21 26 45 48q153 142 351 197q53 14 108 14q12 0 25 -1q39 -2 73 -19q51 -29 51 -79q0 -17 -6 -36q-11 -35 -33 -65q-39 -56 -86 -103q-93 -95 -195 -179q-19 -17 -39 -34
q-16 -13 -31 -27q-2 -1 -3 -2q-6 -4 -11 -12z" />
    <glyph glyph-name="four" unicode="4" horiz-adv-x="658" 
d="M-42 679q24 -5 45 -6h7q110 -9 220 -23h22q4 0 7 4t6 14q41 98 84 196q2 5 4 9q25 58 62 110q15 21 34 39q9 8 20 10h3q16 0 18 -17q0 -12 -3 -23q-1 -5 -3 -10q-5 -18 -11 -36q-50 -135 -107 -268q-1 -2 -1 -3q-4 -7 -5 -16h7q10 0 19 4q5 1 9 2q11 3 21 7q7 2 13 4
q4 1 8 1q3 0 6 -4q1 -2 1 -4v-2q-1 -4 -3 -7q-1 -1 -1 -2q-10 -15 -26 -23q-28 -15 -60 -21q-15 -2 -21 -18q-34 -87 -68 -173q-9 -23 -18 -45q-16 -43 -28 -86q0 -1 -1 -2q-6 -18 -6 -35q0 -21 8 -40q2 -3 2 -5v-2q0 -3 -2 -5q-3 -4 -5 -4h-4t-4 1q-28 14 -48 35t-23 56v12
q0 24 6 48q13 40 29 78q6 15 12 31q23 58 46 115q1 2 2 5q3 6 3 13q-2 2 -4.5 2h-4.5h-1q-44 -8 -88 -8q-26 0 -52 3q-97 5 -193 20h-5q-18 2 -34 10q-25 15 -25 35q0 17 16 36q8 8 17 16q211 174 403 370q70 69 140 137q29 27 57 54q50 48 104 91q44 34 85 71q11 12 25 18
q4 2 7 2q6 0 11 -5q3 -4 3 -9q0 -4 -3 -9l-1 -1q-11 -19 -23 -38q-37 -52 -81 -99q-94 -103 -194 -201l-18 -18q-76 -74 -150 -148q-118 -119 -247 -226q-6 -4 -12 -10q-4 -3 -8 -7z" />
    <glyph glyph-name="five" unicode="5" horiz-adv-x="790" 
d="M249 1346q-11 -2 -23 -4q-33 -3 -64.5 -12.5t-58.5 -35.5q0 -1 -1 -1v-1q-5 -5 -10 -5q-4 0 -7 2q-5 3 -5 8v11q6 30 26 51q19 19 42 30q53 26 109 36q98 18 197 18h27q127 0 254 -14h2q30 -2 60 -12q13 -4 24 -14q11 -11 11 -23v-2q-2 -14 -16 -22q-20 -10 -42 -10h-16
q-33 0 -66 3q-15 2 -30 3q-102 8 -203 8q-62 0 -124 -3q-8 0 -11.5 -1t-5 -4.5t-3.5 -12.5v-1q-9 -35 -22 -68q-66 -168 -110 -344q-2 -8 -4 -15q-4 -14 -8 -29q-2 -6 -4 -13q5 1 7.5 2.5t5.5 4.5l2 2q97 82 211 128q43 20 88 20q8 0 16 -1q39 -3 71 -26q54 -39 54 -107
q0 -9 -1 -17q-4 -45 -21 -86q-26 -65 -63 -124q-88 -150 -207 -271q-88 -91 -199 -142q-42 -20 -87 -26q-8 -1 -15 -1q-70 0 -119 60q-18 23 -18 48q0 5 1 11q5 30 33 47q7 5 13 5q11 0 12 -20l1 -13l-1 -14v-2q0 -19 14 -27q18 -11 39 -11h6q31 2 61 14q66 27 123 73
q110 90 194 209q63 86 112 183q20 40 33 84q8 25 8 51q-1 33 -27 48q-21 12 -44 12q-8 0 -15 -1q-27 -3 -52 -12q-86 -32 -159 -90q-67 -53 -105 -135q-7 -17 -13 -35q-11 -34 -40 -34q-4 0 -8 1q-40 9 -42 52q1 15 5 30q48 182 102 362q25 84 66 160q11 20 25 40
q8 12 15 25z" />
    <glyph glyph-name="six" unicode="6" horiz-adv-x="659" 
d="M51 577q7 7 10 14q1 3 2 5q53 95 116 181q26 36 59 64q18 16 39 25q19 7 35 7q46 0 75 -53q21 -44 23 -94v-23q0 -86 -26 -167q-54 -188 -204 -278q-36 -22 -76 -30q-13 -2 -24 -2q-92 0 -129 110q-13 50 -13 101v20q5 101 36 196q130 408 406 694q52 55 117 85
q22 11 47 11h4q9 0 17 -5q16 -7 18 -28q0 -21 -15 -29l-1 -1q-11 -7 -23 -10q-16 -3 -28 -15l-7 -7q-10 -9 -20 -19q-163 -174 -289 -387q-91 -161 -146 -345l-4 -14q0 -2 1 -3v-3zM348 698v7q0 32 -8 63q-9 37 -32 37q-11 0 -24 -7q-14 -8 -27 -18q-17 -14 -34 -30
q-81 -85 -141 -192q-30 -50 -48 -108l-1 -1q-4 -11 -4 -24q1 -33 9 -65q13 -48 55 -48h2q38 2 71 24q90 54 135 160q41 95 47 202z" />
    <glyph glyph-name="seven" unicode="7" horiz-adv-x="604" 
d="M551 1329q-9 -1 -19 -2q-19 -3 -38 -5l-44 -4q-66 -8 -131 -14q-20 -2 -39 -2q-55 0 -109 13q-33 7 -58 30q-18 16 -21 42v2q0 31 29 34q11 0 22 -3q64 -18 130 -18q31 0 63 4q86 8 172 19q31 4 63 10q16 2 31 5q3 0 6 1q11 2 22 2q8 0 16 -1q27 -6 35 -35q2 -7 2 -14
q0 -21 -17 -35q-69 -63 -125 -139q-4 -6 -9 -11q-111 -145 -212 -299q-21 -34 -44 -67q-32 -47 -63 -96q-61 -92 -107 -194q-14 -30 -31 -86t-23 -95t-6 -57q0 -29 8 -48l2 -4q2 -4 4 -9q3 -5 3 -8v-4q0 -4 -3 -8q-6 -8 -14 -8q-3 0 -7 2q-15 5 -32.5 24t-31 42.5
t-15.5 41.5v9q0 33 6 64q18 100 59 191q80 168 191 313q60 78 124 152q12 13 23 26q91 106 176 217q5 6 9 13q2 2 4 5q0 2 -1 4z" />
    <glyph glyph-name="eight" unicode="8" horiz-adv-x="629" 
d="M251 995q2 0 4.5 1.5t4.5 4.5q2 1 4 3q1 1 2 1q21 16 44 30q5 3 8.5 3.5t4.5 0.5q4 0 9 -3q6 -7 6 -15q0 -4 -1 -8q-5 -17 -16 -31q-4 -4 -7 -8q-20 -28 -42 -55q-8 -9 -8 -20q0 -5 2 -10q28 -113 55 -225q18 -70 18 -142v-21q-3 -50 -26 -94q-76 -146 -236 -176
q-27 -6 -54 -6q-25 0 -50 5q-99 22 -106 124v7q0 49 13 96q29 107 89 200q88 140 201 260q12 12 12 27q0 3 -1 7q-7 41 -7 82q0 87 32 170q77 185 271 234q23 6 46 6h12q82 -8 90 -90v-12q0 -37 -10 -73q-22 -87 -64 -167q-58 -111 -123 -219q-12 -19 -25 -37
q-17 -22 -30 -46q-3 -5 -6 -9q-9 -14 -14 -29q-3 -11 -13 -11h-3q-12 3 -13 16v4q0 12 5 23q8 17 15 35q19 52 44 103q6 11 12 23q36 67 69 135q48 99 69 208q4 19 4 39v8q0 13 -5 18q-7 7 -26 7q-22 0 -43 -6q-130 -37 -189 -159q-36 -76 -36 -157q0 -23 3 -47q0 -1 1 -2.5
t4 -2.5zM204 828q-3 0 -4.5 -1.5l-2.5 -2.5q0 -1 -1 -1q-79 -99 -147 -206q-37 -59 -62 -124q-23 -56 -29 -116q-1 -8 -1 -15q0 -45 50 -45h15q69 0 129 37q101 63 105 182v16q0 41 -8 80q-15 74 -32 148q-4 18 -8 37v2q-1 3 -1.5 5t-2.5 4z" />
    <glyph glyph-name="nine" unicode="9" horiz-adv-x="713" 
d="M536 1192q-12 -12 -17 -25q0 -1 -1 -2q-19 -43 -54 -73q-7 -7 -13 -15l-2 -2q-89 -114 -199 -208q-27 -24 -59 -41q-34 -19 -72 -19q-7 0 -14 1q-72 12 -78 84v12q0 33 9 64q15 60 46 114q79 132 196 231q36 31 78 52q30 15 63 20q8 1 16 1q78 0 102 -81q4 -18 4 -36
q2 -1 4 -1q1 0 2 1q2 1 3 4q1 1 2 1q8 11 17 22q35 41 62 88q12 22 28 41q6 7 13 13q7 5 15 5q5 0 11 -3q12 -6 12 -21v-6q0 -18 -5 -35q-24 -82 -58 -161q-37 -85 -72 -170q-61 -152 -129 -301q-67 -145 -151 -280q-44 -69 -101 -128q-59 -59 -133 -100q-13 -8 -27 -11
q-5 -2 -10 -2q-6 0 -12 3q-11 6 -11.5 12t-0.5 7q0 8 9 14q21 15 41 31q51 43 89 100q191 282 315 600q25 61 51 121l26 60l2 4q1 3 2.5 5.5t1.5 4.5zM471 1223q0 30 -11 58q-5 10 -10 13t-11 3q-4 0 -8 -1q-20 -3 -37 -13q-37 -20 -68 -48q-95 -84 -160 -191
q-29 -46 -42 -99q-5 -18 -6 -36v-5q0 -6 2 -8q3 -2 13 -2q24 1 45 13q34 17 65 41q120 88 211 205q8 10 11 23q5 24 6 47z" />
    <glyph glyph-name="colon" unicode=":" horiz-adv-x="358" 
d="M118 703q-32 0 -39 32q-1 7 -1 13q0 20 14 36q6 7 11 14q13 18 33 25q8 3 16 3q13 0 24 -8q18 -12 22 -35v-6q0 -18 -9 -33q-10 -18 -30 -29.5t-41 -11.5zM192 904q-32 0 -38 31q-2 8 -2 15q0 19 14 34q6 7 11 15q13 18 34 25q7 2 15 2q13 0 25 -7q18 -12 21 -35v-7
q0 -17 -8 -32q-11 -18 -30.5 -29.5t-41.5 -11.5z" />
    <glyph glyph-name="semicolon" unicode=";" horiz-adv-x="387" 
d="M224 786q-1 -22 -10 -41q-37 -75 -113 -111q-21 -11 -45 -17q-4 -1 -9 -1q-8 0 -17 4q-10 5 -10 12q0 5 5 11q3 3 7 5q2 2 4 3q42 30 76 71q6 7 7.5 12t1.5 9q0 5 -2 11q-2 7 -2 15q0 15 9 31q13 23 36 32q10 3 19 3q13 0 24 -8q18 -13 19 -41zM232 904q-33 0 -39 31
q-2 7 -2 14q0 19 15 35q6 7 11 15q12 18 33 25q8 2 15 2q13 0 25 -7q18 -12 22 -35v-4q0 -19 -9 -35q-11 -18 -30.5 -29.5t-40.5 -11.5z" />
    <glyph glyph-name="semicolon" unicode="&#x37e;" horiz-adv-x="387" 
d="M224 786q-1 -22 -10 -41q-37 -75 -113 -111q-21 -11 -45 -17q-4 -1 -9 -1q-8 0 -17 4q-10 5 -10 12q0 5 5 11q3 3 7 5q2 2 4 3q42 30 76 71q6 7 7.5 12t1.5 9q0 5 -2 11q-2 7 -2 15q0 15 9 31q13 23 36 32q10 3 19 3q13 0 24 -8q18 -13 19 -41zM232 904q-33 0 -39 31
q-2 7 -2 14q0 19 15 35q6 7 11 15q12 18 33 25q8 2 15 2q13 0 25 -7q18 -12 22 -35v-4q0 -19 -9 -35q-11 -18 -30.5 -29.5t-40.5 -11.5z" />
    <glyph glyph-name="less" unicode="&#x3c;" horiz-adv-x="721" 
d="M279 760q5 -6 12 -9l4 -2q50 -30 96 -66l44 -34q47 -36 92 -74q37 -33 75 -65q19 -16 38 -33q10 -7 16 -18q4 -7 4 -13q0 -5 -3 -10q-4 -5 -11 -5q-4 0 -9 2q-40 14 -76 41q-39 28 -81 50q-70 37 -133 88q-53 42 -109 76q-13 8 -27 17q-11 8 -22 8q-7 0 -15 -4t-19 -4
q-29 1 -47 27q-8 14 -8 27q0 12 7 23q10 11 23 17q37 18 73 36l112 56q91 45 172 104q21 16 42 31l36 26q24 16 41 38q6 8 9 15.5t3 15.5v8q0 2 1 4q1 3 5 4h3q7 0 13 -7q14 -15 16 -33q1 -7 1 -14q0 -20 -7 -37q-13 -33 -35 -60q-40 -47 -90 -83q-74 -55 -157 -96
q-14 -7 -29 -15q-23 -11 -46 -23l-4 -2q-3 -1 -5.5 -2.5t-4.5 -4.5z" />
    <glyph glyph-name="equal" unicode="=" horiz-adv-x="791" 
d="M455 825h155q16 0 31 -6q21 -8 23 -29q-2 -20 -20 -28q-17 -9 -36 -10q-7 0 -14 -1q-47 -3 -95 -5q-50 -2 -99 -3q-41 -2 -81 -3q-37 0 -73 5q-6 1 -11 3q-21 8 -24 30v2q0 20 17 31q18 10 40 11q57 5 115 5q36 0 72 -2zM373 622l-42 -2l-116 -4h-7q-19 0 -37 4
q-13 2 -25 11q-13 10 -13 24q0 4 1 8q6 20 26 22q21 3 42 4q102 5 204 5q44 0 88 -1q32 -1 64 -8q18 -3 32 -16q8 -8 8 -16t-9 -16q-15 -14 -35 -14h-3q-33 1 -66 1h-112v-2z" />
    <glyph glyph-name="greater" unicode="&#x3e;" horiz-adv-x="790" 
d="M491 774q-5 7 -12 10q-2 2 -5 3q-49 33 -95 72q-22 19 -44 37q-47 38 -92 80q-38 35 -75 69l-38 36q-10 8 -16 19q-4 7 -4 13q0 5 3 10q4 5 10 5q4 0 9 -3q41 -17 76 -46q40 -31 82 -55q70 -42 133 -97q52 -45 109 -83q13 -9 26 -19t25 -10q7 0 13 3t14 3h4q30 -2 47 -29
q8 -15 8 -28q0 -12 -7 -23q-9 -10 -23 -15q-33 -14 -66 -29q-60 -26 -119 -51q-90 -39 -171 -93l-42 -28q-18 -12 -37 -24q-23 -14 -41 -36q-5 -7 -8.5 -14t-3.5 -16v-4l1 -4l-1 -3q-1 -3 -5 -4h-3q-7 0 -14 7q-13 16 -15 35q-1 7 -1 14q0 20 7 37q13 32 35 57q40 45 90 78
q73 50 157 86q15 6 30 13q23 10 45 19l4 2q3 1 5.5 2.5t4.5 3.5z" />
    <glyph glyph-name="question" unicode="?" horiz-adv-x="1036" 
d="M55 404q1 27 15 51q4 8 12 13q13 10 26 10q10 0 20 -5q19 -12 19 -33q0 -5 -1 -10q-12 -41 -42 -71q-7 -7 -17 -7h-4q-12 3 -19 15q-9 16 -9 35v2zM731 1607h7q43 0 84 -12q75 -23 98 -99q3 -15 3 -30q0 -22 -7 -44q-16 -50 -48 -92q-53 -72 -122 -127
q-73 -61 -187.5 -164t-214 -216t-128.5 -204q-4 -13 -4 -25q0 -9 2 -17q1 -1 1 -3q1 -3 1 -5v-2q0 -14 -11 -14q-3 0 -7 1q-43 17 -48.5 46t-5.5 41q0 30 14 59q66 124 151.5 207t189.5 161l48 38q21 17 41 33q58 44 114 92q69 59 112 139q16 31 22 64q1 8 1 15q0 48 -51 62
q-30 6 -60 6q-41 0 -80 -11q-67 -17 -128 -50q-86 -46 -132 -132q-38 -71 -57 -151q-4 -15 -4 -30q0 -13 3 -26q2 -7 2 -13q0 -13 -10 -18q-5 -2 -10 -2q-12 0 -24 12q-18 23 -22 52q-3 19 -3 38q0 32 8 64q45 213 243 303q81 39 170 51q24 3 49 3z" />
    <glyph glyph-name="at" unicode="@" horiz-adv-x="1378" 
d="M601 859q-10 -8 -21 -17q-11 -8 -22 -17q-15 -11 -30 -23q-41 -32 -82 -63q-27 -22 -59 -36q-22 -10 -44 -10q-12 0 -25 3q-45 13 -52 60q-1 6 -1 13q0 21 8 43q15 46 43 87q91 130 229 208q49 29 105 37q12 2 23 2q19 0 37 -5q58 -12 65 -78q4 0 6 1.5t4 3.5q1 1 2 3
l24 22q15 15 31 29q13 13 30 21q9 5 17 5q12 0 22 -9q11 -11 11 -24q0 -7 -3 -15q-6 -16 -17 -30q-21 -27 -44 -52q-4 -5 -9 -10q-102 -111 -191 -233q-22 -30 -40 -63q-11 -19 -15 -40q-1 -5 -1 -9q0 -19 23 -25q11 -2 22 -2q15 0 31 4q91 21 163 81q98 86 172 193
q47 65 79 138q39 90 39 185q0 25 -3 51q-19 136 -146 192q-66 28 -137 29q-15 1 -30 1q-127 0 -241 -62q-272 -146 -364 -440q-25 -83 -25 -165q0 -90 30 -180q55 -154 208 -208q88 -34 180 -34q17 0 33 1q98 8 188 46q199 80 328 252q17 24 28 51l2 4q27 57 42 119
q4 12 4 25q0 7 -1 15q-1 4 -1 7q0 15 17 22q5 2 10 2q13 0 22 -14q6 -10 6 -20q0 -5 -1 -10q-3 -11 -8 -22q-12 -25 -17 -52q-2 -15 -10 -28q-1 -2 -2 -5q-17 -34 -39 -66q-2 -4 -4 -7q-58 -94 -135 -173q-179 -172 -424 -218q-44 -8 -87 -8q-92 0 -180 35q-160 62 -230 220
q-49 116 -49 241q0 16 1 32q8 195 113 358q130 208 351 313q112 53 227 53q87 0 175 -30q151 -50 203 -202q15 -50 15 -102q0 -22 -3 -45q-14 -153 -98 -282q-80 -128 -186 -236q-96 -96 -225 -133q-23 -7 -46 -7h-11q-99 11 -100 112q4 42 23 79q26 49 60 93q4 5 7 11
q2 2 4 5q-1 1 -3 1q0 1 -1 1zM362 785q42 9 78 24q117 49 217 127q39 31 70 70l1 1q2 2 3 3.5t1 2.5l-1 2q-3 6 -3 11q0 6 1 11t1 10v2q0 23 -24 24h-7q-11 0 -22 -2q-49 -13 -92 -40q-99 -62 -172 -153q-27 -33 -45 -71q-1 -2 -2 -3q-2 -4 -3 -8.5t-1 -10.5z" />
    <glyph glyph-name="A" unicode="A" horiz-adv-x="1483" 
d="M1103 633q-10 4 -20 4h-53q-139 0 -279 -9q-140 -10 -279 -22l-36 -4q-24 -3 -49 -5q-13 0 -20 -12q-17 -30 -35 -60q-3 -4 -3 -7v-2q0 -4 6 -8q14 -9 26 -21q48 -45 48 -103q0 -24 -9 -51q-12 -38 -35 -71q-39 -57 -89 -105q-58 -55 -124 -101q-22 -15 -45 -26
q-17 -8 -36 -9q-38 2 -38 37v5q3 17 11 32q17 35 38 68q92 148 178 299q3 3 5 6q3 5 3 7v2q0 2 -3 4q-3 3 -13 7q-64 26 -133 36q-77 12 -156 16h-21q-46 0 -93 -7q-5 -1 -11 -1q-38 -5 -77 -9h-8q-8 0 -17 1q-15 1 -26 11q-12 13 -12 26v6q4 17 23 27q16 6 32 7
q101 10 202 26q106 17 212 27q102 8 204 15q17 1 26 16q146 236 319 457q122 155 266 294q48 48 104 87q36 26 77 42q31 12 64 12h10q73 -7 107 -70q26 -52 28 -111q1 -21 1 -42q0 -90 -21 -179q-54 -239 -131 -474l-2 -6l-4 -16q-2 -6 -2 -9v-1q1 -3 10 -4q45 -7 88 -19
q15 -4 29 -10q4 -1 5.5 -2.5t1.5 -4.5v-2q-1 -5 -4.5 -5.5t-6.5 -0.5q-24 2 -47 4q-21 2 -43 4q-6 1 -13 1q-10 0 -20 1q-2 1 -4 1q-11 0 -14 -13q-16 -52 -33 -103q-30 -89 -59 -179l-126 -380q-13 -38 -40 -68q-7 -9 -16 -15q-10 -8 -21 -8q-8 0 -17 5q-13 8 -13 22
q0 5 1 10l6 30q6 29 15 57l146 442q7 22 14 43q18 53 35 107q6 17 12 35q1 5 3 11q0 2 1 5zM425 677v-3q3 -1 6 -1h5q27 1 53 3q56 3 111 4q116 6 231 6q135 0 270 -8h12q4 0 6 3.5t4 10.5q2 8 5 15q16 53 33 105q62 199 108 402q19 88 19 178v24q-1 32 -10 63
q-16 48 -64 48q-9 0 -18 -1q-46 -9 -86 -33q-57 -35 -104 -80q-118 -107 -221 -229q-197 -237 -356 -499l-1 -1q-2 -2 -2.5 -3.5t-0.5 -3.5zM82 74l10 6q9 7 18 13q58 45 111 97q50 50 88 110q20 30 29 66q2 11 2 22q0 41 -35 68q-5 4 -8 4q-4 0 -6 -6q-3 -5 -6 -9
q-1 -3 -3 -5q-79 -142 -161 -283q-16 -28 -31 -57q-1 -3 -2 -5q-1 -1 -1 -2q-3 -4 -4 -7.5t-1 -7.5v-4zM188 573q55 -16 106 -40q3 -2 5 -2q1 0 2 1q3 2 4 6q4 5 7 11q10 15 19 31l1 1q2 2 2 4v3t-1 4q-2 0 -3 -1q-70 -6 -142 -18z" />
    <glyph glyph-name="B" unicode="B" horiz-adv-x="1457" 
d="M615 1002q4 -2 7.5 -3t7.5 -1h3q117 -12 234 -14h20q154 0 300 43q85 24 149 81q26 23 42 54q12 24 12 48q0 32 -20 64q-20 33 -51 57q-79 63 -173 94q-108 38 -219 52q-78 10 -155 10q-19 0 -38 -1q-135 -6 -262 -46q-207 -65 -364 -214q-58 -50 -87 -124v-2
q-6 -14 -8 -30v-4q0 -13 10 -22q7 -6 7 -11q0 -6 -6 -11q-7 -6 -17 -6q-11 0 -20 8q-16 13 -17 34q0 23 8 43q26 67 71 119q80 92 184 154q198 121 434 148q71 8 144 8q67 0 136 -7q157 -14 308 -77q65 -27 122 -70q30 -22 54 -51q48 -59 48 -126q0 -27 -8 -56
q-16 -53 -54 -91q-53 -56 -124 -88q-113 -48 -237 -62q-87 -12 -175 -12h-7q-6 0 -11 -2q3 -3 6 -4.5t6 -3.5q2 0 4 -1q45 -20 86 -48q75 -50 104 -136q3 -10 5 -11.5t5 -1.5q4 0 11 2q28 5 57 9q65 11 130 23q79 12 161 15q14 0 27 -2q7 0 12.5 -3t6.5 -10q0 -8 -4.5 -10.5
t-11.5 -3.5q-55 -7 -109 -18q-33 -7 -67 -13q-40 -6 -81 -13q-58 -11 -117 -20q-7 -1 -10 -4.5t-3 -9.5v-17q0 -91 -36 -171q-38 -87 -99 -157q-167 -192 -394 -306q-182 -94 -389 -120q-52 -7 -103 -7q-90 0 -181 21q-53 13 -101 41q-30 17 -54 43q-42 47 -42 101
q0 21 6 42q12 37 36 67q52 67 122 116q152 110 329 175q197 72 402 122q191 48 386 85q19 3 20.5 6t1.5 5q0 7 -7 21q-12 29 -34 52q-32 34 -71 58q-79 48 -164 80q-5 3 -11 3q-29 3 -58 11q-17 4 -33 7q-13 2 -25 2h-9q-11 0 -21 1q-6 0 -9.5 -3t-5.5 -7l-2 -2
q-9 -14 -19 -28q-28 -38 -55 -79q-58 -86 -106 -180q-18 -36 -27 -76q-3 -13 -13 -13q-4 0 -9 2q-17 7 -24 26q-8 23 -8 45q0 12 2 23q5 35 19 67q60 137 148 255q45 61 90 123q9 13 18 25q62 90 136 168q27 27 59 49q17 13 38 20q10 4 21 4q4 0 9 -1q30 -4 40 -21.5
t10 -30.5q0 -12 -7 -26q-5 -10 -14 -18q-26 -25 -56 -43q-4 -2 -7 -3t-5 -1t-5 1q-4 3 -7 3q-2 0 -3 -1q-4 -1 -8 -5q-74 -79 -135 -170q-1 -1 -1 -3q0 -1 -1 -3zM-48 -62q22 -1 44 -1q160 0 315 45q250 77 447 245q70 60 128 132q59 70 89 160q14 43 16 88v3q0 8 -6 8
l-4 -1q-25 -4 -49 -9q-9 -1 -17 -3q-323 -59 -631 -163q-94 -32 -184 -73q-125 -57 -233 -140q-54 -42 -96 -97q-18 -22 -27 -49q-5 -15 -5 -29q0 -36 35 -63q26 -19 56 -30q66 -22 122 -23z" />
    <glyph glyph-name="C" unicode="C" horiz-adv-x="1408" 
d="M-4 137v20q0 135 39 253q66 208 180 384q201 318 496 529q157 115 342 168q56 18 116 18q14 0 28 -1q27 -2 54 -14q91 -44 91 -136q0 -16 -3 -33q-9 -43 -31 -79q-33 -57 -73 -107q-75 -94 -165 -169q-54 -44 -108 -87q-6 -5 -12 -9q-33 -28 -75 -31h-5q-11 0 -21 3
q-18 7 -21.5 17t-3.5 14q0 11 8 22q13 15 31 22q31 14 60 31q1 1 2 1q52 31 102 67q34 23 68 45q37 25 64 61q49 60 88 128q18 30 29 66q5 15 5 31q0 7 -1 14q-5 37 -37 50q-20 7 -40 7q-6 0 -13 -1q-76 -7 -146 -34q-121 -42 -227 -113q-378 -248 -598 -669
q-71 -132 -110 -283q-21 -81 -23 -167q0 -46 9 -92q17 -81 89 -108q48 -18 95 -18q33 0 66 9q89 23 168 69q56 31 109 70q156 113 303 239q34 29 69 57q243 202 412 358l12 12q3 2 5 3t3 1q2 0 5 -2q4 -3 6.5 -6.5t2.5 -8.5q-1 -12 -4 -22t-11 -19q-173 -167 -420 -377
l-70 -62q-132 -118 -270 -227q-113 -90 -244 -148q-76 -34 -159 -34q-21 0 -43 2q-30 4 -60 15q-127 50 -155 195q-8 42 -8 76z" />
    <glyph glyph-name="D" unicode="D" horiz-adv-x="1901" 
d="M572 529q3 -1 5 -1h2q4 0 7 2q2 1 4 1q247 76 501 117q182 30 365 52q14 1 29 3h9q12 1 21 11q83 99 125 230q17 55 17 114q0 22 -2 44q-14 104 -83 175q-84 84 -190 118q-104 32 -210 35q-23 1 -46 1q-129 0 -256 -29q-148 -35 -289 -96q-142 -56 -273 -137
q-128 -83 -234 -198q-42 -45 -73 -101q-14 -22 -17 -50q-2 -20 -19 -25q-4 -1 -7 -1q-13 0 -23 12q-12 15 -12 33q0 9 4 19q5 14 14 26q39 57 84 108q167 188 379 305q252 136 529 190q100 19 201 25q24 2 49 2q152 0 296 -71q74 -35 135 -97q123 -126 123 -294
q0 -45 -9 -93q-25 -122 -88 -221q-2 -3 -3 -5q-6 -6 -8 -16q4 -2 8 -2q3 0 6 1h5q36 2 71 8q23 4 47 6q39 4 77 8q31 3 61 6h5q4 0 8 -1q15 -3 16 -18q0 -15 -13 -18t-27 -3q-20 -1 -39 -2l-58 -4q-48 -4 -97 -12q-26 -4 -53 -7q-19 -3 -38 -5q-12 -2 -20 -12
q-139 -180 -311 -315q-279 -228 -600 -372q-172 -77 -356 -109q-91 -17 -182 -17q-19 0 -37 1q-74 1 -145 28q-39 14 -70 46q-41 43 -41 99q0 18 4 38q14 52 46 91q45 54 100 94q116 84 244 144q87 44 178 79q19 8 29 29q91 185 191 363q77 136 165 263q40 58 91 102
q18 16 40 27q11 5 22 5q17 0 34 -14q20 -21 20 -50q0 -6 -1 -12q-4 -29 -19.5 -45.5t-35.5 -16.5q-6 0 -13 1h-4q-9 0 -15 -7q-30 -32 -55 -69q-79 -116 -149 -240q-71 -126 -137 -256q-2 -2 -3 -4q-5 -7 -6 -16zM398 398l-1 3q-2 1 -4 1h-2q-3 -1 -6 -3q-1 -1 -3 -2
q-107 -44 -209 -100q-95 -51 -180 -121q-38 -33 -68 -76q-16 -23 -24 -53q-3 -11 -3 -21q0 -34 28 -56q25 -18 53 -26q60 -16 121 -16q25 0 50 3q151 12 296 63q402 139 746 411q134 103 252 228q2 2 4 3q3 3 5 6t3 8q-4 1 -8 1q-3 0 -7 -1h-2q-43 -7 -85 -13
q-41 -7 -83 -13q-221 -33 -439 -84q-143 -33 -283 -79q-18 -5 -25 -24q-6 -11 -11 -22q-6 -11 -11 -23q-48 -103 -108 -196q-1 -1 -2 -3q-10 -16 -23 -16q-6 0 -13 3q-18 11 -19 35q0 25 8 47l10 28q15 53 40 101v1z" />
    <glyph glyph-name="E" unicode="E" horiz-adv-x="1361" 
d="M521 833h92q14 0 28 1h22q34 0 67 2q30 2 60 2q37 0 74 -3q13 0 26 -1q13 0 27 1h10q4 1 8 1q22 1 44 1q39 0 78 -4q22 -1 39 -16q10 -12 10 -25v-5q-3 -16 -19 -23q-3 -1 -5 -1h-3q-4 0 -6 6q-2 7 -6 8.5t-9 1.5v1q-18 2 -37 2q-18 0 -37 -2q-39 -3 -77 -3q-20 0 -39 1
q-178 0 -356 -5q-8 0 -14 -3t-11 -13q-109 -257 -206 -521q-33 -85 -50 -176q-3 -19 -4 -38q-1 -7 -1 -14q0 -16 5 -31q4 -13 10 -17.5t17 -4.5q26 1 51 11q188 65 361 173q67 43 135 87l40 26q79 52 153 114l50 40q22 18 47 34q11 7 17 7q5 0 7 -5q2 -3 2 -6q0 -9 -13 -21
q-50 -44 -100 -89q-3 -3 -6 -5q-84 -74 -177 -130q-66 -40 -130 -83q-77 -51 -155 -99q-98 -57 -199 -108l-14 -8q-28 -14 -57 -23q-17 -4 -31 -4q-36 0 -61 24q-35 34 -41 91q-1 15 -1 29q0 47 10 92q3 16 7 32l4 14q0 2 1 4t1.5 4.5t0.5 3.5l-1 2q-2 5 -2 8v2q1 5 3 10
q1 1 1 2q42 103 79 208q19 50 37 99q38 109 48 226l2 20q0 5 1 10v4q0 3 -1 6q-2 2 -6 2h-3q-20 -3 -39 -5q-71 -8 -141 -23q-7 -1 -13 -3t-9 -4t-3 -5q0 -4 1 -11q1 -6 1 -12q0 -12 -3 -24q-5 -15 -12 -15q-4 0 -9 4q-33 26 -54 63q-6 12 -6 24q0 7 2 14q5 18 22 30
q23 13 48 15q57 8 115 11q15 1 29 2q18 2 36 3l32 2q10 0 11 2.5t1 8.5v6q-7 69 -34 130q-35 83 -91 150q-12 14 -24 29q-17 20 -35 41q-26 31 -45 68q-16 34 -16 65q0 51 44 91q44 37 95 55q99 37 202 56q213 41 429 56q27 2 54 5q116 11 232 11q68 0 136 -3q18 0 36 -1
q73 -2 145 -4q79 -2 159 -4h3q34 0 63 -22q27 -20 28 -59q-1 -31 -26 -31h-2q-15 1 -31 3l-24 2q-87 5 -175 6q-61 1 -122 4q-77 3 -154 3q-99 0 -197 -5q-197 -10 -392 -33q-154 -16 -305 -56q-41 -11 -80 -30q-19 -9 -36 -23q-12 -10 -14 -17t-2 -11q0 -9 4 -20
q7 -21 18 -39q21 -34 45 -65q63 -82 104 -181q34 -81 39 -170q0 -14 9 -14h4l16 1l15 -1h2q14 0 21 17q34 80 69 158q57 124 122 242q28 53 62 101q11 16 26 27q11 7 21 7q13 0 24 -11q12 -14 12 -32q0 -8 -2 -17q-7 -25 -21 -47q-54 -96 -103 -195q-56 -110 -106 -225
q-2 -5 -4 -13q-2 -3 -4 -8zM389 764h-23q-10 0 -11 -12q-1 -19 -4 -39q-3 -26 -4 -52q11 28 23 57q9 22 19 46z" />
    <glyph glyph-name="F" unicode="F" horiz-adv-x="1353" 
d="M335 831q-101 -11 -191 -57q-19 -9 -33 -26q-8 -10 -8 -21t7 -22t18 -20q2 -3 5 -5q2 -2 3.5 -4t1.5 -3l-1 -4q-1 -2 -4 -2h-1q-2 0 -5 1q-21 10 -38 25q-20 20 -20 46q0 13 4 26q10 24 28 40q30 27 66 44q72 32 149 47q13 3 14.5 5.5t1.5 4.5q0 5 -2 12q-25 105 -89 188
q-26 35 -55 67q-11 12 -21 24q-25 27 -45 57q-13 19 -22 42q-7 22 -7 42q0 39 29 72q28 30 64 47q73 34 151 51q140 34 283 51q160 20 320 30q22 2 44 3q81 7 162 7h20q60 -1 121 -3q20 0 40 -1q50 -1 99 -3q100 -3 199 -5h3q34 0 63 -21q24 -18 28 -50v-4q0 -31 -27 -31h-3
q-19 1 -38 3q-8 0 -15 1q-62 5 -124 5q-34 0 -69 1q-127 6 -254 6h-36q-195 -3 -389 -19q-136 -10 -271 -30q-122 -16 -241 -52q-33 -11 -63 -29q-10 -6 -20 -14q-10 -10 -10 -23q0 -4 1 -8q5 -20 16 -37q20 -34 44 -65q66 -79 109 -176q25 -58 35 -122q2 -12 4.5 -13.5
t5.5 -1.5q4 0 9 1q2 0 4 1q23 4 45 6q20 1 28 21q71 156 154 304q33 59 72 113q10 16 24 28q13 9 26 9q11 0 22 -8q14 -13 14 -32q0 -9 -3 -20q-8 -23 -21 -43q-3 -4 -5 -8q-93 -159 -173 -327q-4 -7 -7 -13l-2 -6q2 -4 4 -4h3h5q139 7 279 7q55 0 111 -1q25 -1 49 -3
q13 -1 26 -1q11 -1 22 -5q18 -8 24.5 -23t6.5 -27q0 -8 -2 -16q-3 -11 -11 -18q-25 -19 -54 -25q-5 -1 -8 -1q-6 0 -9 3t-3 11q0 4 1 9h-3q-2 1 -4 1q-94 0 -189 6q-61 3 -122 5h-37q-37 0 -74 -1h-41q-13 0 -18 -14l-18 -38l-8 -18q-62 -142 -122 -285q-3 -7 -5 -13
q-21 -49 -38 -100q-12 -35 -27 -68l-14 -36q-6 -15 -11 -30q-4 -10 -7 -19q-1 -4 -2 -7q-2 -6 -4.5 -11.5t-8.5 -8.5q-1 0 -2 -1.5t-1 -3.5q0 -1 -1 -2q-47 -107 -74 -223q-5 -19 -5 -38q0 -14 3 -28v-1q2 -7 4.5 -12.5t8.5 -9.5q5 -3 5 -7q0 -3 -5 -6q-7 -4 -13 -4
q-7 0 -14 5q-15 10 -23 26q-17 32 -18 70v16q0 57 12 111q9 39 21 78q5 19 10 37q14 49 34 94q11 27 21 54q28 75 59 148q50 127 63 264q1 15 1 32v16q-1 7 -1 14zM417 840q-6 1 -12 1q-9 0 -17 -2q-4 -1 -9 -2q-10 0 -12 -2.5t-2 -8.5v-5q-1 -52 -11 -103v-5q0 -2 4 -4
q18 45 39 88q10 21 20 43z" />
    <glyph glyph-name="G" unicode="G" horiz-adv-x="1743" 
d="M1124 588q-2 1 -4 1t-4 -1q-4 -1 -7 -2l-4 -2q-288 -98 -581 -182q-111 -33 -228 -41q-19 -2 -39 -2q-58 0 -115 16q-55 15 -97 55q-60 60 -60 137q0 18 3 38q14 79 55 147q52 85 120 157q125 134 275 240q299 219 654 328q119 37 244 48q26 3 52 3q79 0 156 -23
q47 -14 86 -45q56 -48 56 -111q0 -23 -7 -48q-13 -40 -37 -74q-40 -61 -93 -110q-184 -173 -400 -302q-11 -7 -24 -12l-8 -4q-6 -3 -12 -5h-2q-4 -2 -9 -2q-4 0 -7 5q-1 2 -1 4t2 3q2 3 6 5q1 1 3 2q21 15 43 30q37 26 73 52q140 100 265 219q53 50 96 108q25 34 42 73
q5 12 8 26q3 13 3 24q0 38 -39 60q-51 26 -107 31q-39 4 -78 4q-100 0 -197 -26q-204 -51 -391 -145q-249 -123 -460 -303q-101 -85 -183 -189q-44 -54 -73 -119q-17 -37 -22 -77q-1 -8 -1 -16q0 -51 46 -81q44 -27 95 -29q19 -1 37 -1q60 0 118 10q205 32 402 91
q221 63 436 145q33 11 61 30q32 25 73 31l8 1q12 0 24 -5q19 -9 19 -25q0 -7 -3 -15q-8 -22 -30 -30q-8 -3 -15 -10q-2 -1 -5 -3q-58 -46 -106 -101l-2 -2q-13 -14 -25 -28l-13 -13q4 -1 8 -1h4t7 2q2 0 4 1q115 38 326.5 120t213.5 83q3 1 5 1h2q3 0 6 -4q1 -3 1 -5v-3
q-2 -3 -5 -5q-105 -74 -601 -241q-21 -6 -34 -22q-158 -198 -337 -377q-82 -83 -181 -147q-90 -60 -198 -79q-27 -5 -54 -5q-55 0 -108 19q-29 10 -53 32q-31 29 -31 67q0 12 3 25q12 42 41 74q40 47 91 82q166 120 355 203q171 74 351 124q20 5 34 22q27 33 56 67
q11 14 22 27zM979 416q-3 1 -5 1h-3l-6 -2q-1 -1 -3 -1q-95 -31 -189 -68q-223 -87 -420 -222q-49 -34 -90 -77q-21 -23 -35 -51q-7 -15 -7 -27q0 -29 38 -40q1 -1 3 -1q1 0 2 -1q31 -7 63 -7q12 0 25 1q70 9 132 43q126 63 227 161q137 135 262 281q0 1 1 2t2.5 3t2.5 5z
" />
    <glyph glyph-name="H" unicode="H" horiz-adv-x="1603" 
d="M1075 836q-7 3 -14 3h-7q-56 1 -112 1q-169 0 -338 -7q-9 -1 -18 -1q-13 -2 -26 -2q-17 0 -25 -16l-52 -94q-31 -54 -61 -109q-146 -265 -277 -540q-28 -56 -59 -110l-38 -68q-5 -11 -13 -19q-9 -9 -19 -9q-7 0 -14 4q-15 9 -15 28v2q1 8 3 15q7 24 15 46l14 46
q12 36 31 69q6 11 11 21q59 115 102 238q11 32 24 63q12 30 23 60q17 48 28 98q6 28 6 55q0 39 -13 78q-2 8 -5 16q-10 28 -16 58q-2 11 -2 22q0 45 39 72q31 19 65 29q75 23 153 31q16 2 25 17q157 256 304 521q30 56 66 107q8 12 18 23q17 15 33 15q12 0 24 -7
q20 -15 20 -40q0 -8 -2 -17q-12 -48 -46 -83q-17 -15 -28 -36q-111 -198 -224 -394q-20 -36 -41 -72q-3 -5 -6 -11q-2 -3 -3 -7h14q14 0 27 1q5 0 9 1q105 7 210 7h26q29 0 58 1q25 1 49 1q62 0 124 -4q9 0 14.5 4t10.5 12l274 440q37 59 78 115q21 30 47 53q21 18 47 23
q4 1 7 1q7 0 14 -3q13 -6 15 -14t2 -11q0 -9 -5 -18q-5 -8 -10 -15l-8 -10q-82 -124 -159 -251q-58 -94 -116 -186l-76 -120q-10 -16 -10 -22v-2q1 -5 22 -7q88 -21 137 -102q7 -10 8 -22q0 -13 -8 -13q-3 0 -7 2q-3 1 -5 2q-60 34 -127 38q-21 2 -43 3q-15 0 -30 2h-2
q-9 0 -14 -10q-16 -29 -33 -58q-46 -79 -85 -162q-92 -190 -137 -400q-8 -37 -8 -76q0 -33 6 -66q5 -24 17 -46q9 -15 26 -15h2q34 3 63 19q48 25 87 63q72 71 132 153l5 5q178 233 260 363q38 62 81 120q7 9 14 17q3 3 7 3q3 0 6 -2q4 -3 4 -8q0 -2 -1 -4q-1 -6 -4 -11
l-10 -20q-11 -24 -24 -46q-139 -222 -380 -541q-54 -72 -120 -129q-40 -35 -87 -55q-25 -11 -52 -11q-9 0 -18 1q-51 10 -74 59q-26 52 -29 112q-1 16 -1 32q0 81 21 159q31 126 82 244q1 2 3 5q2 5 3 8t1 5q0 4 -2 9q0 2 1 5t3 7l2 4q58 124 125 243q2 2 3 4q5 8 8 18z
M271 572l-2 -26q44 82 90 163q30 52 59 104h-12q-57 -9 -111 -26q-28 -8 -32 -16t-4 -18t3 -26l4 -26q8 -40 9 -82q-1 -24 -4 -47z" />
    <glyph glyph-name="I" unicode="I" horiz-adv-x="853" 
d="M727 1599h18q31 0 62 -6q104 -24 126 -130q4 -22 4 -44q0 -32 -9 -63q-14 -52 -38 -101q-54 -116 -121 -224q-50 -84 -102 -168l-132 -218q-191 -321 -353 -657q-13 -28 -25 -56l-10 -20q-8 -21 -24 -35q-13 -11 -27 -11q-8 0 -16 3q-23 11 -24 37v4q0 21 9 39q4 10 9 20
q16 38 34 75q212 437 470 847q82 130 159 264q46 81 84 166q20 44 29 92q2 15 2 29q0 20 -4 40q-10 50 -59 65q-38 12 -76 12q-15 0 -29 -2q-387 -45 -664 -323q-57 -55 -93 -127q-21 -42 -24 -89v-8q0 -56 50 -83q1 0 1 -1q15 -6 15.5 -10t0.5 -5q0 -6 -15 -16
q-13 -9 -26 -9q-15 0 -29 11q-47 36 -47 92v11q9 97 66 176q92 127 223 214q190 124 409 180q71 19 144 28q16 1 32 1z" />
    <glyph glyph-name="J" unicode="J" horiz-adv-x="1428" 
d="M1108 724q16 1 32 3q102 5 200 5q42 0 83 -1h5q11 0 22 -4q8 -3 9 -11q-1 -4 -3.5 -5.5t-6.5 -2.5q-7 0 -15 -1q-255 -6 -341 -21q-20 -4 -32 -20q-107 -158 -230 -302t-256 -281q-84 -88 -190 -152q-83 -53 -181 -74q-25 -5 -50 -5q-33 0 -66 9q-99 31 -129 127
q-14 46 -14 91q0 57 23 111q37 84 100 150q88 93 202 155q197 107 420 161q133 31 270 49q20 2 30 18q119 166 228 339q50 78 91 162q23 43 34 91q3 17 3 34q0 23 -6 46q-10 41 -50 58q-50 20 -101 20h-14q-220 -8 -415 -100q-155 -72 -273 -191q-41 -41 -67 -92
q-17 -33 -22 -71q-1 -8 -1 -17q0 -20 8 -40q11 -28 42 -45q2 -1 3 -2q5 -2 9.5 -5t4.5 -9q-1 -6 -5.5 -9.5t-10.5 -5.5l-1 -1q-11 -5 -22 -5q-16 0 -31 12q-36 28 -47 70q-2 10 -2 20q0 16 4 30q1 5 1 9q22 102 94 176q128 135 302 207q187 82 394 104q29 4 57 4
q49 0 99 -11q77 -21 106.5 -73.5t29.5 -98.5q0 -7 -1 -14q-6 -54 -27 -103q-40 -93 -94 -178q-69 -110 -141 -218q-24 -35 -48 -71q-3 -5 -7 -12q-3 -4 -6 -9zM939 655q-2 2 -5 2h-5l-1 -1q-192 -32 -374 -95q-186 -64 -345 -176q-100 -71 -160 -177q-25 -42 -34 -92
q-3 -17 -3 -34q0 -42 20 -84q19 -37 59 -50q26 -7 52 -7q10 0 21 1q56 8 106 32q121 58 216 151q68 66 131 137q2 3 5 7q165 175 307 369q1 2 3 4q6 6 7 13z" />
    <glyph glyph-name="K" unicode="K" horiz-adv-x="1437" 
d="M503 477q-12 -3 -23 -5q-44 -9 -81 -31q-13 -8 -29 -13q-5 -1 -9 -1q-13 0 -23 10q-8 9 -8 21q0 6 2 13q7 16 21 27q27 21 59 35q55 25 113 43q23 8 43 23q3 1 5 3q7 5 11 12q76 128 155 254q67 107 133 215q57 93 105 192q30 56 45 118q4 18 4 36q0 23 -6 45
q-10 43 -53 58q-40 14 -81 14q-14 0 -28 -2q-389 -44 -667 -320q-54 -52 -89 -119q-20 -39 -26 -82q-1 -7 -1 -15q0 -30 17 -57q15 -20 37 -30q14 -7 14 -14t-14 -15q-14 -9 -27 -9q-15 0 -29 10q-29 23 -45 55q-4 10 -4 21v5q4 104 64 189q83 115 199 197q189 130 410 189
q84 25 172 35q20 2 40 2q40 0 79 -9q102 -29 120 -135q2 -16 2 -31q0 -44 -15 -85q-21 -63 -51 -121q-59 -115 -129 -225q-48 -77 -96 -155l-48 -78q-4 -6 -7 -12q-2 -3 -4 -7q5 0 8.5 2t6.5 5q1 1 3 2l88 62q91 65 185 129q140 94 281 186q90 59 180 119q83 55 164 111
l98 66q37 26 77 46q20 11 41 11q11 0 23 -3q12 -2 20 -12q6 -7 6 -16q0 -5 -2 -10q-6 -13 -20 -13h-18q-5 1 -9 1q-17 0 -32 -9q-38 -20 -73 -43q-103 -67 -207 -133q-270 -170 -532 -352q-106 -74 -211 -149q-64 -45 -128 -91q-16 -12 -22 -30q2 -3 4 -3h3h5q64 -3 119 -34
q44 -23 80 -56q88 -79 181 -154q27 -22 54 -46l294 -268q12 -12 25 -23q40 -35 76 -73l5 -5q7 -7 12 -14q12 -17 29 -17q5 0 9 1q8 2 15 2h5q9 -2 9 -9q0 -2 -1 -4q-5 -13 -18 -20q-17 -10 -37 -10h-7q-54 3 -96 36q-60 47 -117 98q-15 15 -31 29q-127 116 -256 229l-94 80
q-64 52 -125 106q-32 28 -71 46q-39 16 -80 16q-22 0 -44 -5q-6 -1 -9.5 -5t-6.5 -9v-2l-28 -48q-30 -53 -59 -106q-112 -204 -210 -415q-9 -21 -25 -36q-13 -12 -28 -12q-8 0 -17 4q-23 11 -23 38q0 25 12 48q41 91 87 180l6 12q77 153 161 302l2 2q4 5 6 15z" />
    <glyph glyph-name="L" unicode="L" horiz-adv-x="1123" 
d="M405 22q9 -1 17 -1q9 0 16 1q6 1 11 1q100 7 200 7q40 0 80 -1q20 0 39 -1q45 -3 91 -3h69q12 0 23 -2t22 -2q64 -4 129 -6q124 -4 249 -13q31 -3 62 -7q5 -1 9 -1q11 -2 21 -6q12 -6 16 -14.5t4 -15.5q0 -5 -2 -11q-6 -18 -24 -18h-5q-127 23 -255 31l-100 8q-8 1 -17 2
q-29 2 -58 7q-21 3 -43 3q-11 0 -22 -1h-41q-137 7 -273 7h-61q-97 -2 -193 -12q-15 -1 -26 -11q-99 -75 -220 -75q-24 0 -49 3q-11 1 -22 5q-18 10 -19 19t-1 11q0 13 12 24q17 13 37 19q53 16 108 25q31 6 61 9q19 3 32 16q29 30 53 64q46 64 84 132q0 1 1 2q3 6 6 13
q44 118 101 230q10 22 21 44q114 238 235 471l2 4q5 8 7 18q-3 0 -6 -1t-5 -3q-1 0 -2 -1q-147 -79 -295 -157q-117 -59 -214 -147q-54 -49 -91 -112q-13 -21 -20 -45q-4 -11 -4 -22q0 -12 5 -25q3 -7 3 -12q0 -12 -17 -12h-6q-19 3 -30 20t-11 37q0 5 1 11q5 34 25 62
q28 42 64 78q91 87 201 148q50 30 102 55q131 66 260 136q26 14 52 29q14 6 20 20q59 119 135 228q7 9 13 19q87 133 214 224q40 30 86 52q33 17 71 21q6 1 12 1q7 0 13 -1q51 -10 52 -62q-1 -34 -15 -64q-30 -63 -79 -112q-96 -100 -212 -175q-65 -43 -134 -83
q-16 -9 -24 -25q-170 -309 -317 -631q-68 -150 -147 -293q-35 -66 -82 -124q-1 -2 -2 -5q-1 -1 -3 -4zM995 1149q2 -1 3 -2h2q1 1 3 2q114 68 215 154q63 53 112 119q31 40 42 89q1 2 2 5q1 6 1.5 12t-4.5 10q-3 3 -7 3q-1 0 -3 -1q-6 -1 -11 -4q-2 -1 -5 -2
q-36 -17 -67 -42q-105 -78 -185 -180q-27 -35 -48 -73q-18 -32 -35 -64q-8 -13 -15 -26z" />
    <glyph glyph-name="M" unicode="M" horiz-adv-x="1674" 
d="M824 1116q-8 -6 -12 -13l-2 -4q-143 -215 -272 -441q-81 -142 -167 -281q-95 -152 -172 -315q-25 -51 -51 -101q-6 -11 -12 -23q-9 -19 -23 -35q-13 -16 -33 -17q-20 1 -27.5 13t-7.5 22q0 8 4 16q4 7 10 13q36 39 60 86q117 216 249 423q41 64 80 130q183 313 377 619
q37 59 45 128q1 5 1 9q5 34 7 69v5q0 27 -10 54q-18 42 -63 44h-11q-50 0 -99 -17q-83 -28 -159 -73q-225 -130 -404 -323q-66 -72 -119 -156q-42 -64 -54 -141q-2 -16 -2 -31v-9q-1 -29 -23 -33h-5q-8 0 -15 4q-10 7 -15 19q-4 11 -4 22q0 5 1 11q9 42 27 81q37 79 93 147
q167 210 385 361q117 86 248 147q66 31 138 42q15 3 30 3q24 0 47 -7q77 -30 96 -113q5 -24 5 -49q0 -12 -1 -25q0 -3 -1 -7l-6 -102q-1 -22 -6 -43l-26 -90q-32 -109 -62 -219q-37 -135 -76 -269l-64 -226q-9 -36 -18 -71q-4 -13 -7 -26q-1 -1 -1 -2q-1 -3 -1 -5.5v-4.5v-5
q2 4 4 6l8 12q179 282 378 551q167 217 349 422q3 5 7 9q46 50 87 105q10 13 26 17q4 1 8 1q11 0 21 -7q12 -9 16 -28q1 -6 1 -11q0 -11 -3 -22q-14 -53 -36 -102q-21 -48 -46 -95q-166 -317 -292 -653q-11 -28 -22 -55q-23 -54 -41 -110q-46 -135 -77 -275q-9 -43 -12 -86
v-8q0 -13 2 -24q2 -9 5 -11t6 -2t7 1q19 5 35 17q29 22 54 49q96 103 175 221q142 231 196.5 313t68.5 106q9 14 17 29q14 21 31 39q2 3 4 5q6 8 16 9q10 0 15 -9q1 -3 1 -6q0 -5 -4 -9q-19 -20 -32 -44q-1 -2 -3 -5l-117 -178q-17 -27 -35 -55q-40 -64 -81 -129
q-65 -104 -131 -208q-52 -81 -112 -157q-18 -22 -39 -42q-21 -21 -48 -31q-17 -5 -32 -5q-45 0 -73 46q-16 31 -16 67v4q0 72 18 143q45 195 118 382q117 308 261 604q26 50 52 101q14 25 27 51l7 14q1 3 3 7q-5 0 -8 -2.5t-5 -5.5q-1 -2 -3 -3q-120 -127 -229 -264
q-265 -335 -472 -711q-50 -93 -91 -191q-12 -25 -23 -51q-7 -16 -15 -32q-5 -12 -13 -20q-15 -15 -33 -15q-8 0 -16 3q-28 11 -30 42q0 21 6 42v1l26 100q26 98 51 197q39 150 83 298q38 126 72 253q25 92 52 184q1 1 1 3q3 7 3 17z" />
    <glyph glyph-name="N" unicode="N" horiz-adv-x="1576" 
d="M674 491q7 6 11 14q1 2 3 4q121 200 257 391q218 297 483 547q25 23 51 44l4 4q15 14 34 21q10 3 19 3q29 0 43 -34q5 -17 5 -35q0 -7 -1 -15q-7 -45 -23 -88q-43 -121 -95 -237q-74 -172 -156 -341q-134 -275 -220 -572q-2 -8 -5 -16q-5 -20 -12 -40q-31 -97 -39 -200
q-1 -14 -4 -29q-5 -18 -18 -19q-13 0 -19 18q-2 11 -3 21q-2 20 -2 40q0 14 1 27v14q1 24 1 48v37q0 82 24 161q84 280 210 541q125 258 235 524q13 32 25 64q3 9 7 19q2 6 3 12q1 4 2 7q-11 -2 -17 -9q-2 -1 -3 -2q-68 -52 -129 -113q-281 -275 -493 -613
q-204 -322 -372 -666q-16 -33 -32 -65q-6 -11 -11 -21q-8 -17 -22 -29q-14 -10 -27 -10q-7 0 -13 2q-19 7 -26 32q-3 10 -3 20q0 13 5 26q9 33 23 63q1 4 3 8q127 316 277 621q121 242 215 498q47 124 58 257q1 12 1 25q0 16 -2 32q-4 39 -42 43h-11q-21 0 -41 -6
q-54 -15 -103 -42q-151 -80 -276 -202q-145 -140 -264 -306q-52 -78 -80 -168q-7 -15 -7 -31q0 -13 5 -26q2 -5 2 -10q0 -9 -8 -17q-7 -6 -16 -6q-5 0 -10 2q-15 5 -23 19.5t-8 32.5v4q4 33 19 63q21 41 46 80q74 115 162 217q85 95 178 181q135 126 295 210q48 26 101 42
q25 8 51 8h10q51 -5 74 -54q22 -51 23 -108v-7q0 -90 -25 -178q-33 -117 -80 -230q-99 -244 -217 -478q-5 -10 -9 -20l1 -2v-2z" />
    <glyph glyph-name="O" unicode="O" horiz-adv-x="1761" 
d="M1566 1101q0 -70 -13.5 -135t-36.5 -128q-63 -167 -171 -310q-151 -202 -346 -362q-109 -93 -233 -166q-119 -71 -255 -98q-51 -9 -101 -9q-78 0 -154 22q-23 7 -44 17q-147 69 -148 229q0 86 33 165q34 83 84 157q49 73 105 140q6 6 7.5 9t1.5 5v3q-1 3 -5 10q0 1 -1 1
q-10 18 -18 37q-3 10 -12 10l-4 -1q-4 -2 -9 -3q-85 -22 -167 -55q-18 -7 -30 -23q-13 -16 -30 -16q-6 0 -14 3q-19 7 -23 26v4q0 16 13 26q19 13 41 16q21 4 41 8q25 5 49 10q57 12 115 25q11 2 12.5 4t1.5 3q0 4 -4 12q-25 75 -25 151q0 60 16 121q18 69 57 130
q52 84 123 153q183 179 429 250q102 29 205 29q91 0 182 -23q250 -64 312 -312q16 -65 16 -128v-7zM863 310q-1 -3 -3 -4.5t-4 -2.5q-1 0 -1 -1q-23 -9 -48 -9q-12 0 -25 2q-63 11 -119 40q-170 85 -303 219q-6 7 -9 7t-8 -8q-77 -93 -134 -200q-16 -29 -28 -61
q-27 -67 -27 -140q3 -119 115 -161l24 -8q60 -15 121 -15q41 0 82 7q108 18 206 69q119 63 223 147q237 182 411 423q107 147 157 320q24 79 24 158q0 68 -18 137q-61 223 -290 266q-60 10 -119 10q-99 0 -196 -28q-230 -68 -400 -236q-74 -71 -128 -158q-48 -77 -60 -167
q-4 -29 -4 -58q0 -56 14 -110q2 -6 4.5 -8t5.5 -2q2 0 5 1q29 8 57 13q19 4 31 18q67 70 137 137q88 86 187 161q54 41 115 71q54 28 114 32l13 1q43 0 80 -24q34 -25 34 -60q0 -15 -6 -31q-12 -29 -35 -51q-36 -35 -77 -62q-103 -67 -218 -109q-102 -36 -207 -62
q-15 -2 -28 -13q-71 -74 -139 -152q-5 -5 -5 -11q0 -4 4 -9q26 -39 60 -71q97 -89 212 -152q34 -18 70 -33q50 -20 103 -20h17q6 0 13 -2zM570 800q4 -1 6 -1q3 0 5 1h2q81 22 161 50q130 45 239 129q29 22 52 51q15 17 21 40q1 6 1 11q0 25 -28 33q-9 2 -18 2q-8 0 -17 -2
q-51 -10 -95 -37q-59 -33 -111 -75q-112 -92 -213 -195q-1 -2 -3 -4q-1 -1 -2 -3zM340 685q4 5 8 9q14 14 28 33l-10 -2q-9 -2 -16 -4q-20 -4 -21 -7t-1 -4q0 -7 8 -22l2 -1q0 -1 2 -2z" />
    <glyph glyph-name="P" unicode="P" horiz-adv-x="2116" 
d="M701 494q18 -3 35 -3h9q146 0 288 33q297 65 566 203q153 76 277 192q45 44 80 96q40 59 53 128q4 22 4 44q0 80 -53 149q-41 53 -100 87q-102 60 -221 75q-92 12 -185 12q-38 0 -76 -2q-149 -9 -291 -54q-1 -1 -3 -1q-102 -29 -201 -66q-135 -51 -256 -126q-7 -4 -13 -8
q-96 -58 -183 -125q-146 -115 -254 -263q-52 -68 -70 -151q-4 -22 -4 -43v-15q0 -7 1 -14q0 -9 1 -17v-4q0 -12 -5 -16q-2 -2 -8 -2q-5 0 -13 2q-35 10 -40 49v6q0 23 6 45q17 67 52 126q66 113 155 209q40 42 86 78l28 22q250 204 555 321q123 50 254 74q98 17 196 27
q72 9 145 9q19 0 39 -1q179 -8 342 -80q4 -2 9 -4q8 -5 17 -8q49 -20 83 -59q87 -91 97 -214v-15q0 -64 -22 -125q-36 -95 -106 -171q-78 -84 -174 -148q-153 -103 -326 -172q-228 -98 -473 -145q-118 -24 -239 -24q-29 0 -57 1q-23 1 -45 4q-3 1 -5 1q-8 0 -12 -8
q-1 -4 -4 -7l-2 -4q-36 -62 -73 -124q-83 -136 -159 -275q-14 -26 -34 -48q-12 -13 -20 -29q-1 -1 -2 -3q-3 -5 -6 -9q-8 -11 -20 -11q-3 0 -7 1q-18 4 -21 22v7q0 9 2 19v2q14 70 51 132l22 38q34 62 70 122q59 100 118 199q5 8 5 12v1q0 3 -10 7q-39 20 -54 59
q-11 28 -11 56q0 17 4 34q10 43 36 80q31 45 68 85q126 141 273 263q88 74 173 152q23 20 42 43q23 29 53 53q20 15 44 19q6 1 11 1t10 -1q18 -5 22 -14.5t4 -15.5q0 -9 -6 -18q-4 -8 -11 -14q-32 -26 -55 -59q-62 -82 -127 -163l-112 -144q-17 -22 -30 -46
q-88 -160 -182 -318l-1 -1l-2.5 -5t-1.5 -7zM890 994l-1 2q-3 0 -4.5 -1t-3.5 -3l-2 -2q-98 -84 -180 -182q-54 -62 -98 -131q-18 -28 -27 -59q-4 -15 -4 -28q0 -32 22 -60q8 -11 13 -11t11 13q85 140 164 284q48 90 107 174v1z" />
    <glyph glyph-name="Q" unicode="Q" horiz-adv-x="1724" 
d="M574 705q-1 -1 -2 -1q-1 -1 -3 -1q-1 0 -2 1v2q1 1 2 1l1 1l2 -1l1 -1q0 -1 1 -1zM1089 226q29 -7 57 -13t56 -13q193 -44 383 -98q19 -5 37 -9q13 -4 25 -7q26 -7 49 -22q19 -13 29 -34q4 -9 4 -18t-5 -16q-8 -12 -28 -12h-3q-23 2 -41 16q-35 29 -78 43
q-150 56 -307 94l-56 14l-146 38q-4 1 -8 1q-11 0 -18 -8q-81 -70 -170 -130q-116 -82 -251 -128q-92 -31 -187 -31q-56 0 -113 11q-45 9 -86 28q-145 68 -148 228q0 86 34 166q34 83 84 157q49 73 105 140q6 6 7.5 9t1.5 4q0 2 -1 4q-1 4 -5 11q-9 16 -17 33q-3 7 -5.5 10
t-5.5 3q-4 0 -12 -2q-53 -14 -105 -32q-29 -9 -57 -20q-24 -8 -40 -28q-11 -14 -28 -14h-4q-13 1 -22 8.5t-11 18.5q-1 3 -1 6q0 16 19 28q17 10 36 13q33 7 66 13q63 13 126 27h1q20 4 21.5 7.5t1.5 6.5q0 6 -4 19q-22 73 -22 144q0 128 72 246q60 98 147 176
q176 162 407 228q101 29 203 29q91 0 182 -23q251 -64 313 -313q17 -71 17 -142q0 -80 -22 -160q-44 -167 -137 -313q-128 -199 -302 -359q-11 -11 -24 -22q-6 -6 -14 -13zM1143 1505h-4q-133 0 -225 -28q-229 -69 -399 -235q-79 -75 -134 -168q-58 -99 -58 -213v-4
q0 -55 14 -108q2 -9 3.5 -10t3.5 -1q4 0 9 2q12 2 23 5q17 4 34 7q17 4 28 16q68 71 138 139q89 87 189 162q53 40 114 70q53 27 114 32q7 1 13 1q41 0 76 -22q37 -25 37 -61q0 -17 -7 -35q-12 -28 -35 -49q-34 -34 -75 -60q-107 -71 -228 -113q-97 -34 -197 -59q-1 0 -3 -1
q-13 -1 -23 -10q-74 -76 -143 -155q-4 -5 -4 -9q0 -5 4 -10q2 -2 3 -4q16 -24 35 -45q83 -87 191 -143q32 -16 63 -33q140 -78 295 -115q5 -1 10 -1q12 0 21 9q102 88 193 187q120 128 206 280q82 141 108 301q5 36 5 72q0 103 -43 200q-59 132 -196 180q-93 29 -156 29z
M972 211q-4 4 -7.5 5.5t-7.5 2.5q-2 1 -3 1q-130 38 -248 106h-1q-1 2 -3 2q-39 14 -74 36q-2 1 -3 2q-59 35 -114 73q-16 11 -33 22q-52 32 -89 80q-4 5 -9 10l-1 1q-6 7 -9 7t-8 -8q-42 -52 -79 -107q-49 -72 -81 -151q-27 -66 -27 -137v-5q3 -117 112 -159
q56 -20 115 -22q15 -1 29 -1q136 0 259 60q132 63 245 153l28 22q4 4 9 7zM592 800q3 -1 5 -1q3 0 5 1q1 0 2 1q81 21 160 48q130 46 239 130q29 22 53 50q16 19 21 44q1 4 1 8q0 22 -25 31q-11 4 -24 4q-8 0 -16 -2q-50 -11 -95 -37q-59 -34 -111 -77q-110 -90 -209 -191
l-2 -2q-1 -1 -2.5 -3t-1.5 -4zM359 683q17 19 32 36l4 4q-26 0 -47 -9q2 -15 11 -31z" />
    <glyph glyph-name="R" unicode="R" horiz-adv-x="2077" 
d="M874 415q1 -3 3 -4t4 -1l1 -1q226 -76 448 -162l26 -10q65 -25 129 -49q123 -46 246 -94q168 -69 331 -147q15 -7 33 -10q63 -13 119 -41q19 -8 23 -26v-4q0 -17 -17 -26q-7 -3 -13 -3q-11 0 -20 8q-13 12 -29 20q-37 19 -75 35q-3 2 -6 3q-18 8 -35 16q-28 13 -57 25
q-208 86 -423 158q-406 138 -816 264q-11 4 -21 7q-13 3 -26 7q-15 5 -31 5q-7 0 -14 -1q-21 -3 -42 -5q-13 -1 -19 -11q-28 -45 -57 -90q-71 -108 -136 -219q-19 -35 -48 -65q-7 -8 -12 -17q-3 -3 -5 -6q-1 -3 -3 -5q-2 -3 -4 -7q-8 -9 -20 -9q-4 0 -8 1q-17 4 -20 19
q-1 5 -1 10q0 6 1 11q11 56 40 108q7 11 15 23q44 74 90 146q4 6 7 11q23 36 47 73q3 4 6 9q1 3 2 5q-3 3 -5.5 3h-5.5h-3q-41 -2 -83 -2q-31 0 -62 1q-46 2 -91 13q-22 5 -40 18q-23 17 -23.5 28.5t-0.5 12.5q0 21 19 39q17 15 40 23q50 17 103 19h10q93 0 184 -18
q3 0 6 -1q12 -2 22 -4q4 -1 6 -1q3 0 5 1q4 2 7 7q104 155 197 314q63 107 133 211q30 44 59 90q15 24 29 47q19 30 44 58q20 23 49 36q14 6 28 6h7q22 -2 28 -20q2 -6 2 -12q0 -12 -9 -22q-1 -1 -2.5 -2t-2.5 -1h-4q-5 0 -8 -2q-4 -4 -7 -9q-1 -2 -3 -4q-25 -34 -46 -69
q-49 -82 -102 -162q-1 -1 -2 -3q-3 -2 -4 -4v-2q0 -3 3 -6l1 -1l-1 -2q-1 -2 -3 -4l-1 -1q-67 -87 -120 -180q-71 -119 -146 -235q-1 -3 -3 -5q-4 -4 -5 -6.5t-1 -4.5q0 -3 2 -8q0 -1 -1 -2.5t-2 -2.5q-1 -2 -2 -3l-4 -6q-6 -6 -10 -16q12 -2 23 -6q20 -7 41 -7h10
q254 28 495 100q137 44 261 111q21 12 42 23q102 54 199 115q88 57 159 130q68 70 92 159q6 26 6 52q0 62 -38 119q-43 61 -113 99q-99 55 -214 69q-85 12 -172 12h-4q-37 0 -75 1q-71 0 -142 -12q-4 -1 -9 -2q-245 -42 -470 -136q-43 -17 -83 -39q-146 -73 -272 -171
q-132 -103 -237 -229q-26 -34 -48 -71q-28 -53 -28 -109q0 -19 3 -39v-2q1 -8 1 -15v-4q0 -5 -2 -7q-3 -3 -12 -4h-6q-33 0 -48 30q-5 14 -5 28q0 9 2 17q12 57 41 108q64 109 152 203q73 78 164 139q214 146 458 246q171 72 357 110q131 25 264 25q37 0 75 -2
q99 -5 197 -18q21 -3 41 -9q118 -35 206 -113q98 -86 107 -208q1 -9 1 -18q0 -57 -23 -112q-37 -90 -109 -161q-77 -76 -171 -135q-173 -107 -369 -175q-255 -94 -525 -145q-5 -1 -11 -2q-3 -1 -5 -2z" />
    <glyph glyph-name="S" unicode="S" horiz-adv-x="1891" 
d="M1255 663q-12 7 -22 12h-1q-75 32 -154 46q-160 31 -321 39q-87 5 -174 6l-94 2q-51 1 -101 9q-27 4 -52 17q-48 29 -48 78q0 15 4 32q13 38 39 67q37 45 81 82q106 88 223 158q271 169 578 251q145 41 297 47h7q64 0 127 -17q55 -15 102 -53q60 -52 60 -120
q0 -29 -11 -61q-18 -48 -48 -88q-107 -145 -257 -234l-1 -1q-7 -5 -16 -6h-2q-5 0 -8 4q-1 3 -1 6t1 5q5 7 12 13q18 15 37 30q12 10 23 19q90 72 159 168q28 37 47 81q9 21 13 44q1 6 1 11q0 34 -26 59q-25 22 -55 33q-56 19 -113 19h-16q-87 -2 -171 -21
q-465 -97 -849 -384q-49 -36 -93 -79q-23 -21 -41 -46q-3 -6 -3 -9v-1q1 -3 9 -4q28 -6 57 -7q63 -3 126 -4q42 0 85 -1q245 -7 486 -74q59 -16 116 -44q48 -22 82 -66q4 -6 7.5 -6.5t4.5 -0.5q4 0 7 1h2q23 4 46 9q33 6 67 12q14 2 28 5q191 35 384 56h1q8 1 16 1h4
q5 0 8 -2q4 -3 7 -12q1 -3 1 -6t-1 -5q-3 -4 -7 -7h-1q-14 -11 -32 -13q-107 -9 -211 -30l-138 -26q-76 -13 -149 -36q-17 -5 -17 -23q-6 -61 -40 -110q-58 -86 -138 -148q-104 -84 -217 -154q-217 -142 -455 -243q-153 -65 -317 -90q-40 -7 -80 -7q-43 0 -86 8
q-32 6 -59 25q-48 34 -48 89q0 13 3 28q10 40 34 72q29 42 67 75q67 62 144 111q204 130 431 212q304 114 622 182q8 1 17 4q7 2 7 4q0 3 -6 7zM84 -75h10q66 4 115 15q147 35 285 97q275 123 527 293q54 36 106 76q58 45 108 99q23 25 42 55q6 8 9 19q1 4 1 6q0 4 -2 6
q-2 4 -10 4h-7q-6 0 -12 -1q-8 -1 -16 -3q-11 -2 -21 -4q-102 -16 -201 -44q-211 -59 -414 -143q-170 -72 -331 -165q-58 -33 -112 -73q-67 -47 -122 -111q-20 -23 -34 -52q-8 -18 -8 -31q0 -30 41 -39q17 -3 28.5 -3.5t17.5 -0.5z" />
    <glyph glyph-name="T" unicode="T" horiz-adv-x="758" 
d="M355 705q1 1 1 2q2 1 3 3q15 38 34 75q18 36 33 73q82 198 187 381q32 59 70 112q11 16 25 28q14 10 26 10t23 -9q14 -13 14 -32q0 -9 -3 -20q-8 -19 -19 -37q-107 -180 -195 -371q-80 -172 -153 -348q-8 -17 -15 -34q-37 -85 -67 -173q-12 -33 -26 -65q-15 -34 -27 -69
q-1 -4 -2 -7q-1 -7 -4 -13t-10 -10q-1 -1 -1.5 -2l-1.5 -3q0 -1 -1 -2q-45 -104 -72 -215q-6 -22 -6 -44q0 -15 3 -31q1 -7 4 -13t10 -9q4 -3 4 -7t-5 -7q-6 -4 -12 -4q-8 0 -16 6q-15 11 -23 28q-18 36 -18 76v4q0 62 14 121q8 36 19 71q6 20 11 40q14 49 34 94
q12 28 22 56q26 71 56 140q1 4 3 8q49 122 60 255q4 32 4 65q0 40 -6 80q-23 105 -84 188q-29 42 -64 78q-10 11 -19 22q-29 31 -51 67q-20 31 -23 68v3q0 43 27 73q25 27 56 43q71 37 148 54q146 36 295 54q130 16 260 26q6 0 12 1q23 2 47 3l56 4q75 6 151 6h22
q141 -3 281 -7l182 -6h3q32 0 59 -21q27 -20 27 -56q-1 -28 -24 -28h-3l-36 2q-18 2 -37 3l-124 4l-146 4q-83 3 -165 3q-95 0 -190 -4q-199 -9 -397 -31q-147 -16 -291 -51q-53 -12 -103 -36q-17 -8 -31 -20q-12 -10 -12 -25q0 -6 2 -13q7 -22 19 -40q21 -33 45 -64
q69 -85 112 -190q30 -80 30 -164q0 -19 -1 -37q0 -8 -1 -15q-3 -50 -9 -101z" />
    <glyph glyph-name="U" unicode="U" horiz-adv-x="1354" 
d="M841 465q-10 -6 -15 -15q-1 -1 -2 -3q-157 -211 -342 -399q-52 -54 -110 -100q-50 -40 -111 -62q-35 -13 -72 -13q-71 3 -97 68q-13 39 -13 79q0 14 1 27q8 95 41 185q72 210 180 406q71 131 149 258l26 44q100 167 193 338q46 80 72 169q7 24 9 50v5q0 11 -4 14
q-2 2 -7 2q-4 0 -12 -2q-31 -9 -59 -25q-76 -43 -144 -97q-159 -124 -298 -271q-156 -161 -304 -328q-2 -2 -4 -5q-4 -5 -8.5 -9t-13.5 -4q-1 0 -3 -2t-4 -5t-3 -5q-70 -89 -158 -162q-20 -18 -43 -30q-14 -8 -28 -8q-10 0 -20 4q-16 6 -24 21q-3 6 -3 11q0 8 5 15q7 8 16 8
q3 0 7 -1q11 -4 20 -4q6 0 12 2q14 5 28 15q52 35 98 79q101 99 196 202q33 36 67 72q31 32 61 65q105 114 216 222q131 129 282 236q35 26 74 48q23 13 49 18q9 1 17 1q52 0 71 -53q6 -22 6 -44q0 -21 -6 -43q-13 -63 -40 -121q-27 -59 -59 -117q-108 -196 -224 -388
q-20 -34 -41 -68q-130 -215 -224 -447q-40 -96 -62 -196q-9 -37 -9 -73q0 -19 2 -37l4 -14v-1q5 -17 24 -18h6q20 0 39 6q45 15 83 42q47 33 88 72q164 153 302 330q56 70 111 140q101 131 206 259q13 17 24 35q3 3 5 7q200 300 415 590q50 70 111 131q12 12 26 23
q9 8 20 11q7 2 13 2q16 0 28 -13q8 -10 8 -21q0 -9 -5 -18q-12 -21 -27 -40l-2 -2q-22 -29 -45 -58q-48 -61 -95 -123q-81 -108 -157 -220q-40 -58 -81 -116q-127 -179 -241 -366q-130 -211 -201 -448q-5 -18 -11 -36q-15 -43 -24 -88q0 -2 -1 -4v-7v-7.5t7 -9.5
q2 -2 2.5 -4.5t0.5 -4.5l-1 -3q-4 -22 -24 -30q-6 -2 -12 -2q-13 0 -24 10q-13 13 -16 32q-2 19 -2 37t2 36l2 20q6 65 27 127q33 103 78 201q2 5 4 11q1 2 2 5z" />
    <glyph glyph-name="V" unicode="V" horiz-adv-x="1022" 
d="M313 210q3 1 4.5 3t2.5 4t2.5 3.5t3.5 1.5q0 -7 -3 -13q-3 -8 -3 -16q4 2 6.5 5.5t4.5 6.5q1 2 1 3q221 380 476 737q180 259 389 495q20 22 39 45q28 34 58 67q20 23 45 40q16 11 34 14q4 1 8 1q15 0 25 -11q9 -10 9 -24q0 -5 -1 -10q-5 -30 -38 -31q-7 0 -11 -5
l-17 -17q-24 -26 -47 -52q-107 -115 -208 -234q-140 -170 -262 -352q-119 -176 -237 -353q-8 -12 -16 -23q-125 -189 -232 -389q-1 -2 -2 -3q-29 -58 -65 -111q-5 -6 -7 -13v-2l-22 -62q-6 -15 -16 -26q-15 -16 -34 -16q-8 0 -16 3q-28 12 -29 41v6q0 11 3 21l18 76
q22 92 43 185q104 459 232 912q26 89 40 182q5 35 5 70q0 23 -2 47q-1 2 -1 4q0 3 -1 7q-2 9 -5 11t-6 2t-8 -1q-19 -6 -35 -16q-57 -36 -105 -83q-117 -109 -222 -230q-195 -217 -381 -442q-35 -44 -76 -82q-22 -21 -50 -35q-11 -6 -23 -6q-9 0 -18 3q-18 7 -23 26
q-1 5 -1 9q0 11 7 18t16 7q5 0 10 -2q10 -4 19 -4q5 0 9 1q12 4 24 11q31 20 57 46q55 58 107 119l26 30q77 89 153 178q117 136 235 271q83 97 177 184q28 26 60 48q19 13 41 20q12 3 22 3q40 0 64 -40q12 -24 15 -50q4 -35 4 -70q0 -60 -13 -120q-24 -114 -57 -227
q-7 -23 -13 -46q-99 -362 -184 -727q-2 -8 -3 -15z" />
    <glyph glyph-name="W" unicode="W" horiz-adv-x="1599" 
d="M736 1542q-16 -4 -33 -15l-4 -2q-65 -39 -124 -88q-167 -138 -305 -313q-193 -242 -372 -497q-25 -37 -57 -67q-15 -14 -34 -20q-5 -2 -10 -2q-13 0 -23 13q-6 8 -6 18v3q0 8 4 15q6 11 16 11q5 0 12 -3q4 -1 8 -1h3q4 1 8 4q28 19 48 47q32 41 63 82q13 18 26 35
q32 42 64 85q141 191 291 373q156 189 346 332q30 24 63 42q16 9 33 12q4 1 9 1q33 0 47 -36q6 -19 6 -39q0 -12 -2 -24q-6 -38 -18 -74q-40 -114 -96 -221q-31 -63 -65 -124q-163 -298 -301 -612q-4 -8 -7 -17q-74 -159 -137 -324q-24 -63 -41 -129v-3q-1 -2 -1 -4v-4v-4h6
q2 2 4 3q1 1 3 2q47 32 88 74q104 108 195 230q83 108 161 220q43 61 87 121q114 157 221 320q17 26 32 53q12 25 31 44q10 11 22 11q6 0 13 -3q19 -11 19 -35q0 -28 -9 -54q-13 -37 -30 -72q-8 -18 -17 -36q-25 -56 -52 -110q-129 -256 -217 -533q-28 -82 -45 -168
q-6 -30 -6 -61v-9q0 -9 1.5 -10t4.5 -1q2 0 6 1q18 6 34 20q60 49 111 110q358 427 645 917q71 114 127 239q49 108 76 226q2 11 5 22q5 18 7 38q6 25 28 39q4 3 10 3q4 0 8 -2q11 -4 18 -14q10 -16 10 -33q0 -8 -2 -16q-2 -5 -3 -10q-8 -41 -23 -80q-42 -104 -95 -202
q-60 -113 -129 -220q-37 -59 -71 -120q-27 -49 -55 -96q-140 -223 -293 -433q-80 -112 -169 -216q-79 -93 -152 -193q-19 -26 -42 -49q-21 -21 -48 -30q-12 -3 -23 -3q-20 0 -38 11q-26 17 -35 55q-5 27 -5 54q0 19 2 37q10 85 37 166q78 263 193 509q1 1 1 3q5 7 6 17
q-8 -5 -12 -13q-1 -2 -2 -3q-88 -124 -173 -251q-42 -63 -85 -126q-109 -159 -225 -311q-42 -55 -90 -101q-22 -21 -47 -36q-16 -9 -33 -13q-7 -1 -13 -1q-48 0 -66 57q-4 19 -4 37q0 23 6 45q16 78 44 151q71 188 156 368q115 263 248 514q60 109 118 219q61 116 107 240
q4 12 8 25q1 3 2 7v2.5t-3 3.5z" />
    <glyph glyph-name="X" unicode="X" horiz-adv-x="1056" 
d="M888 503q80 97 144 194q13 17 25 38q6 5 11 5q6 0 10 -7q2 -3 2 -6q0 -8 -9 -22q-100 -157 -179 -264q-46 -62 -103 -116q-35 -32 -78 -56q-33 -18 -70 -26q-18 -3 -35 -3q-58 0 -105 37q-43 34 -71 79q-43 69 -73 143q-47 116 -77 236q0 2 -1 4q-1 6 -5 13
q-4 -1 -6 -3.5t-5 -4.5q-1 -1 -2 -4q-103 -114 -201 -230q-50 -60 -99 -119q-88 -103 -174 -206q-83 -102 -160 -208q-13 -18 -27 -37q-15 -17 -21 -36q1 -1 3 -2t4 -1q3 0 5.5 -1t2.5 -3v-2q0 -4 -2 -7q-3 -5 -7 -7q-10 -8 -19 -8h-4q-12 2 -18 15q-5 12 -5 24q0 11 4 22
q9 21 21 41q78 123 169 237q245 310 513 603q9 9 9 20q0 4 -1 8l-12 52q-39 163 -75 328q-25 106 -25 214q0 19 1 38q3 34 15 69q6 19 18 36q10 13 25 22q10 5 17 5q6 0 10 -3q10 -5 10 -20v-3q-1 -25 -5 -51q-1 -5 -1 -10q-3 -31 -3 -61q0 -52 8 -104q14 -110 41 -216
l18 -78q10 -50 22 -99l12 -48q0 -2 2 -5q4 2 6 3.5t4 2.5q0 2 2 2q258 266 540 511l26 24q50 45 103 89q34 27 72 49q15 8 33 12q4 1 8 1q17 0 28 -10q12 -10 12 -27v-5q-5 -24 -26 -38q-7 -6 -14 -6q-8 0 -16 9q-2 4 -5 4h-1q-2 0 -6 -3l-28 -19q-62 -44 -119 -95
q-316 -264 -591 -562q-10 -10 -10 -22q0 -6 2 -11q4 -13 7 -27q29 -124 75 -244q28 -73 69 -140q22 -36 53 -64q34 -30 73 -30q23 0 47 10q38 15 71 40q79 63 141 140z" />
    <glyph glyph-name="Y" unicode="Y" horiz-adv-x="1316" 
d="M931 581q9 0 16 4l4 2q33 15 65 29q93 42 187 78q39 14 78 27l18 6q13 5 27 6q17 -1 19 -14v-3q0 -5 -3 -7q-3 -3 -8 -5q-1 0 -2 -1q-100 -28 -224 -80t-195 -93q-16 -6 -24 -22q-160 -278 -358 -526q-91 -115 -205 -205q-38 -32 -82 -55q-33 -18 -69 -18q-9 0 -17 1
q-93 19 -109 120q-1 10 -1 19q0 41 17 77q22 46 53 84q73 88 161 159q224 185 477 323q21 11 33 33q7 12 14 25q29 50 55 102q182 323 259 477q32 62 54 128l2 4q4 12 6 24q-3 3 -6 2.5t-6 -1.5q-1 -1 -2 -1q-29 -12 -55 -32q-58 -43 -109 -97q-70 -72 -139 -143
q-60 -63 -121 -126q-78 -80 -160 -157q-85 -78 -177 -145q-85 -61 -177 -109q-1 0 -2 -1q-32 -17 -67 -18h-6q-32 0 -60 20q-31 22 -47 59q-14 36 -14 75q0 77 16 152q40 198 135 374q95 187 230 345q44 52 97 92q34 28 76 36q9 2 18 2q37 -2 48.5 -21t11.5 -36
q0 -14 -5 -30l-10 -22l-2 -2q-1 -2 -2.5 -3t-3.5 -1q-4 2 -4 6q-1 5 -1 10v6l1 6l-1 5q0 18 -4 20t-6 2q-6 0 -16 -6q-21 -12 -39 -29q-31 -26 -58 -57q-209 -237 -325 -536q-50 -131 -66 -272q-3 -20 -3 -40q0 -10 1 -20q1 -12 4 -24q5 -22 26 -23q7 -1 15 -1q24 0 48 8
q69 22 125 68q52 39 103 79l14 12q107 85 209 177q14 12 27 24t25 25q9 10 19 19q158 152 323 294q44 38 93 68q13 8 27 16q1 1 2 1q17 9 30 9q14 0 24 -9q21 -17 25 -44q1 -10 1 -19q0 -24 -7 -48q-18 -66 -48 -127q-171 -310 -243 -448q-11 -21 -21 -42l-2 -4
q-5 -7 -7 -17zM734 431h-3q-2 0 -4 -1q-3 -1 -5 -2q-1 -1 -3 -2q-193 -109 -365 -252q-89 -72 -166 -159q-32 -36 -57 -78q-20 -32 -26 -70q-1 -6 -1 -13q0 -22 11 -41q12 -25 35 -25q7 0 14 2q20 6 38 16q36 21 69 48q106 85 192 194q138 176 260 363l2 4q6 6 9 16z" />
    <glyph glyph-name="Z" unicode="Z" horiz-adv-x="1384" 
d="M338 168q8 -2 15 -2q5 0 10 1h11q118 -4 233 -42q108 -37 213 -91q94 -47 192 -82q74 -24 148 -24q14 -1 29 -1q16 0 31 -1q23 0 43 6q98 25 184 79q18 11 33 27q9 10 16 10q6 0 12 -6t7 -12t1 -8q0 -8 -3 -16t-10 -14q-10 -10 -23 -14q-53 -15 -103 -40q-24 -11 -47 -21
q-89 -37 -186 -41h-13q-121 0 -238 55q-29 13 -59 26q-91 43 -184 80q-136 56 -275 62h-12q-52 0 -102 -8q-16 -4 -27 -16q-82 -76 -170 -143q-32 -26 -67 -46q-19 -12 -42 -13q-31 2 -43.5 23.5t-12.5 40.5q0 11 4 24q10 23 27 40q43 45 95 75q36 22 75 37q25 10 45 28
q131 120 257 248q186 185 376 366q71 68 142 137q147 143 283 298q74 83 134 181q28 45 47 96q9 20 12 44v8q0 37 -32 50t-65 13q-9 0 -19 -1q-91 -8 -175 -41q-199 -69 -355 -220q-71 -69 -117 -162q-2 -5 -4 -9q-4 -7 -8.5 -10t-9.5 -3h-3q-14 5 -19 21q-5 15 -5 29
q0 13 4 26q7 29 22 53q26 44 62 77q76 72 166 119q174 94 367 133q51 12 104 12q21 0 43 -2q84 -11 98 -110q2 -16 2 -31q0 -41 -12 -78q-16 -52 -41 -96q-52 -94 -120 -171q-162 -189 -339 -359q-299 -285 -593 -576q-3 -4 -8 -6q-1 -2 -3 -3q1 -2 1 -4q1 -1 1 -2z" />
    <glyph glyph-name="bracketleft" unicode="[" horiz-adv-x="671" 
d="M100 24q20 -3 39 -3q9 0 18 1h16q36 0 71 -5q7 -1 13 -3.5t8 -8.5v-2q0 -5 -5 -8q-6 -2 -13 -3q-43 -8 -87 -8q-47 0 -95 9q-15 2 -19.5 6t-4.5 14v10q0 32 10 60q11 29 21 58q23 60 47 119q143 345 275 694q17 48 35 97q13 35 26 71q3 10 8 20q1 3 2 5q9 23 38 23
q5 0 10 -1q27 -2 54 -2q55 0 108 8q0 1 1 1l6 1l6 -1q6 0 11 -2t9 -8l1 -4l-1 -3q-2 -4 -7 -6q-26 -18 -62 -19h-11q-38 0 -76 6q-4 1 -7 1q-14 0 -17 -13q-55 -170 -128 -334q-37 -83 -70 -166q-82 -211 -155 -422q-29 -87 -70 -169q-2 -3 -4 -7q-1 -2 -1 -6z" />
    <glyph glyph-name="backslash" unicode="\" horiz-adv-x="567" 
d="M731 224q0 -18 -9 -24t-15 -6q-8 0 -17 6q-22 13 -36 33q-8 13 -16 25q-15 25 -31 50q-226 354 -463 700q-86 126 -180 246q-1 2 -3 4q-1 3 -3.5 5.5t-6.5 3.5q-25 8 -39.5 27t-24.5 41q-4 8 -4 16q0 3 1 7q3 10 13 16q8 5 16 5q11 0 24 -11l18 -20v-1q78 -91 148 -187
q264 -365 512 -740q45 -66 89 -132q6 -9 11 -18q15 -21 16 -46z" />
    <glyph glyph-name="bracketright" unicode="]" horiz-adv-x="695" 
d="M491 1102q-8 1 -16 1q-13 0 -26 -2q-1 -1 -2 -1q-11 -1 -22 -1q-33 0 -65 9q-11 2 -21 8q-10 7 -10 15q0 3 1 6q3 7 9 8t10 1h6q5 -1 9 -3q38 -16 61 -17t31 -1q31 0 62 3h14q27 0 27 -15q0 -6 -4 -15q-5 -10 -11 -21q-188 -286 -313 -596q-66 -157 -134 -312
q-31 -67 -60 -135q-2 -5 -5 -10q-2 -4 -4 -9q-14 -35 -64 -35q-37 0 -73 -7l-32 -4h-7q-6 -2 -13 -2t-13 3t-7 9v2q0 4 3 6q4 3 10 5q11 3 21 7q42 17 88 19q17 0 25.5 5.5t13.5 18.5q40 93 78 187q57 142 121 282q81 176 163 352q58 115 140 219q5 8 11 15l1 1l-1 1
q0 1 -2 3z" />
    <glyph glyph-name="asciicircum" unicode="^" horiz-adv-x="457" 
d="M234 1138q-4 -2 -7 -5t-5 -6l-2 -2q-31 -37 -59 -75q-9 -13 -19 -26q-19 -26 -43 -49q0 -1 -1 -1q-6 -7 -15 -11q-3 -1 -6 -1q-5 0 -9 3q-5 4 -5 8q0 3 1 5q3 9 7 17q57 116 130 225l4 8l10 14q14 19 37 19q4 0 9 -1q30 -6 34 -34q11 -62 28 -122q5 -21 10 -41
q8 -28 22 -54q7 -14 7 -28q0 -9 -3 -19q-2 -6 -6 -12q-9 -9 -18 -9q-8 0 -17 6q-17 15 -26 34q-22 45 -36 92l-14 44q-4 10 -8 21z" />
    <glyph glyph-name="underscore" unicode="_" horiz-adv-x="819" 
d="M59 342q31 1 140 1q190 0 616 -4h10q15 0 27 -12q9 -11 9 -23v-3q0 -13 -11 -23q-11 -9 -24 -9h-41q-130 0 -637 3l-60 2h-30q-21 1 -41 1h-2q-6 0 -12 -4q-5 -4 -10 -4q-2 0 -5 1q-7 2 -12 11q-4 7 -4 15v4q0 11 5 20q12 17 30 19q25 4 46 4q3 1 6 1z" />
    <glyph glyph-name="grave" unicode="`" horiz-adv-x="350" 
d="M95 1218q3 1 5 1q13 0 21 -13q53 -71 121 -117q13 -9 26 -19q11 -8 22 -17q12 -9 24 -19q4 -1 4.5 -3.5t0.5 -3.5q0 -3 -2 -7q-2 -5 -4 -6t-4 -1h-4q-14 3 -26 10q-70 37 -140 73q-5 3 -9 6q-28 16 -60 24q-19 8 -19 31q0 8 2 18q5 18 16.5 30t25.5 13z" />
    <glyph glyph-name="a" unicode="a" horiz-adv-x="456" 
d="M128 583q-10 -5 -14 -11l-2 -4q-20 -23 -40 -47q-27 -31 -54 -63q-25 -29 -54 -53q-14 -13 -30 -20q-12 -5 -24 -5t-23 6q-21 11 -27 37q-3 13 -3 25t3 24q37 163 154 281q23 22 51 36q4 3 8 4q19 7 35 7q29 0 50 -22q14 -17 14.5 -30t0.5 -15q0 -22 -10 -42q-1 0 -1 -1
q-1 -2 -2 -3q-3 -4 -5.5 -6.5t-5.5 -2.5q-2 0 -4 1q-5 1 -6.5 4.5t-2.5 8.5q0 2 -1 4q-1 10 -3 19q-2 10 -4 10.5t-3 0.5q-3 0 -10 -5q-31 -21 -55 -49q-70 -84 -104 -188v-2q-1 -2 -1 -4v-2q0 -2 1 -4q11 4 20 12q2 2 4 3q87 67 158 151q24 27 39 60q7 16 17 32l4 8
q7 13 17 22q12 12 27 12q6 0 12 -2q23 -9 26 -33l1 -9q0 -13 -5 -26q-9 -23 -19 -45q-12 -25 -19 -40q-9 -17 -16 -33.5t-15 -46.5q-8 -26 -12 -52l-2 -16v-2q0 -11 5 -11q4 0 10 5q21 16 40 35q14 15 28 29q101 95 162 185q8 10 19 17q3 3 6 3q4 0 7 -3q4 -3 4 -8
q0 -2 -1 -5q-5 -12 -13 -22q-15 -20 -33 -45q-49 -69 -106.5 -143.5t-103.5 -114.5q-21 -16 -42 -16h-7q-26 3 -45 27q-20 29 -20 64v3q2 51 17 90q2 7 4 13q1 2 1 5q1 3 3 8z" />
    <glyph glyph-name="b" unicode="b" horiz-adv-x="444" 
d="M84 733q8 5 12 12q1 2 3 4q37 49 79 94q21 23 47 38q21 10 39 10q40 0 62 -52q7 -20 7 -41v-5q0 -59 -16 -114q-16 -52 -40 -99q-28 -56 -77 -91q-33 -23 -71 -23q-6 0 -12 1q-46 8 -67 53q-3 6 -3 12q0 5 1 9.5t5 6.5h2q3 0 4 -1q2 -3 3 -6q1 -1 1 -3q10 -17 27 -17h6
q36 4 58 35q73 97 88 223q1 6 1 10q0 8 -3 10q-1 1 -3 1q-5 0 -16 -6q-25 -12 -47 -31q-83 -70 -144 -165q-9 -15 -16 -32q-7 -18 -14 -35q-15 -41 -31 -81q-6 -14 -13 -28q-11 -22 -34 -28h-1q-24 -8 -48 -8q-8 0 -15 1q-14 2 -14 10q0 4 5 11q11 17 17 36q2 5 4 9
q101 258 211 512l12 28q55 129 119 252l38 68l6 10q2 5 6 9l4 8q28 39 69 39q9 0 19 -2q7 -2 14 -5q11 -6 12 -9.5t1 -5.5q0 -5 -5 -14l-20 -34q-15 -23 -29 -48q-75 -133 -136 -275q-32 -76 -66 -152l-34 -80l-2 -4q-4 -7 -5 -17z" />
    <glyph glyph-name="c" unicode="c" horiz-adv-x="351" 
d="M154 746l-2 1l-6 -3l-1 -1q-58 -43 -92.5 -100t-56.5 -128q-7 -19 -7 -40q0 -8 1 -16q1 -11 3.5 -12.5t5.5 -1.5q4 0 9 1q29 8 54 25q67 41 125 93t107 103q30 30 58 56q1 1 2 1q4 2 7 2.5t6 -2.5q3 -4 3 -7v-2q-2 -4 -5 -8q-4 -4 -7 -8q-115 -143 -237 -250
q-40 -34 -86 -60q-27 -15 -58 -15q-46 2 -66 46q-14 30 -14 62q0 16 4 33q2 15 7 29q28 91 78 170q34 54 85 89q31 21 68 25h7q8 0 15 -1q43 -9 43 -49q0 -6 -1 -13q-4 -25 -19 -46q-5 -8 -13 -13q-3 -2 -8 -2q-3 0 -6 1q-3 2 -3.5 5t-0.5 4v5q0 5 1 10q2 4 2 8q0 5 -2 9z
" />
    <glyph glyph-name="d" unicode="d" horiz-adv-x="396" 
d="M598 1388q4 -2 9 -3q10 -3 20 -8q9 -4 10.5 -7.5t1.5 -5.5q0 -5 -3 -11q-12 -30 -30 -56q-17 -27 -36 -52q-4 -7 -9 -13q-8 -13 -14 -26q-4 -8 -52 -87q-24 -42 -47 -84l-20 -36q-118 -209 -206 -433q-10 -23 -23.5 -66.5t-23 -84.5t-9.5 -64v-4q1 -3 1 -5q1 -2 1 -4v-1
q0 -2 -1 -3q-2 -2 -6 -2q-5 -1 -9 -1q-21 0 -35 19q-27 33 -27 74q0 13 3 27q11 57 30 111q3 8 6 17q1 5 3 9q-4 -1 -6 -3.5t-4 -4.5q0 -2 -1 -3q-53 -78 -112 -151q-13 -17 -29 -31q-17 -15 -36 -15q-12 0 -24 6q-30 18 -30 53v5q2 20 7 40q32 129 101 241q24 40 57 73
q42 42 99 49q8 2 15 2q36 0 53 -38q0 -1 2 -1l2 -2q6 11 11 22q12 24 23 48q41 93 89 180q15 27 29 54q86 151 139 224q24 39 66 52h15zM176 780q-19 -7 -32 -19q-23 -21 -42 -46q-59 -80 -92 -175q-1 -1 -1 -2q-2 -2 -2 -5t2 -6l8 8q8 9 17 18q59 66 111 140q12 15 23 31
q12 16 12 35q0 10 -4 21z" />
    <glyph glyph-name="e" unicode="e" horiz-adv-x="428" 
d="M-85 523q4 103 64 187q46 63 111 106q41 28 89 37q11 2 22 2q19 0 38 -7q25 -11 31.5 -27t6.5 -27q0 -13 -6 -27q-11 -22 -30 -39q-80 -76 -190 -93q-15 -2 -20 -15q-21 -43 -26 -91v-6q0 -10 3 -20q8 -24 34 -27q9 -1 18 -1q39 0 76 14q97 41 161.5 102t98.5 106
q21 26 32 36q4 3 8 3q1 0 3 -1q4 -2 5 -4.5t1 -4.5t-1 -5q-55 -84 -136 -170.5t-169 -137.5q-37 -20 -78 -25q-9 -1 -18 -1q-47 0 -82 28q-41 34 -46 93v15zM70 678l1 -1q0 -1 1 -3q5 2 10 3l20 8q52 20 92 59q14 12 25 35q-92 -31 -149 -101z" />
    <glyph glyph-name="f" unicode="f" horiz-adv-x="278" 
d="M46 595q47 9 115.5 50.5t116.5 85.5l1 1q4 3 7.5 4.5t5.5 1.5q3 0 7 -4t4 -8q0 -2 -1 -3q-2 -5 -7 -9v-1q-79 -75 -125 -103t-110 -52q-14 -6 -32 -13q-22 -8 -30 -30q-5 -13 -11 -27q-22 -54 -43 -109q-3 -8 -3 -17q0 -5 1 -10q6 -27 6 -54q0 -44 -16 -87
q-35 -102 -98 -190q-10 -17 -26 -29q-14 -9 -27 -9q-6 0 -11 1q-19 5 -29 26q-5 14 -5 29q0 9 2 18q5 30 15 59q32 95 68 189q19 51 37 103q0 1 1 1q3 9 3.5 12t0.5 4q0 3 -2 6q-3 3 -11 10q-35 28 -74 49q-7 5 -15 9l-6 4q-5 2 -9 5q-14 8 -14 25q3 17 19 22q20 7 42 7
q18 0 36 1q35 0 70 2h1q3 1 5 1h2q16 0 22 17q34 79 69 159q9 20 18 41q7 15 13 30q13 28 25 56q35 86 78 167l26 52q41 83 78 168q23 49 54 94q15 22 42 27q9 2 17 5q14 4 29 5h4q8 0 15 -4q8 -5 8 -12q0 -3 -1 -7q-3 -8 -8 -15q-64 -99 -112 -208q-24 -53 -51 -104
q-72 -145 -135 -294q-16 -35 -31 -70q-12 -27 -24 -56l-6 -14q-1 -1 -1 -2q0 -2 2 -4q3 -2 8 -2zM-146 500h-12q5 -5 10 -9q15 -12 28 -24q2 4 3 7q7 13 10 27q-1 0 -2 1h-3q-16 -1 -34 -2z" />
    <glyph glyph-name="g" unicode="g" horiz-adv-x="380" 
d="M88 530q-5 -2 -8.5 -4.5t-5.5 -5.5q-1 -1 -2 -3l-20 -22q-22 -24 -46 -47q-19 -20 -43 -34q-19 -10 -36 -10q-14 0 -27 8q-28 16 -30 55v5q0 28 9 53q16 46 40 87q48 87 122 156q47 44 109 61q13 4 26 4q10 0 20 -2q28 -8 31 -36v-2q0 -44 -34 -72q-2 -2 -4 -2h-3
q-2 0 -4 1q-3 2 -3 4.5v3.5v3q1 6 3 11q1 2 2 5v1q2 5 2.5 8.5t0.5 4.5q0 4 -1 7q-32 -11 -78.5 -58t-86.5 -105t-51 -100q4 0 7.5 1.5t6.5 4.5q2 1 3 2q47 32 91 68q11 9 21 18q7 5 13 10q6 6 13 11q23 17 38 42q12 20 32 35q8 7 14.5 8.5t8.5 1.5q7 0 14 -4q17 -11 17 -29
q0 -3 -1 -7q-3 -22 -12 -43q-17 -39 -37 -77q-21 -39 -44 -86.5t-40 -87.5q-1 -1 -1 -2q-3 -8 -3 -11v-1q1 -2 8 -2h5q24 1 62 1h41q67 -2 144 -4q80 -2 132.5 -2.5t79.5 -0.5h45q4 1 9 1q7 1 15 1h7q13 -2 24 -8q1 -1 1 -2q5 -2 8 -5.5t3 -7.5v-3q-1 -16 -16 -24
q-34 -16 -68 -16q-26 0 -52 9q-27 8 -125 13.5t-181 7t-120 1.5h-29q-16 0 -21 -15l-40 -88q-13 -27 -25 -54q-54 -122 -128 -233q-32 -51 -75 -94q-77 -76 -186 -77q-73 0 -127 46q-69 62 -104 132t-35 130q0 20 3 39q12 79 101 137q64 37 136 53q110 27 223 37l144 14
q8 1 15 1q6 0 10.5 2t7.5 8q33 71 73 150q7 13 12 24zM-463 -142q34 -26 74 -26q8 0 16 1q50 6 91 36q50 39 84 92q110 159 178 340q1 3 2 5v3q0 5 -4 5h-13l-42 -4l-88 -8q-106 -8 -211 -30q-75 -14 -139 -54q-76 -53 -80 -91t-4 -48q0 -56 34 -110q39 -64 102 -111z" />
    <glyph glyph-name="h" unicode="h" horiz-adv-x="479" 
d="M10 526l6 8l14 20q4 6 7 12q37 58 79 111q53 66 123 113q13 8 24 8q16 0 30 -17q13 -18 13 -40l-1 -9q-3 -25 -11 -48q-12 -36 -25 -72q-14 -41 -24 -84v-1q-1 -6 -1 -12v-6q5 1 8.5 3.5t6.5 5.5q2 1 3 3q69 58 130 124q39 41 82 77q1 0 2 1q6 6 15 10q2 1 4 1q4 0 7 -4
q2 -2 2 -5q0 -2 -2 -5q-4 -6 -8 -10q-115 -124 -222 -255q-12 -16 -28 -29q-21 -15 -40 -15q-9 0 -18 3q-27 10 -36 46q-2 13 -2 26q0 24 6 47q16 82 48 160q4 12 8 23q2 6 4 11q-2 1 -4 1h-2q-2 -2 -4 -3q0 -1 -1 -2q-29 -24 -52 -54q-108 -136 -185 -291q-10 -20 -15 -42
q-2 -8 -4 -15q-9 -28 -34.5 -50t-57.5 -25h-9q-13 0 -16 4q-1 1 -1 4q0 6 7 20q12 25 17 52q3 10 5 19q55 212 138 415q48 111 100 220q9 18 17 37q37 76 89 168q22 40 39 72q1 2 2 5q14 25 25 51q23 43 68 58q13 6 27 8l8 2l6 1l6 -1q5 -1 9 -7q4 -7 4 -14q0 -6 -3 -12
q-13 -19 -23 -40q-4 -7 -7 -15q-134 -244 -251 -496q-55 -120 -98 -246q-3 -8 -5 -16l-2 -8h1q1 -1 2 -1z" />
    <glyph glyph-name="i" unicode="i" horiz-adv-x="271" 
d="M272 740q9 5 14 5q6 0 9 -5q4 -4 4 -9l-1 -3q-1 -6 -5 -11q-24 -33 -79.5 -103t-113.5 -136.5t-89 -89.5q-22 -16 -50 -21h-8q-52 0 -69 53q-3 13 -3 25q0 17 5 33q11 44 29 85q31 69 61 137q4 9 8 17q15 32 35 61q6 10 15 18q14 10 27 10q11 0 21 -6q22 -13 22 -37
q0 -4 -1 -8q-4 -16 -12 -29q-51 -96 -91 -198l-14 -32q-8 -20 -8 -29q0 -8 5 -8q2 0 4 1q18 5 57 40.5t84 83t83 89t54 59.5zM88 933q0 41 28 70q20 20 46 20q8 0 16 -2q22 -6 22 -23q0 -7 -3 -15q-9 -22 -23 -41q-13 -18 -24 -37q-4 -8 -9 -16q-1 -2 -2 -3q-1 -3 -3 -5
q-8 -12 -14 -12q-7 0 -16 12q-18 23 -18 52z" />
    <glyph glyph-name="j" unicode="j" horiz-adv-x="195" 
d="M92 880q-1 8 -1 16q0 50 33 91q9 13 23 20q9 4 18 4q13 0 24 -9q15 -12 15 -29q0 -5 -1 -10q-4 -16 -15 -28q-13 -16 -27 -32q-20 -22 -38 -45v-1q-3 -4 -6 -6.5t-6 -2.5q-2 0 -4 1q-5 1 -7.5 5t-3.5 9q0 1 -1 1q-1 6 -2 11q0 3 -1 5zM-66 385q-3 -6 -5 -12q-1 -1 -1 -2
q-4 -7 -4 -10q0 -1 1 -2q1 -2 8 -2h5q24 1 61 1h41q67 -2 144 -4q80 -2 132 -2.5t79 -0.5h45q5 1 9 1q7 1 15 1h7q13 -2 24 -8q1 -1 1 -2q5 -2 8.5 -6t3.5 -10q-2 -16 -17 -24q-34 -16 -68 -16q-26 0 -52 9q-27 8 -125 13.5t-181 7t-120 1.5h-29q-15 0 -21 -15l-40 -88
q-12 -27 -25 -54q-54 -122 -128 -233q-32 -51 -75 -94q-77 -76 -186 -77q-73 0 -127 46q-69 62 -104 132t-35 130q0 20 3 39q12 79 101 137q64 37 136 53q110 27 223 37l144 14q7 0 15 1q6 0 10.5 2t7.5 8q6 14 14 29q39 92 93.5 203.5t99.5 186.5q3 5 6 9q17 18 37 18
q9 0 18 -4q24 -13 24 -40q0 -5 -1 -10q-4 -18 -15 -34q-31 -50 -72 -139t-74 -165q-6 -13 -11 -25zM-651 -142q34 -26 74 -26q8 0 16 1q50 6 91 36q50 39 84 92q110 159 178 340q1 3 2 5v3q0 5 -4 5h-13l-42 -4l-88 -8q-106 -8 -211 -30q-74 -14 -139 -54q-76 -53 -80 -91
t-4 -48q0 -56 34 -110q39 -64 102 -111z" />
    <glyph glyph-name="k" unicode="k" horiz-adv-x="460" 
d="M4 503q12 4 18.5 10t11.5 14l24 32l76 102q37 50 85 90q19 17 41 28q15 6 26 6t20 -5q18 -12 19 -42q0 -34 -17 -65q-20 -39 -49 -73q-78 -90 -176 -157h-1q-6 -5 -13 -9q-1 -1 -1 -3l-1 -1q15 -11 34 -11q4 0 8 1q51 5 94 33q38 23 69 55q36 37 59 63t54 66l1 1
q32 42 68 81q4 4 8.5 7.5t11.5 3.5h1l3 1l3 -1q2 0 4 -3q2 -2 2 -4v-2q-1 -3 -3 -6q-3 -5 -7 -10l-20 -26q-22 -30 -45 -58q-30 -36 -50 -62q-25 -34 -66 -80q-46 -50 -103 -85q-42 -24 -89 -34q-12 -2 -24 -2q-42 0 -79 25l-10 6q-3 2 -6 5q-19 -27 -32 -57q-9 -22 -17 -44
q-4 -11 -9 -23q-10 -24 -32 -36q-6 -3 -11 -7q-5 -3 -10 -5q-13 -8 -29 -12q-5 -1 -9 -1h-7.5t-10.5 6q-3 4 -3 9v4t2 9l2 4l14 42q23 67 45 135q72 212 162 416q5 10 9 21q27 61 52 123q72 170 162 331q34 57 98 72q6 2 11 2q14 0 14 -15q0 -4 -2 -11t-6 -13
q-22 -42 -42 -85q-26 -55 -55 -109q-59 -114 -106 -233l-16 -38q-20 -45 -39 -91q-58 -130 -108 -264q-2 -6 -5 -13q-1 -3 -3 -8zM245 719q-75 -53 -124 -130q74 53 124 130z" />
    <glyph glyph-name="l" unicode="l" horiz-adv-x="277" 
d="M2 467q5 0 9.5 2t8.5 5q2 2 4 3q42 30 78 69q50 52 155 171q2 3 5 7l3 3q5 5 9 8t8 3h2q2 0 5.5 -1.5t5.5 -4t2 -5.5q0 -2 -1 -4q-1 -5 -4 -10l-137 -168q-30 -40 -60 -79l-1 -1q-24 -29 -52 -54q-23 -23 -55 -30q-6 -1 -12 -1q-50 0 -64 55q-2 14 -2 28q0 24 6 47
q16 70 44 136q109 281 242 551q29 60 63 117q21 35 55 50q14 7 29 12l18 6q4 2 8 2q8 0 13 -7q5 -5 5 -11q0 -5 -3 -11q-3 -9 -8 -17q-48 -78 -87 -161q-5 -10 -11 -21q-138 -276 -249 -566q-20 -50 -31 -102q-1 -2 -1 -4q-1 -4 -1 -8v-3q0 -3 1 -6z" />
    <glyph glyph-name="m" unicode="m" horiz-adv-x="720" 
d="M262 555q9 5 14 12q2 2 3 4q59 67 124 130q34 33 71 62q13 11 29 19q13 5 25 5q16 0 30 -9q25 -16 27 -49q-1 -21 -10 -41q-18 -42 -44 -80q-38 -57 -73 -115l-2 -4q-6 -9 -8 -19h6q3 2 5 3q1 1 3 2q63 42 117 97q9 8 32.5 36t49.5 60q20 25 36 44.5t24 27.5q4 2 7 2.5
t4 0.5q4 0 7 -3q8 -8 8 -16q0 -5 -2 -9q-10 -15 -57 -70.5t-97 -112.5t-67 -76q-24 -25 -50 -47q-6 -5 -12 -11q-14 -11 -29 -19q-17 -8 -32 -8q-13 0 -25 6q-25 14 -30 48q-1 6 -1 13q0 23 9 45q12 33 30 62q33 56 69 110q2 3 5 7q1 2 2 3q5 7 8 18q-10 -4 -16 -10
q-2 -1 -3 -3q-69 -53 -124 -122l-26 -32q-45 -54 -87 -111q-5 -7 -12 -14q-15 -14 -32 -14q-10 0 -20 4q-29 13 -29 45q0 17 6 32v1q21 71 54 138q9 18 17 35q15 30 30 61q3 7 6 15l4 8q-4 0 -6.5 -2t-4.5 -4q-1 -1 -2 -1q-46 -48 -86 -101q-43 -57 -87 -114q-9 -12 -19 -24
q-17 -23 -32 -47q-5 -9 -12 -17q-17 -18 -38 -18q-4 0 -9 1q-25 5 -37 33q-6 17 -6 35q0 10 2 20q4 30 15 59q39 112 96 216q10 21 26 38q14 16 36 20h6q15 0 25 -9q12 -11 12 -29q-1 -19 -12 -35v-1q-53 -97 -93 -200q0 -2 -1 -4q-2 -4 -2.5 -7t-0.5 -5v-5q28 22 48 49
q45 62 86 128q5 7 10 15q29 47 71 82q9 7 19 14q17 9 32 9q13 0 25 -6q27 -12 35 -45q1 -9 1 -18q0 -16 -4 -31q-6 -26 -18 -50l-24 -50q-9 -18 -17 -36l-2 -4q-5 -7 -6 -17z" />
    <glyph glyph-name="n" unicode="n" horiz-adv-x="496" 
d="M-3 525q9 3 13 9q2 1 3 3q67 66 126 138l2 2q1 1 1 2q31 38 66 72q13 11 26 21q14 11 32 17q12 3 23 3q23 0 40 -14q21 -19 21 -52v-8q-4 -28 -16 -54q-12 -27 -19.5 -47t-13.5 -39q-8 -25 -23 -63q0 -2 -2 -6q-4 -9 -8 -20t-3.5 -16.5t3.5 -5.5t7 2q37 17 80.5 69
t82.5 107q39 54 64 80l2 2q4 4 7 5.5t5 1.5q4 0 8 -4q3 -3 3 -7v-2q-1 -5 -4 -9q-1 -1 -1 -2q-20 -37 -80 -123.5t-121.5 -150.5t-98.5 -64q-7 0 -13 2q-38 20 -41 63v13q0 33 12 64q11 32 18 54t14.5 43.5t20.5 52.5l2 4q3 7 4 15l-3 1l-6 -3l-2 -2q-27 -19 -50 -43
q-65 -70 -121 -148q-5 -8 -11 -15q-19 -26 -38 -51q-11 -14 -23 -27q-12 -14 -30 -21q-13 -7 -27 -7q-17 0 -34 12q-22 19 -22 44q0 6 1 12q12 69 39 131q40 97 85 192q7 15 19 27q15 12 30 12q13 0 26 -8q19 -15 19 -36q0 -8 -3 -17q-8 -20 -17 -38q-4 -10 -8 -19
q-31 -69 -61 -138q-1 -1 -1 -2q-3 -6 -4 -14z" />
    <glyph glyph-name="o" unicode="o" horiz-adv-x="379" 
d="M-28 484q2 1 3 2q3 1 4 3q60 51 102 118q6 9 6 19q0 4 -1 8q-2 9 -2 18q0 18 9 35q11 19 33 21q30 -1 35 -30v-11q0 -22 12 -35q14 -12 32 -12q17 0 38 10q43 20 78 49t54 47q6 5 11 5q4 0 8 -4q4 -5 4 -10t-5 -10q-24 -37 -93 -86t-136 -49q-12 0 -25 2q-4 2 -7 2
q-2 0 -4 -1q-4 -1 -6 -7q-27 -52 -58 -100q-18 -30 -40 -57q-21 -27 -54 -40q-14 -5 -26 -5q-17 0 -33 9q-26 14 -36 48q-4 15 -4 30q0 13 3 25q1 13 5 26q43 149 144 262q26 28 57 49q20 14 44 19q7 1 14 1q21 0 37 -11q22 -15 29 -44q2 -11 2 -22q0 -30 -18 -55
q-3 -5 -7 -7.5t-8 -2.5q-2 0 -5 1q-12 5 -14 18q-2 12 -7 23q-2 6 -7 6q-3 0 -6 -2q-2 -2 -5 -4l-10 -8q-34 -28 -60 -63q-54 -75 -84 -163q-1 -1 -1 -2q-2 -3 -2 -5.5v-4.5v-5z" />
    <glyph glyph-name="p" unicode="p" horiz-adv-x="423" 
d="M51 465q52 28 108.5 110t64.5 141h-4q-8 0 -16 -4l-4 -2q-61 -24 -109 -67q-19 -18 -37 -36q-9 -8 -17 -17q-10 -9 -16 -22q-2 -6 -5 -12q-72 -160 -134 -324q-31 -82 -59 -160q-40 -112 -84 -228q-15 -39 -47 -63q-21 -15 -44 -15q-8 0 -17 2q-13 3 -13 13q0 4 2 8
q5 20 13 38q37 87 64 170q22 66 49 135q34 85 65 171q2 4 3 8q46 120 100 238q9 20 18 41q34 78 72 155q18 38 46 68q16 18 40 25q8 2 15 2h5q24 -1 34 -23q3 -8 3 -15q0 -15 -12 -26q-45 -48 -68 -110v-4q4 1 6 3l4 4q1 2 3 3q65 63 145 105q1 1 2 1l1 1q19 10 34 10
q14 0 25 -8q25 -15 28 -51v-10q0 -27 -9 -52q-49 -145 -161 -248q-16 -15 -34 -26q-19 -12 -41 -13q-34 0 -49.5 19t-15.5 41q0 8 1 16q5 20 17 37q8 11 21 17q4 2 7 2q7 0 7 -9v-3q-1 -8 -4 -16v-2q-1 -2 -1 -3q-2 -4 -2 -11v-4z" />
    <glyph glyph-name="q" unicode="q" horiz-adv-x="460" 
d="M134 438q26 4 43 14q94 62 149.5 121t85.5 102q26 36 44 50q5 6 12 9q4 2 7 2q6 0 11 -6q3 -3 3 -6q0 -2 -1 -3q-1 -4 -4 -7q-3 -4 -5 -7q-55 -74 -89 -116t-74.5 -77.5t-112.5 -90.5q-43 -32 -91 -54q-13 -5 -19 -18q-78 -194 -147 -381q-13 -36 -28 -75
q-13 -36 -27 -72q-22 -53 -78 -62q-6 -1 -13 -1q-20 0 -20 14q0 5 2 11q9 23 17 47q5 17 11 34l18 48q87 242 188 486q26 60 57 118l1 1q1 2 1.5 3.5t0.5 3.5q-4 0 -6 -2t-3 -4t-2 -3l-2 -2q-28 -36 -60 -69q-12 -12 -26 -20q-15 -8 -29 -8q-10 0 -19 4q-22 10 -30 38
q-2 8 -2 16q0 5 1 11q1 11 4 22q36 138 117 256q27 41 69 68q28 19 63 24h6q53 0 64 -55v-5q0 -7 3 -13q4 1 6 3t4 5q3 2 5 5q8 7 15 8.5t11 1.5q5 0 11 -2q20 -10 21 -33q0 -19 -6 -37q-13 -37 -33 -70q-27 -50 -55 -100q-22 -39 -44 -79q-8 -14 -16 -31q-5 -8 -9 -17z
M1 514q17 11 30 23q53 45 100 97q22 24 37 53q1 1 2 3q3 4 3 8q1 16 4 31q3 20 3 40v4q0 6 -1 11.5t-6 7.5q-2 1 -4 1q-3 0 -5 -2q-4 -2 -8 -6q-2 -2 -4 -3q-41 -36 -69 -82q-49 -80 -79 -168q-1 -1 -1 -3q-2 -3 -2 -6v-9z" />
    <glyph glyph-name="r" unicode="r" horiz-adv-x="359" 
d="M-120 214q4 49 23 102q56 153 121 302q2 5 2 8v2q0 4 -7 9q-49 33 -51 92v6q0 27 8 52q23 75 70 137q24 34 59 54q17 9 37 12h3q21 0 34 -13q11 -11 11 -29q0 -4 -1 -9q-6 -27 -21 -50q-42 -73 -98 -135q-12 -11 -12 -22q0 -9 10 -19q4 -5 7 -9q11 -14 26 -26
q16 -13 17 -33q0 -21 -6 -40q-15 -45 -33 -88q-8 -18 -15 -36q-10 -25 -20 -51q-30 -72 -57 -145q-6 -21 -11 -42q-2 -11 -5 -22q-1 -3 -1 -6q0 -6 3 -12q4 -12 11 -12q4 0 10 5q22 15 39 34q56 64 103 136q112 172 209 352l1 1q5 12 15 19q5 3 10 3t9 -3q7 -6 7 -13
q0 -4 -1 -7t-3 -6q-1 -1 -1 -2q-35 -59 -72 -124q-62 -112 -130.5 -223.5t-141.5 -202.5q-17 -24 -44 -38q-15 -7 -29 -7q-18 0 -35 10q-50 26 -50 89zM94 830v-2q10 10 21.5 26.5t20 32.5t9.5 26q-26 -35 -46 -72q-1 -1 -2 -3l-2 -4t-1 -4z" />
    <glyph glyph-name="s" unicode="s" horiz-adv-x="396" 
d="M179 593q5 0 8.5 1.5t5.5 3.5q2 1 3 2q65 40 138 98q31 24 55 41q8 3 15 3q8 0 16 -3q4 -2 7 -4.5t4 -7.5v-3q0 -2 -1 -4q-2 -2 -5 -4q-84 -66 -191 -136q-20 -11 -35 -27q-5 -6 -5 -14q0 -81 -36 -147q-42 -84 -116 -141q-64 -49 -146 -65q-8 -2 -15 -2q-12 0 -24 4
q-40 13 -43 54q0 24 11 43q13 23 30 42q101 117 230 204q1 0 2 1q4 3 8 5q7 5 7 12q0 3 -2 7q-9 24 -28 42q-27 28 -54 57q-31 33 -44 74q-7 23 -7 45q0 38 21 70q32 48 82 78q22 15 51 15h10q38 -3 58 -38q10 -19 10 -37q0 -16 -8 -31q-4 -7 -9 -7t-11 9l-2 4l-1 1
q-7 15 -10.5 16.5t-6.5 1.5q-5 0 -13 -5q-48 -25 -74 -71q-5 -10 -5 -21q0 -16 11 -33q8 -13 18 -23q2 -2 4 -5q13 -14 26 -27q38 -34 61 -78zM87 474v4q-2 -1 -3 -2q-3 -1 -4 -2q-115 -81 -200 -192q-10 -13 -16 -28q-1 -2 -2 -3q-2 -3 -2 -6v-2q0 -3 2 -5t5 -2h1q3 0 6 1
q2 1 4 1q51 15 89 50q84 74 119 182q1 1 1 4z" />
    <glyph glyph-name="t" unicode="t" horiz-adv-x="213" 
d="M165 1151q-12 -1 -23 -1q-22 -1 -43 -3q-114 -6 -227 -25q-30 -5 -59 -14q-8 -2 -15 -9q-12 -14 -25 -14q-7 0 -14 4q-11 6 -15.5 15.5t-4.5 19.5v6q5 24 28 36q20 11 43 14q55 10 111 13l20 2q87 7 174 8l60 2q17 0 23 16l22 48q6 13 12 25q11 21 18 44q7 32 40 37l18 4
q7 2 15 3q7 2 15 2q5 0 10 -1q14 -3 14 -14q0 -3 -1 -6q-2 -8 -5 -14q-16 -31 -29 -63q-12 -30 -27 -59q-4 -9 -4 -12v-1q2 -3 13 -3q28 0 55 -1h145q24 0 48 -3q21 -4 29.5 -19.5t8.5 -27.5q0 -7 -2 -15q-4 -9 -12 -9q-2 0 -4 1h-2l-64 8l-14 2q-19 3 -39 4q-43 0 -87 2
q-42 2 -84 2h-4q-8 0 -13 -3q-7 -4 -12 -15q-35 -81 -67 -164q-1 -4 -3 -8q-48 -120 -100 -238q-19 -43 -37 -86q-68 -180 -146 -394.5t-131 -368.5q-1 -5 -2.5 -9t-2 -6.5t-0.5 -3.5l-1 -1v-1q-1 -1 -1 -1.5t-0.5 -1.5t-1.5 -3.5t-2 -6t-2 -9.5q-9 -25 -9 -50q0 -10 1 -20
v-3q0 -6 -4 -6q-3 0 -6 1t-5 2q-64 42 -64 108q0 11 2 22q10 56 31 109q36 94 65 180q29 91 67 189q88 222 184 440q20 45 39 90q25 58 47 116l38 96q8 17 16 38z" />
    <glyph glyph-name="u" unicode="u" horiz-adv-x="438" 
d="M88 497q-3 -5 -7 -11l-20 -28q-21 -31 -51 -55q-19 -15 -42 -15h-8q-44 8 -51 52q-1 8 -1 16q0 24 7 46q38 150 109 288v1q7 14 17 25q18 18 37 18q12 0 25 -8q16 -11 18 -22t2 -15q0 -14 -8 -27q-65 -109 -97 -232l-12 -38v-5q3 0 5.5 1t4.5 3h1q28 19 51 45
q20 24 40 49q6 7 13 15q8 11 14 23q29 58 61 114l20 36q6 11 13 20q16 18 35 18q10 0 21 -5q23 -13 23 -37q0 -8 -2 -16q-3 -11 -9 -20l-34 -64q-14 -25 -28 -51q-25 -44 -42 -92q-7 -18 -9 -37v-3q0 -7 4 -7h2q8 1 19.5 9t21 16.5t12.5 11.5q65 64 111 123q33 41 73 85
q6 6 12 11q5 5 11 5q4 0 9 -4t5 -9q0 -6 -3 -11q-4 -7 -10 -13q-10 -13 -32 -43q-44 -61 -110.5 -140.5t-106.5 -103.5t-56 -24q-32 0 -49 46q-5 18 -5 36v22h-2q-1 1 -2 1z" />
    <glyph glyph-name="v" unicode="v" horiz-adv-x="390" 
d="M54 485q25 19 42 41q47 57 82 122l14 24q50 81 84 171l6 16q10 29 18 59q5 18 15 33q0 1 1 1q1 3 3 5t6 2t5.5 -2.5t2.5 -5.5q1 -1 1 -2q4 -10 5 -21q1 -13 1 -26q0 -33 -7 -66q-25 -94 -104 -233.5t-147 -202.5q-14 -13 -32 -19q-12 -3 -22 -3q-35 0 -54 37
q-11 30 -13 62q-1 15 -1 30q0 97 29 190q8 33 21 64q7 19 20 33q18 17 36 17q12 0 24 -7q18 -13 18 -34q0 -11 -6 -25q-49 -113 -51 -235v-17q1 -1 2 -4q0 -1 1 -4z" />
    <glyph glyph-name="w" unicode="w" horiz-adv-x="566" 
d="M126 539q-4 -2 -6.5 -4.5t-4.5 -5.5q-1 -1 -2 -3q-8 -11 -17 -23q-13 -19 -27 -38q-20 -27 -46 -47q-13 -10 -28 -16q-12 -4 -23 -4q-16 0 -31 9q-23 14 -30 45q-1 11 -1 22t1 22q9 62 29 122q28 82 64 161q8 19 20 36q9 15 26 21q8 3 16 3q15 0 27 -10q16 -13 16 -35v-5
q-3 -13 -9 -24q-1 -2 -2 -5q-60 -120 -92 -252q-2 -8 -3 -17l-2 -10q6 0 10 2t7 4l2 2q21 15 39 34q54 57 101 121q10 14 17 30q3 7 7 14q17 39 38 76q11 19 27 33q11 9 23 9q9 0 18 -5q21 -11 21 -35v-2q0 -12 -4 -23q-6 -15 -13 -30q-10 -23 -20 -45q-15 -34 -30 -69
q-21 -46 -32 -96q-3 -15 -3 -31q5 0 9 1.5t7 3.5q1 1 3 2q37 24 66 57q47 53 83 115q4 6 4 12t-5 13q-13 22 -13 43q0 27 22 51q7 8 17 12q7 3 13 3q8 0 15 -4q12 -6 17 -22q3 -10 3 -21q0 -8 -2 -17q-3 -11 -7 -21l-2 -8q-2 -6 -2 -9v-2q2 -3 10 -5q41 0 68.5 18.5
t45.5 36.5q7 7 13 12q3 1 5 1q8 0 13 -8q3 -4 3.5 -7.5t-2.5 -7.5q-10 -12 -34.5 -32t-54 -34t-58.5 -14q-7 0 -14 1q-3 1 -6 1q-11 0 -17 -12q-47 -79 -105 -149q-28 -35 -61 -66q-14 -14 -32 -23q-15 -6 -28 -6t-24 5q-24 10 -35 39q-7 24 -7 47q0 15 3 30l4 22q1 5 2 11z
" />
    <glyph glyph-name="x" unicode="x" horiz-adv-x="350" 
d="M78 640q8 4 12 9q1 2 3 4l3 3q60 63 124 121q20 17 41 31q8 5 17 7q4 1 7 1q11 0 18 -9q5 -7 5 -15q0 -5 -2 -11q-13 -23 -35 -37l-4 -2t-4 -1q-4 1 -7 1q-4 0 -8 -2q-5 -4 -11 -9l-3 -3q-76 -67 -143 -145q-6 -7 -6 -15q0 -4 1 -8v-3q11 -57 21 -115q9 -48 29 -92
q21 -58 75 -87q4 -2 7 -5q6 -5 6 -10v-2q-2 -6 -9 -9q-6 -2 -11 -2t-9 1q-20 5 -36 15q-3 2 -6 3q-37 20 -68 47q-43 43 -60 102q-7 20 -11 42l-4 18q0 3 -1 5q0 7 -4 13q-3 -1 -5.5 -3t-4.5 -5q-1 -1 -2 -3q-49 -55 -103 -105q-13 -13 -25 -27l-5 -5q-5 -8 -12 -8
q-4 0 -7 2q-5 2 -6.5 6t-1.5 7q0 4 2 8q6 12 14 24q39 59 87 111l24 26q14 15 27 29q7 7 7 17v5q-11 92 -22 185q-3 23 -5 46q-1 4 -1 8q1 38 35 47q5 1 9 1q12 0 22 -6q14 -9 21 -26q6 -19 7 -39q0 -6 1 -12l8 -68q3 -22 6 -43v-3q0 -2 0.5 -5t2.5 -5z" />
    <glyph glyph-name="y" unicode="y" horiz-adv-x="400" 
d="M127 572q-3 -1 -5.5 -3t-3.5 -4t-3 -3q-49 -57 -104 -109q-17 -18 -38 -31q-18 -10 -34 -10q-12 0 -23 6q-26 13 -30 48q-1 7 -1 13q0 26 10 51q13 38 33 73q14 27 36 70q28 57 47 92q9 17 21 33q18 21 38 21q12 0 25 -8q19 -15 19 -34q0 -13 -8 -28q-17 -31 -42 -83
q-22 -44 -37 -71q-21 -36 -38 -73q-1 -2 -1 -3q-5 -8 -6 -19q5 1 8.5 3t6.5 5q2 1 3 2q37 28 69 61q41 44 89 112q36 52 66 86l10 14l6 8q17 21 38 21q9 0 19 -4q23 -13 23 -39q0 -8 -2 -18q-7 -18 -18 -34q-13 -23 -32.5 -67.5t-29.5 -68.5q-13 -32 -29 -62
q-38 -71 -68 -146q-1 -1 -1 -2q-4 -7 -4 -10q0 -1 1 -2q1 -2 8 -2h5q24 1 61 1h41q67 -2 144 -4q80 -2 132 -2.5t79 -0.5h45q4 1 9 1q7 1 15 1h7q13 -2 24 -8q1 -1 1 -2q5 -2 8 -5.5t3 -7.5v-3q-1 -16 -16 -24q-34 -16 -68 -16q-26 0 -52 9q-27 8 -125 13.5t-181 7t-120 1.5
h-29q-16 0 -21 -15q-20 -44 -40 -87q-12 -28 -25 -55q-54 -122 -128 -233q-32 -51 -75 -94q-77 -76 -186 -77q-73 0 -127 46q-69 62 -104 132t-35 130q0 20 3 39q12 79 101 137q64 37 136 53q110 27 223 37l144 14q7 1 15 1q6 0 10.5 2t7.5 8q26 56 53 112q23 47 46 95v1
q1 2 1.5 4t-0.5 4zM-439 -142q34 -26 74 -26q8 0 16 1q50 6 91 36q50 39 84 92q110 159 178 340q1 3 2 5v3q0 5 -4 5h-13l-42 -4l-88 -8q-106 -8 -211 -30q-75 -14 -139 -54q-76 -53 -80 -91t-4 -48q0 -56 34 -110q39 -64 102 -111z" />
    <glyph glyph-name="z" unicode="z" horiz-adv-x="369" 
d="M10 701q-7 -3 -13 -3q-15 0 -20 20q-1 4 -1 8q0 22 23 45q27 27 56 38t46 11q15 0 28 -6q25 -10 25 -52v-9q-2 -21 -11 -40q-14 -28 -32 -54l-3 -3q-5 -5 -8 -14q16 2 30 2h10q69 -1 76 -70v-13q0 -24 -5 -47q-47 -224 -208 -388q-30 -31 -68 -52q-25 -15 -55 -19h-6
q-55 0 -65 56q-1 8 -1 15q0 35 12 68q12 41 35 77q35 57 71 113q28 42 62 80q1 1 1 2q5 6 11 9q4 2 8 2q6 0 11 -4q5 -6 5 -11q0 -4 -2 -8q-4 -9 -13 -13q-14 -8 -23 -20q-79 -87 -119 -197q-14 -40 -15 -83v-3q0 -7 1 -13.5t6 -10.5q4 -2 7 -2t5 1q5 2 10 6q3 1 5 3
q39 24 69 60q87 102 142 224q33 70 53 145q2 10 3 20v4q0 7 -3 10q-4 3 -14 3q-25 0 -49 -8l-24 -8q-13 -4 -25 -7q-8 -2 -15 -2q-11 0 -16 8q-2 4 -2 9q0 10 12 23q52 58 81 132q4 12 4 17v2q-2 4 -7 4h-2q-22 -4 -43 -21t-33 -29z" />
    <glyph glyph-name="braceleft" unicode="{" horiz-adv-x="559" 
d="M165 606v-2q0 -2 1 -3q1 -2 3 -4q0 -1 1 -1q41 -48 41 -97q0 -18 -5 -36q-11 -45 -33 -85q-49 -91 -107 -179q-27 -38 -45 -80q-6 -15 -9 -33v-4q0 -53 73 -60q5 -1 11 -1h10q5 0 8 -1t5 -5v-1q0 -4 -5 -7q-6 -5 -13 -7q-15 -3 -29 -3q-31 0 -61 15q-42 23 -51 63
q-1 8 -1 16q0 32 13 61q22 51 53 100q64 100 102 211q10 25 10 51q0 36 -19 72q-5 10 -7 19q-1 3 -1 6q0 11 17 15q74 17 105 73q44 75 67 158q32 116 107 217q25 33 60 61t71 41q13 6 38.5 11t51.5 5q27 0 41 -9q16 -12 16 -25q0 -4 -2 -9q-6 -13 -23 -13q-5 0 -11 1
q-19 2 -37 2q-81 0 -135 -48q-60 -57 -93 -127q-33 -66 -46 -138q-13 -69 -39 -134q-28 -73 -126 -83q-3 -1 -5 -2q-1 -1 -2 -1z" />
    <glyph glyph-name="bar" unicode="|" horiz-adv-x="632" 
d="M483 1615q-1 -46 -13 -92q-75 -287 -120 -585q-47 -275 -104 -547l-26 -130q-25 -129 -50 -260l-20 -100q-4 -33 -18 -64q-4 -12 -10.5 -18t-13.5 -6q-3 0 -6 1q-9 2 -14 11.5t-7 23.5q-2 12 -2 24q0 17 4 34q46 279 114 549q117 445 187 903q10 53 17 106q6 41 12 83
q6 33 13 66h2q6 25 20 43q6 8 11.5 12.5t9.5 4.5t9 -3q6 -4 7 -9.5t1 -9.5l-1 -8q-1 -5 -1 -9q0 -6 -1 -12v-8z" />
    <glyph glyph-name="braceright" unicode="}" horiz-adv-x="586" 
d="M240 538q-25 23 -26 36t-1 17q0 19 7 36q23 58 57 111q7 12 15 23q7 13 13 25q52 82 90 168q19 43 19 90q0 60 -78 60h-40q-17 0 -24 13q-2 4 -2 8q0 9 9 15q15 10 34 10q6 0 12 -1q44 -7 82 -28q31 -17 39 -46q8 -24 8 -49q0 -17 -4 -34q-20 -80 -58 -155q0 -1 -1 -2
q-47 -101 -104 -198q-13 -21 -22 -42q-5 -11 -5 -21q0 -17 13 -32q8 -8 8 -16t-9 -15q-1 0 -2 -1q-10 -10 -22 -20q-105 -80 -142 -194q-14 -36 -26 -73q-17 -53 -38 -104q-15 -34 -35 -66q-20 -31 -56 -52q-30 -16 -64 -16q-19 0 -40 5q-10 2 -17 8q-4 4 -4 9v4q1 3 4.5 4
t7.5 1h17q37 0 60 15q26 18 42 47q31 56 55 115q1 3 3 7q28 66 54 132q12 27 23 55q2 6 5 11q1 2 1 4q19 43 51.5 79t90.5 57z" />
    <glyph glyph-name="asciitilde" unicode="~" horiz-adv-x="983" 
d="M397 775h2q66 0 101 -56q2 -5 5 -9q6 -9 11 -18q9 -18 29 -19h11q23 0 47 7q39 12 76 32q55 30 116 45h1q2 1 4 1h1q4 1 7.5 0.5t6.5 -4.5q1 -3 1 -5v-3q-1 -4 -4 -7q-17 -19 -40 -29q-38 -19 -74 -39l-58 -30q-47 -23 -100 -28q-8 -1 -16 -1q-46 0 -77 40l-6 8
q-8 10 -14 20q-11 16 -29 16h-6q-21 0 -41 -6q-62 -17 -119 -44l-88 -38q-9 -4 -19 -5q-13 1 -13 11q0 3 1 7q6 11 15 19q24 24 51 44q82 61 181 86q8 2 17 3q7 1 14 1q3 0 6 1z" />
    <glyph glyph-name="exclamdown" unicode="&#xa1;" horiz-adv-x="729" 
d="M633 1539q-2 -26 -15 -50q-5 -8 -12 -14q-13 -10 -26 -10q-10 0 -20 6q-19 12 -19 33q0 5 1 10q11 41 41 70q8 8 17 8q2 0 5 -1q11 -2 19 -14q8 -17 8 -36q0 -1 1 -2zM114 412q1 15 10 27q53 78 85 166l42 110q40 107 82 213q67 169 152 330q16 28 34 53q15 23 29 46
q2 3 5 6q4 4 9 4q3 0 6 -1q7 -3 7 -11v-4q0 -11 -4 -21l-2 -4q-22 -67 -48 -132q-34 -86 -60 -174q-2 -9 -5 -18q-22 -68 -49 -135q-15 -38 -30 -77q-44 -120 -92 -240q-27 -69 -67 -132q-12 -21 -29 -38q-14 -13 -31 -13q-8 0 -17 3q-27 12 -27 42z" />
    <glyph glyph-name="cent" unicode="&#xa2;" horiz-adv-x="351" 
d="M-153 519l68 49q27 77 70 146q34 54 86 89q30 21 67 25l11 1l10 -1q45 -11 45 -51q0 -6 -1 -12l-3 -12q45 27 95 46v1q6 3 12 4h3q13 0 26 -16q7 -8 9 -14t2 -9q0 -4 -2 -7q-7 -9 -13.5 -13t-12.5 -4q-8 0 -19 4q-3 1 -4 0.5t-2 -1.5q-1 0 -3 -1q-63 -32 -122 -72
q-80 -55 -159 -113q-8 -21 -15 -43q-7 -19 -7 -40q0 -8 1 -16q1 -10 3.5 -12t5.5 -2q4 0 9 1q29 7 54 24q67 42 124.5 94.5t107.5 102.5q31 30 58 56q2 0 3 2q2 1 5 1h2q3 0 5 -3q4 -2 4 -5l-1 -2q-2 -5 -6 -8q-3 -5 -6 -9q-115 -142 -237 -250q-40 -34 -87 -59
q-26 -16 -57 -16q-46 1 -66 46q-12 26 -14 52l-39 -31q-11 -8 -20 -16q-6 -5 -11 -9q-9 -5 -21 -5h-4q-11 3 -20.5 14.5t-9.5 21.5q0 17 9 23q4 4 7 6zM72 674l80 50q1 3 1 5q2 5 2 9t-2 8l-2 1l-2 -1q-3 -1 -4 -2h-1q-42 -31 -72 -70z" />
    <glyph glyph-name="sterling" unicode="&#xa3;" horiz-adv-x="798" 
d="M419 1058q-14 -43 -46.5 -134.5t-36.5 -100.5q-1 -3 -3 -6q-1 -2 -1 -4q0 -6 7 -6h2q28 -1 56 -5q12 -1 24 -6q8 -5 13 -11.5t5 -13.5q-1 -16 -16 -20q-8 -3 -17 -3q-4 0 -9 1q-10 0 -19 1q-26 2 -51 4q-4 1 -7 1q-14 0 -20 -15l-22 -52q-27 -64 -53 -130
q-15 -41 -35 -81q-1 0 -1 -1q-1 -1 -1 -2.5v-2.5v-2q1 -2 3 -2h4h1q19 1 39 1q90 0 181 -23l112 -24q44 -10 88 -19q17 -4 33 -4q9 0 17 1v1l6 1l5 -1q5 0 9 -6q1 -3 1 -6q0 -7 -9 -14q-54 -38 -124 -38q-10 0 -20 1q-78 7 -157 26q-121 28 -240 28h-30q-20 -2 -39 -5
q-8 -1 -17 -2q-2 -1 -4 -1h-5h-6.5t-7.5 6q-2 4 -2 7t1 5q4 5 8 9q20 18 36 40q12 15 25 29q23 29 34 66l30 84q12 34 24 67q5 16 12 31q4 12 9 24q2 5 2 8q0 2 -1 3q-1 2 -10 3h-18q-30 0 -60 -5q-1 -1 -3 -1q-2 -1 -4 -1h-2q-13 0 -13 14q3 17 18 24q26 12 57 13
q15 1 29 1h18q12 0 15 12q4 12 33.5 90t50.5 132q14 39 29 78q50 137 143 248q20 23 44 43q39 30 90 39q9 1 17 1q51 0 89 -50q28 -38 28 -81q0 -6 -1 -13q-2 -23 -18 -39q-10 -11 -23 -11q-8 0 -17 4q-23 12 -25 37v6q0 9 2 17q3 12 3 25q0 6 -1 13q-2 21 -14 30t-24 9
q-6 0 -12 -2q-31 -10 -52 -34q-29 -33 -52 -72q-64 -110 -104 -234z" />
    <glyph glyph-name="currency" unicode="&#xa4;" horiz-adv-x="1091" 
d="M693 812q5 5 11 9q47 33 83 81q3 5 8 10q10 11 23 11q6 0 13 -3q17 -7 19 -25v-4q0 -21 -19 -28q-44 -18 -77 -52q-12 -12 -25 -23q-11 -8 -11 -19q0 -6 3 -13q14 -38 14 -73q0 -23 -6 -45q-17 -55 -56 -105l-1 -2q-10 -12 -12 -16.5t-2 -8.5q0 -3 1 -6q3 -6 13 -17
q12 -13 25 -26l14 -14q4 -4 7 -8q13 -17 13 -29q0 -11 -10 -19q-7 -5 -14 -5q-15 0 -32 20q-24 30 -45 61q-5 10 -8.5 10.5t-5.5 0.5q-5 0 -12 -5q-36 -24 -78 -37q-31 -12 -61 -12q-44 0 -86 27q-8 5 -13 5h-2q-7 -1 -14 -8q-16 -15 -32 -29q-11 -10 -23 -20
q-17 -17 -39 -26q-5 -1 -11 -1h-5q-8 1 -15 9q-4 7 -4 13v3q1 8 4 15q12 19 34 27q18 10 36 21q17 8 35 18q7 3 9.5 7.5t2.5 7.5q0 4 -2 8q-16 48 -16 93q0 28 6 54q16 70 63 133q12 16 12.5 23.5t0.5 9.5q0 11 -10 26l-6 10q-21 32 -50 56q-19 13 -21 36q-1 4 -1 7
q0 16 15 24q6 2 12 2q13 0 21 -12t15 -26l12 -20q15 -20 28 -42q7 -11 15 -22q5 -7 10 -7t10 4q15 12 33 21q24 11 52 11q24 0 52 -9q58 -20 93 -53q1 -1 4 -1zM388 560v-5q2 -9 3 -24q7 -52 59 -64q13 -4 27 -4q9 0 18 2q133 33 174 164q5 17 5 34q0 29 -14 60
q-23 50 -77 70q-15 7 -29 7q-25 0 -48 -20q-43 -37 -77 -84q-41 -55 -41 -136z" />
    <glyph glyph-name="brokenbar" unicode="&#xa6;" horiz-adv-x="632" 
d="M488 1647q2 -8 2 -16q0 -11 -4 -23q-42 -126 -54 -256q-16 -121 -42 -240q-6 -27 -12 -56q-11 -57 -20 -114q-4 -22 -8 -43q-2 -16 -10 -29q-5 -5 -10 -7.5t-13 -2.5h-5q-11 1 -17 5.5t-9 9.5q-5 9 -5 17q0 5 1 9q14 121 52 240q66 194 86 395q2 23 4 47q1 18 3 36
q1 14 6 28q4 11 16 18q6 5 11.5 6.5t11.5 1.5h6q7 -3 8.5 -6t1.5 -6v-14zM287 601q2 -7 2 -15q0 -12 -5 -25q-42 -126 -54 -255q-15 -121 -42 -240q-6 -28 -12 -57q-10 -56 -20 -114q-4 -21 -7 -43q-3 -15 -11 -29q-5 -4 -10 -6.5t-13 -2.5h-5q-10 1 -16 5t-10 9q-5 9 -5 19
q0 4 1 8q15 121 52 240q66 194 86 394q3 23 4 47q1 18 4 36q1 15 6 29q3 11 15 18q6 5 11 6.5t9 1.5t9 -1q7 -2 9 -5t2 -7v-13z" />
    <glyph glyph-name="dieresis" unicode="&#xa8;" horiz-adv-x="532" 
d="M371 1147q20 -1 33.5 -12.5t13.5 -28.5q0 -18 -12.5 -30.5t-29.5 -12.5t-30 13t-15 31q2 17 12 28.5t25 11.5h3zM177 1147q20 -1 33 -12.5t13 -28.5q0 -18 -12.5 -30.5t-29.5 -12.5q-16 0 -29.5 13t-14.5 31q1 17 11.5 28.5t25.5 11.5h3z" />
    <glyph glyph-name="copyright" unicode="&#xa9;" horiz-adv-x="1105" 
d="M188 1457q0 60 25 118q55 138 174 228q101 69 221 69q15 0 31 -1q138 -11 217 -126q54 -88 54 -176q0 -86 -52 -172q-114 -194 -336 -232q-16 -2 -31 -2q-58 0 -112 24q-127 46 -175 172q-16 41 -16 88v10zM250 1447q4 -133 135 -209q50 -31 107 -31q14 0 28 2
q237 44 323 269q17 50 17 98q0 83 -53 159q-54 76 -108.5 84.5t-79.5 8.5q-60 0 -120 -23q-85 -34 -145 -100q-98 -100 -104 -258zM315 1458q1 85 55 151q89 103 224 124q9 1 17 1q26 0 51 -9q52 -20 52 -65q0 -13 -4 -28q-26 -81 -100 -126q-16 -11 -34 -11q-7 0 -15 2
q-6 3 -10.5 7t-6.5 11q0 16 16 20q8 3 18 3h1q76 15 106 84q8 18 8 32q0 35 -51 44q-7 1 -13 1q-22 0 -44 -8q-108 -38 -174 -130q-36 -51 -36 -112q0 -9 1 -18q5 -49 39 -84q31 -31 71 -31q18 0 37 6q50 19 89 58q4 5 9 8q13 12 25 23q3 2 5 2.5t3 0.5q3 0 4 -2q4 -3 4 -8
q0 -2 -1 -4q-3 -7 -7 -14q-44 -61 -111 -95q-36 -15 -68 -15q-63 0 -114 56q-46 54 -46 126z" />
    <glyph glyph-name="guillemotleft" unicode="&#xab;" horiz-adv-x="846" 
d="M247 712q29 -22 53 -48l6 -6q27 -27 57 -53l26 -24q17 -14 22 -35q1 -5 1 -9q0 -22 -24 -22h-5q-17 3 -31 14q-53 37 -102 79q-30 26 -62 48q-14 10 -30 10h-21q-23 3 -30 16t-7 23q0 9 4 19q8 16 23 25q21 14 44 24q2 2 4 3q7 3 14 7q79 37 153 83q29 18 56 40q1 1 3 2
q23 18 38 43q4 8 13 8q10 -2 13 -12q1 -5 1 -10q0 -7 -3 -15q-6 -13 -14 -25l-1 -1q-43 -64 -105 -111l-2 -2q-41 -33 -86 -62q0 -1 -1 -1q-2 -1 -4 -3t-3 -5zM518 712q29 -22 53 -48l6 -6q28 -27 57 -53l26 -24q17 -14 22 -35q1 -5 1 -9q0 -22 -24 -22h-5q-17 3 -31 14
q-53 37 -102 79q-30 26 -62 48q-14 10 -30 10h-21q-22 3 -29.5 16t-7.5 23q0 9 4 19q8 16 23 25q21 14 44 24q2 2 4 3q7 3 14 7q79 37 153 83q30 18 56 40q2 1 3 2q23 18 38 43q4 8 13 8q10 -2 13 -12q2 -5 2 -10q0 -8 -4 -15q-6 -13 -14 -25l-1 -1q-43 -64 -105 -111l-2 -2
q-41 -33 -85 -62q-1 -1 -2 -1q-2 -1 -4 -3t-3 -5z" />
    <glyph glyph-name="registered" unicode="&#xae;" horiz-adv-x="1183" 
d="M562 1155q-88 4 -158.5 31t-123.5 89q-72 90 -72 198v11q5 114 69 215t155 150t179 49q32 0 66 -6q127 -21 215 -128q60 -78 60 -173l-1 -18q-8 -156 -107 -275q-59 -67 -131.5 -100.5t-150.5 -42.5zM552 1200q69 0 130 30q139 59 197 199q19 48 27 100q3 26 3 50
q0 96 -53 165q-66 86 -174 110q-31 5 -60 5q-95 0 -177 -57q-106 -75 -145.5 -167.5t-39.5 -155.5q0 -49 17 -96q39 -91 109.5 -133.5t165.5 -49.5zM513 1470q40 -57 90 -91q24 -16 53 -16h3q23 0 44 -1q8 0 14.5 -3.5t7.5 -13.5v-3q0 -6 -4 -11t-12 -9q-19 -10 -41 -10
q-9 0 -20 2q-50 9 -89 44q-26 27 -48 57q-2 3 -4 7q-8 12 -20 20q-4 -1 -7 -5t-6 -9q-1 -3 -2 -5q-29 -48 -63 -91q-9 -15 -21 -25q-10 -10 -21 -10q-8 0 -16 5q-12 9 -12 21q0 7 4 15q4 6 6 12q18 39 40 77q60 108 140 200q18 23 44 36q7 4 11 4h5q6 0 11 -6q3 -3 3 -7
q0 -2 -1 -4q-2 -6 -5 -12l-2 -1q-26 -45 -52 -89q-2 -3 -3 -4q-2 -5 -4.5 -11t-2.5 -13q17 7 34 16q72 29 128 79q24 23 36 55q6 18 6 32q0 42 -52 58q-21 6 -41 6q-22 0 -44 -7q-98 -23 -161 -102q-7 -8 -11 -18t-4 -22v-4q0 -19 -19 -27q-6 -2 -12 -2q-14 0 -24 13
q-9 11 -9 22q0 9 5 18q4 8 10 13q98 96 232 127q25 6 51 6q29 0 59 -8q67 -23 72 -94v-7q0 -50 -29 -90q-70 -89 -180 -106q-19 -3 -42 -6q-12 -1 -25 -2z" />
    <glyph glyph-name="macron" unicode="&#xaf;" horiz-adv-x="1198" 
d="M97 1113q51 2 247 2q275 0 833 -4q8 0 15 -1q21 0 38 -12q14 -10 14 -23v-2q-1 -14 -17 -24q-15 -8 -33 -8q-21 -1 -136 -1q-229 0 -834 3q-43 2 -85 2q-22 0 -44 1q-29 1 -59 1h-3q-8 0 -16 -4q-7 -4 -16 -4h-5q-11 3 -18 11q-6 8 -6 17v2q0 11 8 20q17 18 42 20
q36 4 66 4h9z" />
    <glyph glyph-name="plusminus" unicode="&#xb1;" horiz-adv-x="651" 
d="M395 959l26 -4q30 -4 59 -7q22 -4 41 -15q15 -8 15 -23v-2q-2 -19 -20 -24q-21 -6 -44 -6q-44 0 -88 4q-6 1 -12 1q-10 1 -14.5 0.5t-7.5 -4t-8 -12.5l-12 -24q-23 -47 -51 -92q-8 -15 -12 -33q-2 -5 -5 -9t-10 -5h-2q-11 0 -17 12q-4 8 -4 17q-1 15 -1 30q0 54 17 106
q1 4 3 8v1q1 3 1 5v2q-1 2 -7 2h-28q-26 0 -52 -4l-8 -2l-14 -2q-4 -1 -7 -1q-13 0 -22 13q-3 6 -3 12q0 10 7 20q14 16 34 24q28 12 58 14q4 1 7 1q33 4 67 4h2q14 0 20 12q20 34 47 61q10 10 22 17q9 5 17 5q11 0 21 -7q13 -11 13 -27q0 -4 -1 -8q-3 -17 -12 -32l-9 -18z
M233 679q122 -2 236 -15q8 -1 15 -1q21 -1 38 -14q12 -11 12 -23v-3q-2 -14 -18 -23q-14 -7 -30 -7h-4q-63 2 -126 9q-42 4 -85 7q-22 1 -43 2q-30 3 -59 4q-3 1 -6 1q-7 0 -13 -4q-7 -3 -14 -3q-4 0 -8 1q-11 3 -17 12q-5 8 -5 16v3q1 11 9 20q18 17 43 17q24 1 45 1h30z
" />
    <glyph glyph-name="uni00B2" unicode="&#xb2;" horiz-adv-x="558" 
d="M243 544q29 -6 56 -17q32 -11 59 -33q10 -8 23 -15q16 -8 33 -8q11 0 22 3l14 4q3 2 6 2q4 0 7 -4t3 -8t-2 -8q-4 -7 -11 -12q-40 -28 -87 -28q-11 0 -22 1q-3 1 -6 1q-32 5 -61 17q-40 17 -82 17q-17 0 -35 -3q-15 -2 -29 -4q-6 -1 -13 -2q-2 -1 -4 -1q-4 -1 -8 -1
q-21 0 -28 11t-7 20q0 8 4 17q8 14 21 23q20 14 44 21q12 3 22 10q16 14 33 27q66 49 127 105q32 30 59 63q10 13 16 29q2 7 2 12q0 15 -18 20q-10 4 -20 4h-4q-59 -7 -105 -45q-22 -17 -26 -45q0 -14 -14 -18q-2 -1 -5 -1q-4 0 -8 3q-5 3 -9 9q-13 20 -13 42q0 12 4 24
q11 43 45 70q62 50 141 50h9q30 -1 56 -17q42 -28 42 -73q0 -14 -4 -29q-13 -40 -44 -69q-79 -81 -169 -149q-6 -5 -13 -11v-2q-1 -1 -1 -2z" />
    <glyph glyph-name="uni00B3" unicode="&#xb3;" horiz-adv-x="604" 
d="M447 845q52 -35 52 -90q0 -14 -3 -30q-6 -28 -19 -54q-61 -126 -185 -193q-46 -25 -95 -25q-22 0 -45 5q-16 4 -29 11q-27 15 -32 45q-2 15 -2 29q0 27 7 53q10 39 34 73q10 17 28 25q3 1 5 1q6 0 6 -8q-2 -18 -10 -33q-16 -34 -22 -70q-1 -10 -1 -21q0 -10 1 -21
q2 -14 16 -14h9q23 0 43 9q147 60 210 206q6 12 6 26v4q-1 12 -13 12h-2q-24 -1 -44 -15q-20 -17 -42 -30q-20 -12 -43 -15h-5q-19 0 -29 13q-6 8 -6 18q0 8 4 18q9 18 24 32q20 19 43 35q38 28 74 60q29 26 47 61q7 14 7 23q0 18 -30 18h-4q-9 0 -18 -3q-57 -18 -87 -70
l-1 -1q-1 -3 -3 -5q-11 -16 -22 -16t-23 15q-9 16 -9 34q0 7 1 14q4 25 21 44q47 61 123 74q10 1 19 1q36 0 68 -17q49 -28 49 -82q0 -7 -1 -14q-8 -52 -40 -93q-10 -13 -21 -26q-5 -7 -11 -13z" />
    <glyph glyph-name="acute" unicode="&#xb4;" horiz-adv-x="350" 
d="M276 1218q13 -1 24.5 -13t16.5 -30q2 -10 2 -18q0 -23 -19 -31q-32 -8 -60 -24q-4 -3 -9 -6q-70 -36 -139 -73q-13 -7 -27 -10h-7q-3 2 -5 7q-2 4 -2 7v2q2 4 5 5q12 10 24 19q11 9 22 17q13 10 26 19q69 46 121 117q8 13 22 13q2 0 5 -1z" />
    <glyph glyph-name="paragraph" unicode="&#xb6;" horiz-adv-x="902" 
d="M102 316h-4q-3 1 -7 1q1 1 1 2q0 7 6 15q14 20 20 39q1 0 1 1l4 10q16 40 32 81l14 36q19 47 34 92l38 128q26 85 53 172q3 11 7 23q6 19 12 37q1 3 1 5q0 6 -7 6h-2q-8 -1 -16 -1q-19 0 -36 4l-16 2q-90 10 -131 69q-16 26 -16 56q0 28 14 58q28 64 89 121.5t126 89.5
q73 36 141 50q38 8 74 11q52 5 100 5q103 0 191 -22q41 -12 53 -48q2 -4 2 -10q-1 -7 -7.5 -12.5t-15.5 -5.5q-15 1 -24 8q-27 16 -67 16q-16 0 -32 1h-18q-1 0 -2 1q-3 0 -5.5 -0.5t-6.5 -2.5q-2 -2 -2.5 -4t-0.5 -4v-2q-15 -111 -53 -229q-27 -85 -57 -170
q-21 -61 -41 -122l-90 -274q-24 -71 -69 -145q-26 -46 -80 -76q-9 -5 -14 -6.5t-8 -1.5t-6 1q-3 2 -3 4t1 3q1 4 4 8q2 2 3 4l14 24q15 21 24 42q27 65 46 129q44 150 96 302q70 198 124 392q9 33 17 65q6 25 13 51q1 3 1 5q0 7 -9 7h-3q-25 -2 -49 -2q-12 -1 -25 -1h-1
q-8 0 -17 -4q-5 -7 -6 -13v-4q-11 -42 -24 -85q-27 -86 -54 -171q-59 -186 -117 -371q-45 -139 -109 -283q-11 -25 -30 -50q-27 -41 -75 -57zM323 1028h10q4 4 5.5 7t1.5 6q1 1 1 2q39 117 78 233l16 48q0 1 1 2q1 3 2 5q1 3 1 5q0 4 -5 4l-4 -1q-74 -13 -150 -61
q-90 -60 -106 -132q-1 -10 -1 -19q0 -48 37 -73q46 -26 113 -26z" />
    <glyph glyph-name="periodcentered" unicode="&#xb7;" horiz-adv-x="369" 
d="M177 695q20 -2 33.5 -13t13.5 -28q0 -18 -12.5 -30.5t-29.5 -12.5t-30 13t-15 31q2 17 12 28.5t25 11.5h3z" />
    <glyph glyph-name="periodcentered" unicode="&#x2219;" horiz-adv-x="369" 
d="M177 695q20 -2 33.5 -13t13.5 -28q0 -18 -12.5 -30.5t-29.5 -12.5t-30 13t-15 31q2 17 12 28.5t25 11.5h3z" />
    <glyph glyph-name="cedilla" unicode="&#xb8;" horiz-adv-x="375" 
d="M85 232q43 -27 78 -27q33 0 47.5 11t14.5 34t-25 32q-20 9 -52 9q-8 0 -17 -1l24 89h32l-18 -53q16 2 31 3q44 0 68.5 -20.5t24.5 -58.5t-30 -60.5t-82 -22.5q-55 0 -96 16v49z" />
    <glyph glyph-name="uni00B9" unicode="&#xb9;" horiz-adv-x="617" 
d="M283 865q-25 2 -25 15q0 8 10 20q9 12 17 24q25 33 48 68q20 30 37 61q5 10 12 19q12 15 29 15q5 0 10 -1q24 -6 29 -31q2 -5 2 -11q0 -5 -2 -11q-3 -16 -9 -30q-35 -79 -68 -160q-36 -91 -76 -180q-11 -24 -23 -48q-8 -16 -23 -26q-11 -7 -23 -7q-9 0 -18 5
q-19 9 -23 34v7q0 14 7 28q5 12 10 23q17 35 32 71q17 38 33 77q5 13 11 26q0 1 1 2q1 3 1.5 5t0.5 5z" />
    <glyph glyph-name="ordmasculine" unicode="&#xba;" horiz-adv-x="467" 
d="M295 925q1 6 0.5 11t-1.5 9q-1 5 -1 9v5q0 23 16 25h2q14 0 22 -14q26 -40 38 -95q3 -12 3 -25v-7q-22 -249 -152 -354q-26 -22 -52 -22q-10 0 -21 4q-44 19 -44 89q0 9 1 18q20 204 137 326q22 21 46 21h6zM190 579q22 16 36 38q70 114 79 259v3q0 10 -4 10q-2 0 -5 -3
q-7 -8 -13 -19q-56 -92 -83 -206q-10 -38 -10 -82z" />
    <glyph glyph-name="guillemotright" unicode="&#xbb;" horiz-adv-x="836" 
d="M576 712q-1 3 -3 5t-4 3q-1 0 -1 1q-45 29 -86 62l-2 2q-62 47 -105 111l-1 1q-8 12 -14 25q-3 8 -3 15q0 5 1 10q3 10 13 12q9 0 13 -8q15 -25 39 -43l2 -2q27 -22 56 -40q74 -46 153 -83q7 -4 14 -7q2 -1 4 -3q23 -10 44 -24q15 -9 23 -25q5 -10 5 -20q0 -9 -7.5 -22
t-30.5 -16h-21q-16 0 -29 -10q-33 -22 -63 -48q-49 -42 -101 -79q-15 -11 -32 -14h-5q-24 0 -24 23q0 4 1 8q5 21 22 35q13 12 27 24q29 26 56 53l6 6q24 26 53 48zM305 712q-1 3 -3 5t-4 3q-1 0 -1 1q-45 29 -86 62l-2 2q-62 47 -105 111l-1 1q-8 12 -14 25q-3 8 -3 15
q0 5 1 10q3 10 13 12q9 0 13 -8q15 -25 38 -43q2 -1 3 -2q27 -22 56 -40q74 -46 153 -83q7 -4 14 -7q2 -1 4 -3q23 -10 44 -24q15 -9 23 -25q4 -10 4 -19q0 -10 -7 -23t-30 -16h-21q-16 0 -30 -10q-32 -22 -62 -48q-49 -42 -102 -79q-14 -11 -31 -14h-5q-24 0 -24 22
q0 4 1 9q5 21 22 35l26 24q29 26 57 53l6 6q24 26 53 48z" />
    <glyph glyph-name="onequarter" unicode="&#xbc;" horiz-adv-x="567" 
d="M-116 224q1 25 16 46q5 9 11 18q45 66 89 132q248 375 512 740q70 96 148 187v1l18 20q13 11 24 11q8 0 16 -5q10 -6 12 -13t2 -10q0 -8 -4 -16q-10 -22 -24.5 -41t-39.5 -27q-4 -1 -6 -3.5t-4 -5.5q-2 -2 -3 -4q-94 -120 -180 -246q-237 -346 -463 -700q-16 -25 -31 -50
q-8 -12 -16 -25q-14 -20 -36 -33q-9 -6 -17 -6q-6 0 -12 4q-12 8 -12 26zM159 1166q-25 2 -25 15q0 8 10 21q9 12 17 23q25 33 48 68q20 30 37 61q5 10 12 19q12 16 31 16q4 0 8 -1q24 -7 29 -32q2 -5 2 -11q0 -5 -2 -11q-3 -15 -9 -30q-35 -79 -67 -160q-37 -90 -77 -180
q-11 -24 -23 -48q-7 -16 -22 -26q-12 -7 -23 -7q-10 0 -19 5q-19 9 -23 34v7q0 15 7 28q5 12 10 23q17 35 32 71q17 39 33 78q5 12 11 25q0 1 1 3t1.5 4.5t0.5 4.5zM401 327q-7 1 -14 1q-10 0 -21 -2q-3 0 -6 -1q-17 -1 -35 -1h-36q-19 0 -38 -1h-14q-30 2 -39.5 19t-9.5 29
q0 13 6 26q9 16 24 28q17 15 35 31q35 31 69 61q62 55 121 113q30 28 55 62q8 13 21 13q2 0 5 -1q17 -5 19 -26q0 -19 -9 -35q-16 -35 -38 -65q-34 -46 -75 -86q-28 -27 -57 -54q-12 -12 -24 -23l-14 -14q2 -4 4 -4h3h4q20 0 39 1q26 2 53 3q6 0 9 3t5 8h1q5 10 10 21
q17 33 35 66q21 40 47 78q10 15 23 26q12 10 24 10q9 0 18 -6q12 -10 12 -23q0 -9 -5 -19q-4 -9 -10 -18q-3 -6 -7 -12q-8 -16 -17 -31q-63 -112 -117 -229q-13 -28 -23 -58q-16 -41 -41 -77q-6 -9 -15 -9h-4q-12 4 -13 17v2q-2 14 -2 27q0 17 3 33q13 49 33 97l2 4
q4 7 4 16z" />
    <glyph glyph-name="onehalf" unicode="&#xbd;" horiz-adv-x="567" 
d="M-116 224q1 25 16 46q5 9 11 18q45 66 89 132q248 375 512 740q70 96 148 187v1l18 20q13 11 24 11q8 0 16 -5q10 -6 12 -13t2 -10q0 -8 -4 -16q-10 -22 -24.5 -41t-39.5 -27q-4 -1 -6 -3.5t-4 -5.5q-2 -2 -3 -4q-94 -120 -180 -246q-237 -346 -463 -700q-16 -25 -31 -50
q-8 -12 -16 -25q-14 -20 -36 -33q-9 -6 -17 -6q-6 0 -12 4q-12 8 -12 26zM159 1166q-25 2 -25 15q0 8 10 21q9 12 17 23q25 33 48 68q20 30 37 61q5 10 12 19q12 16 31 16q4 0 8 -1q24 -7 29 -32q2 -5 2 -11q0 -5 -2 -11q-3 -15 -9 -30q-35 -79 -67 -160q-37 -90 -77 -180
q-11 -24 -23 -48q-7 -16 -22 -26q-12 -7 -23 -7q-10 0 -19 5q-19 9 -23 34v7q0 15 7 28q5 12 10 23q17 35 32 71q17 39 33 78q5 12 11 25q0 1 1 3t1.5 4.5t0.5 4.5zM368 297q28 -7 56 -17q32 -11 58 -33q11 -9 23 -15q16 -9 34 -9q11 0 22 4l14 4q3 1 5 1q4 0 8 -3
q3 -4 3 -9q0 -3 -2 -7q-4 -7 -11 -12q-40 -28 -87 -28q-11 0 -22 1q-3 0 -6 1q-32 5 -62 17q-40 17 -81 17q-17 0 -35 -3q-15 -2 -29 -5q-7 -1 -13 -2h-4q-4 -1 -9 -2q-20 1 -27 12t-7 20q0 8 4 17q7 14 21 23q20 14 44 21q12 3 21 10q17 13 34 27q66 49 127 105
q31 29 58 63q11 13 17 29q2 6 2 11q0 15 -19 21q-8 4 -16 4q-4 0 -7 -1q-59 -6 -105 -44q-22 -17 -26 -45q-1 -15 -14 -19h-4q-5 0 -9 2q-5 4 -9 10q-13 21 -13 43q0 11 3 23q12 43 46 70q64 50 144 50h6q30 -2 56 -18q42 -28 42 -72q0 -14 -4 -29q-13 -40 -44 -69
q-79 -81 -169 -150q-7 -5 -13 -10q0 -1 -1 -2v-2z" />
    <glyph glyph-name="threequarters" unicode="&#xbe;" horiz-adv-x="566" 
d="M-116 224q1 25 15 46l100 150q249 375 513 740q70 96 147 187q0 1 1 1q8 10 18 20q12 11 24 11q8 0 16 -5q9 -6 11 -13t2 -11q0 -7 -3 -15q-11 -22 -25.5 -41t-39.5 -27q-3 -1 -5.5 -3.5t-4.5 -5.5q-1 -2 -3 -4q-94 -120 -180 -246q-236 -346 -462 -700l-32 -50
q-8 -12 -15 -25q-15 -20 -36 -33q-9 -6 -17 -6q-7 0 -12 4q-12 7 -12 23v3zM401 327q-7 1 -14 1q-11 0 -21 -2q-4 0 -7 -1q-17 -1 -34 -1h-36q-19 0 -38 -1h-15q-30 2 -39.5 19t-9.5 29q0 13 6 26q10 16 24 28q18 15 36 31q34 31 68 61q62 55 122 113q30 28 54 62
q8 13 21 13q2 0 5 -1q17 -5 19 -26v-4q0 -17 -8 -31q-16 -35 -39 -65q-33 -46 -74 -86q-28 -27 -57 -54q-12 -12 -24 -23q-8 -7 -15 -14q2 -4 4 -4h3h5q19 0 38 1q27 2 54 3q6 0 8.5 3t5.5 8q5 10 10 21q18 33 35 66q21 40 47 78q10 15 23 26q13 10 25 10q9 0 17 -6
q13 -10 13 -24q0 -8 -5 -18l-10 -18q-4 -6 -7 -12q-9 -16 -17 -31q-63 -112 -117 -229q-13 -28 -24 -58q-15 -41 -41 -77q-5 -9 -15 -9h-4q-12 4 -12 17q-1 1 -1 2q-2 13 -2 27q0 16 3 33q14 49 34 97l2 4q4 7 4 16zM193 1153q53 -35 53 -89q0 -15 -4 -31q-6 -28 -18 -53
q-62 -127 -186 -193q-45 -25 -94 -25q-23 0 -46 5q-15 3 -29 11q-26 14 -32 44q-2 15 -2 29q0 27 7 53q10 40 34 73q10 17 28 25q3 1 6 1q5 0 5 -8q-1 -17 -10 -33q-16 -33 -22 -70q-1 -9 -1 -18q0 -12 2 -24q2 -14 16 -14h5q24 0 47 9q146 61 209 206q6 12 6 26v4
q-1 13 -13 13h-2q-24 -1 -44 -16q-20 -16 -42 -30q-20 -12 -43 -15h-3q-21 0 -30 13q-6 8 -6 18q0 8 4 18q8 19 23 32q21 19 43 35q38 29 74 61q30 25 47 60q7 14 7 23q0 18 -28 18h-6q-9 0 -18 -3q-57 -18 -87 -69q0 -1 -1 -2q-1 -2 -2 -5q-11 -16 -23 -16q-11 0 -22 15
q-10 16 -10 35q0 6 1 13q5 25 21 45q47 60 123 73q11 2 21 2q35 0 66 -18q49 -28 49 -81q0 -7 -1 -14q-8 -52 -40 -93q-10 -14 -21 -27q-5 -6 -11 -13z" />
    <glyph glyph-name="questiondown" unicode="&#xbf;" horiz-adv-x="1036" 
d="M923 1555q-1 -27 -14 -51q-5 -8 -12 -13q-13 -10 -27 -10q-10 0 -20 5q-18 12 -18 32q0 5 1 11q11 41 41 71q8 7 17 7h4q12 -3 20 -15q8 -16 8 -35v-2zM247 352h-7q-42 0 -83 12q-76 23 -98 99q-4 16 -4 32q0 21 7 42q17 50 48 93q53 71 122 126q74 61 188 164t213.5 216
t128.5 204q4 12 4 25q0 8 -2 17q0 1 -1 3q-1 3 -1 6v2q0 13 11 13q3 0 7 -1q44 -17 49.5 -46t5.5 -42q0 -30 -14 -58q-67 -124 -152.5 -206.5t-189.5 -161.5q-23 -19 -48 -38q-20 -16 -41 -33q-58 -44 -113 -92q-69 -59 -113 -139q-16 -30 -22 -64q-1 -8 -1 -15
q0 -48 52 -62q30 -6 60 -6q40 0 80 11q67 17 128 50q85 46 132 132q38 72 56 151q4 15 4 30q0 13 -3 26q-2 7 -2 13q0 13 10 18q5 2 10 2q12 0 24 -12q19 -23 22 -52q3 -19 3 -38q0 -32 -8 -64q-44 -213 -242 -303q-81 -39 -170 -51q-25 -3 -50 -3z" />
    <glyph glyph-name="Agrave" unicode="&#xc0;" horiz-adv-x="1483" 
d="M1103 633q-10 4 -20 4h-53q-139 0 -279 -9q-140 -10 -279 -22l-36 -4q-24 -3 -49 -5q-13 0 -20 -12q-17 -30 -35 -60q-3 -4 -3 -7v-2q0 -4 6 -8q14 -9 26 -21q48 -45 48 -103q0 -24 -9 -51q-12 -38 -35 -71q-39 -57 -89 -105q-58 -55 -124 -101q-22 -15 -45 -26
q-17 -8 -36 -9q-38 2 -38 37v5q3 17 11 32q17 35 38 68q92 148 178 299q3 3 5 6q3 5 3 7v2q0 2 -3 4q-3 3 -13 7q-64 26 -133 36q-77 12 -156 16h-21q-46 0 -93 -7q-5 -1 -11 -1q-38 -5 -77 -9h-8q-8 0 -17 1q-15 1 -26 11q-12 13 -12 26v6q4 17 23 27q16 6 32 7
q101 10 202 26q106 17 212 27q102 8 204 15q17 1 26 16q146 236 319 457q122 155 266 294q48 48 104 87q36 26 77 42q31 12 64 12h10q73 -7 107 -70q26 -52 28 -111q1 -21 1 -42q0 -90 -21 -179q-54 -239 -131 -474l-2 -6l-4 -16q-2 -6 -2 -9v-1q1 -3 10 -4q45 -7 88 -19
q15 -4 29 -10q4 -1 5.5 -2.5t1.5 -4.5v-2q-1 -5 -4.5 -5.5t-6.5 -0.5q-24 2 -47 4q-21 2 -43 4q-6 1 -13 1q-10 0 -20 1q-2 1 -4 1q-11 0 -14 -13q-16 -52 -33 -103q-30 -89 -59 -179l-126 -380q-13 -38 -40 -68q-7 -9 -16 -15q-10 -8 -21 -8q-8 0 -17 5q-13 8 -13 22
q0 5 1 10l6 30q6 29 15 57l146 442q7 22 14 43q18 53 35 107q6 17 12 35q1 5 3 11q0 2 1 5zM425 677v-3q3 -1 6 -1h5q27 1 53 3q56 3 111 4q116 6 231 6q135 0 270 -8h12q4 0 6 3.5t4 10.5q2 8 5 15q16 53 33 105q62 199 108 402q19 88 19 178v24q-1 32 -10 63
q-16 48 -64 48q-9 0 -18 -1q-46 -9 -86 -33q-57 -35 -104 -80q-118 -107 -221 -229q-197 -237 -356 -499l-1 -1q-2 -2 -2.5 -3.5t-0.5 -3.5zM82 74l10 6q9 7 18 13q58 45 111 97q50 50 88 110q20 30 29 66q2 11 2 22q0 41 -35 68q-5 4 -8 4q-4 0 -6 -6q-3 -5 -6 -9
q-1 -3 -3 -5q-79 -142 -161 -283q-16 -28 -31 -57q-1 -3 -2 -5q-1 -1 -1 -2q-3 -4 -4 -7.5t-1 -7.5v-4zM188 573q55 -16 106 -40q3 -2 5 -2q1 0 2 1q3 2 4 6q4 5 7 11q10 15 19 31l1 1q2 2 2 4v3t-1 4q-2 0 -3 -1q-70 -6 -142 -18zM1127 1882q3 1 5 1q13 0 21 -13
q53 -71 121 -117l26 -20l22 -16l24 -20q4 -1 4.5 -3t0.5 -3q0 -3 -2 -7q-2 -5 -4.5 -6.5t-4.5 -1.5h-3q-14 4 -26 10l-140 74q-5 3 -9 5q-28 16 -60 24q-19 9 -19 32q0 8 2 18q5 17 16.5 29t25.5 14z" />
    <glyph glyph-name="Aacute" unicode="&#xc1;" horiz-adv-x="1483" 
d="M1103 633q-10 4 -20 4h-53q-139 0 -279 -9q-140 -10 -279 -22l-36 -4q-24 -3 -49 -5q-13 0 -20 -12q-17 -30 -35 -60q-3 -4 -3 -7v-2q0 -4 6 -8q14 -9 26 -21q48 -45 48 -103q0 -24 -9 -51q-12 -38 -35 -71q-39 -57 -89 -105q-58 -55 -124 -101q-22 -15 -45 -26
q-17 -8 -36 -9q-38 2 -38 37v5q3 17 11 32q17 35 38 68q92 148 178 299q3 3 5 6q3 5 3 7v2q0 2 -3 4q-3 3 -13 7q-64 26 -133 36q-77 12 -156 16h-21q-46 0 -93 -7q-5 -1 -11 -1q-38 -5 -77 -9h-8q-8 0 -17 1q-15 1 -26 11q-12 13 -12 26v6q4 17 23 27q16 6 32 7
q101 10 202 26q106 17 212 27q102 8 204 15q17 1 26 16q146 236 319 457q122 155 266 294q48 48 104 87q36 26 77 42q31 12 64 12h10q73 -7 107 -70q26 -52 28 -111q1 -21 1 -42q0 -90 -21 -179q-54 -239 -131 -474l-2 -6l-4 -16q-2 -6 -2 -9v-1q1 -3 10 -4q45 -7 88 -19
q15 -4 29 -10q4 -1 5.5 -2.5t1.5 -4.5v-2q-1 -5 -4.5 -5.5t-6.5 -0.5q-24 2 -47 4q-21 2 -43 4q-6 1 -13 1q-10 0 -20 1q-2 1 -4 1q-11 0 -14 -13q-16 -52 -33 -103q-30 -89 -59 -179l-126 -380q-13 -38 -40 -68q-7 -9 -16 -15q-10 -8 -21 -8q-8 0 -17 5q-13 8 -13 22
q0 5 1 10l6 30q6 29 15 57l146 442q7 22 14 43q18 53 35 107q6 17 12 35q1 5 3 11q0 2 1 5zM425 677v-3q3 -1 6 -1h5q27 1 53 3q56 3 111 4q116 6 231 6q135 0 270 -8h12q4 0 6 3.5t4 10.5q2 8 5 15q16 53 33 105q62 199 108 402q19 88 19 178v24q-1 32 -10 63
q-16 48 -64 48q-9 0 -18 -1q-46 -9 -86 -33q-57 -35 -104 -80q-118 -107 -221 -229q-197 -237 -356 -499l-1 -1q-2 -2 -2.5 -3.5t-0.5 -3.5zM82 74l10 6q9 7 18 13q58 45 111 97q50 50 88 110q20 30 29 66q2 11 2 22q0 41 -35 68q-5 4 -8 4q-4 0 -6 -6q-3 -5 -6 -9
q-1 -3 -3 -5q-79 -142 -161 -283q-16 -28 -31 -57q-1 -3 -2 -5q-1 -1 -1 -2q-3 -4 -4 -7.5t-1 -7.5v-4zM188 573q55 -16 106 -40q3 -2 5 -2q1 0 2 1q3 2 4 6q4 5 7 11q10 15 19 31l1 1q2 2 2 4v3t-1 4q-2 0 -3 -1q-70 -6 -142 -18zM1308 1882q13 -2 24.5 -14t16.5 -29
q2 -10 2 -18q0 -23 -19 -32q-32 -8 -60 -24q-4 -2 -9 -5q-70 -37 -139 -74q-13 -6 -27 -10h-2q-2 0 -5 1q-3 2 -5 7q-2 4 -2 7v2q2 3 5 4l24 20l22 16l26 20q69 46 121 117q8 13 22 13q2 0 5 -1z" />
    <glyph glyph-name="Acircumflex" unicode="&#xc2;" 
d="M1105 633q-11 4 -20 4h-54q-139 0 -279 -9q-139 -10 -279 -22q-17 -2 -35 -4q-25 -3 -49 -5q-14 0 -21 -12q-17 -30 -35 -60q-3 -4 -3 -7v-2q0 -4 6 -8q14 -9 27 -21q47 -45 47 -103q0 -24 -8 -51q-13 -38 -36 -71q-39 -57 -89 -105q-58 -55 -124 -101q-21 -15 -45 -26
q-17 -8 -35 -9q-39 2 -39 37v5q3 17 11 32q17 35 39 68q91 148 178 299l4 6q3 5 4 7v2q0 2 -3 4q-4 3 -14 7q-63 26 -132 36q-78 12 -157 16h-21q-46 0 -93 -7q-5 -1 -10 -1q-39 -5 -77 -9h-9q-8 0 -17 1q-15 1 -26 11q-12 12 -12 25q0 3 1 7q3 17 22 27q16 6 33 7
q101 10 201 26q106 17 212 27q102 8 204 15q18 1 26 16q147 236 319 457q123 155 266 294q49 48 105 87q35 26 76 42q32 12 65 12h9q74 -7 107 -70q26 -52 28 -111q1 -24 1 -47q0 -87 -20 -174q-54 -239 -131 -474l-2 -6q-3 -8 -5 -16q-2 -6 -2 -9v-1q2 -3 10 -4
q45 -7 89 -19q15 -4 29 -10q3 -1 5 -2.5t2 -4.5v-2q-1 -5 -4.5 -5.5t-7.5 -0.5q-23 2 -47 4l-42 4q-7 1 -14 1q-10 0 -19 1l-5 1q-11 0 -14 -13q-15 -52 -33 -103q-29 -89 -59 -179q-63 -190 -125 -380q-13 -38 -40 -68q-8 -9 -16 -15q-11 -8 -21 -8q-9 0 -17 5
q-14 8 -14 22q0 5 1 10q4 15 7 30q6 29 14 57q74 221 147 442q7 22 14 43q17 53 34 107q6 17 12 35q2 5 3 11q1 2 2 5zM426 674q3 -1 7 -1h5q26 1 53 3q55 3 110 4q116 6 231 6q135 0 270 -8h13q3 0 5 3.5t4 10.5q3 8 5 15q17 53 33 105q63 199 108 402q19 88 19 178v24
q-1 32 -9 63q-17 48 -65 48q-9 0 -18 -1q-46 -9 -86 -33q-56 -35 -104 -80q-118 -107 -221 -229q-197 -237 -356 -499q0 -1 -1 -1q-1 -2 -2 -4.5t-1 -5.5zM84 80v-6q5 3 9 6q10 7 18 13q59 45 111 97q50 50 88 110q20 30 29 66q3 12 3 23q0 40 -36 67q-4 4 -8 4q-3 0 -6 -6
q-3 -5 -5 -9q-2 -3 -3 -5q-79 -142 -162 -283q-16 -28 -30 -57q-2 -3 -3 -5q-1 -1 -1 -2q-2 -4 -3 -7t-1 -6zM190 573q55 -16 105 -40q3 -2 5 -2t3 1q2 2 4 6q3 5 7 11q9 15 18 31q1 0 1 1q2 2 3 4v2q0 2 -2 5q-1 0 -3 -1q-70 -6 -141 -18zM1275 1809q-4 -2 -7 -5t-5 -6
l-2 -2q-31 -37 -59 -75q-9 -13 -19 -26q-19 -26 -43 -50h-1q-6 -7 -15 -11q-4 -2 -7 -2q-4 0 -8 3q-5 4 -5 9q0 3 1 5q3 9 7 17q57 116 130 225q2 4 4 7q5 8 10 14q14 20 37 20q5 0 9 -1q30 -7 34 -35q11 -61 28 -121q5 -21 10 -41q8 -28 22 -55q7 -13 7 -27q0 -9 -3 -19
q-2 -7 -6 -12q-9 -9 -18 -9q-8 0 -17 6q-17 14 -26 34q-22 45 -36 92l-14 44q-4 10 -8 21z" />
    <glyph glyph-name="Atilde" unicode="&#xc3;" 
d="M1103 633q-10 4 -20 4h-53q-139 0 -279 -9q-140 -10 -279 -22q-18 -2 -35 -4q-25 -3 -49 -5q-14 0 -21 -12q-17 -30 -35 -60q-3 -4 -3 -7v-2q0 -4 6 -8q14 -9 26 -21q48 -45 48 -103q0 -24 -9 -51q-12 -38 -35 -71q-39 -57 -89 -105q-58 -55 -124 -101q-22 -15 -45 -26
q-17 -8 -36 -9q-38 2 -38 37v5q3 17 11 32q17 35 38 68q92 148 179 299l4 6q3 5 3.5 8t-3 5.5t-13.5 6.5q-64 26 -133 36q-77 12 -156 16h-21q-46 0 -93 -7q-5 -1 -11 -1q-38 -5 -77 -9h-8q-8 0 -17 1q-15 1 -26 11q-12 13 -12 26v6q4 17 23 27q16 6 32 7q102 10 202 26
q106 17 212 27q102 8 204 15q17 1 26 16q147 236 319 457q123 155 266 294q48 48 104 87q36 26 77 42q32 12 65 12h9q74 -7 107 -70q26 -52 28 -111q1 -21 1 -43q0 -89 -20 -178q-55 -239 -131 -474q-1 -3 -3 -6l-4 -16q-2 -6 -2 -9v-1q1 -3 10 -4q45 -7 89 -19
q14 -4 29 -10q3 -1 5 -3t2 -6q-2 -5 -5.5 -5.5t-6.5 -0.5q-24 2 -47 4q-21 2 -43 4q-6 1 -13 1q-10 0 -19 1l-5 1q-11 0 -14 -13q-16 -52 -33 -103q-30 -89 -59 -179l-126 -380q-12 -38 -40 -68q-7 -9 -16 -15q-10 -8 -21 -8q-8 0 -17 5q-13 8 -13 22q0 5 1 10q3 15 7 30
q5 29 14 57l146 442q7 22 14 43q18 53 35 107q6 17 12 35q1 5 3 11q1 2 1 5zM425 674q3 -1 6 -1h5q27 1 53 3q56 3 111 4q116 6 231 6q135 0 270 -8h12q4 0 6 3.5t4 10.5q2 8 5 15q17 53 33 105q62 199 108 402q19 88 19 178v24q-1 32 -10 63q-16 48 -64 48q-9 0 -18 -1
q-46 -9 -86 -33q-56 -35 -104 -80q-118 -107 -221 -229q-197 -237 -356 -499l-1 -1q-2 -2 -2.5 -4.5t-0.5 -5.5zM83 74q5 3 9 6q10 7 18 13q58 45 111 97q50 50 88 110q20 30 29 66q3 12 3 23q0 40 -36 67q-5 4 -8 4t-6 -6q-3 -5 -6 -9q-1 -3 -2 -5q-80 -142 -162 -283
q-16 -28 -31 -57q-1 -3 -2 -5q-1 -1 -1 -2q-3 -4 -4 -7t-1 -6t1 -6zM189 573q54 -16 105 -40q3 -2 5 -2q1 0 2 1q3 2 5 6q3 5 6 11q10 15 19 31l1 1q2 2 2 4v3t-1 4q-2 0 -3 -1q-70 -6 -141 -18zM1210 1855h2q45 0 69 -56q2 -5 4 -9q4 -9 7 -18q7 -18 20 -19h8q16 0 32 7
q28 12 53 32q38 30 80 45h1q1 1 2 1h1q3 1 5.5 0.5t4.5 -4.5l1 -4l-1 -4q0 -4 -2 -7q-12 -19 -28 -29q-26 -19 -51 -39l-40 -30q-32 -23 -69 -28q-6 -1 -11 -1q-32 0 -53 40l-14 28q-7 16 -20 16h-4q-15 0 -29 -6q-42 -17 -81 -44q-30 -19 -61 -38q-6 -4 -13 -5q-9 1 -9 10
q0 3 1 8q3 11 10 19q16 24 35 44q57 61 125 86q6 2 11 3t10 1q2 0 4 1z" />
    <glyph glyph-name="Adieresis" unicode="&#xc4;" 
d="M1104 633q-11 4 -20 4h-54q-139 0 -278 -9q-140 -10 -279 -22l-36 -4q-24 -3 -49 -5q-13 0 -20 -12q-17 -30 -35 -60q-3 -4 -3 -7v-3.5t6 -6.5q14 -9 26 -21q48 -45 48 -103q0 -24 -9 -51q-12 -38 -36 -71q-38 -57 -88 -105q-58 -55 -124 -101q-22 -15 -45 -26
q-17 -8 -36 -9q-38 2 -38 37v5q3 17 11 32q17 35 38 68q92 148 178 299q3 3 4 6q4 5 4 7v2q0 2 -3 4q-3 3 -13 7q-64 26 -133 36q-77 12 -156 16h-21q-46 0 -93 -7q-6 -1 -11 -1q-38 -5 -77 -9h-9q-8 0 -16 1q-15 1 -26 11q-12 13 -12 26v6q3 17 23 27q16 6 32 7
q101 10 202 26q105 17 212 27q102 8 204 15q17 1 26 16q146 236 318 457q123 155 267 294q48 48 104 87q36 26 76 42q32 12 65 12h9q74 -7 108 -70q26 -52 28 -111q1 -21 1 -42q0 -90 -21 -179q-54 -239 -131 -474l-2 -6q-2 -8 -5 -16q-1 -5 -1 -8v-2q1 -3 10 -4
q45 -7 88 -19q15 -4 29 -10q3 -1 5 -2.5t2 -4.5v-2q-1 -5 -4.5 -5.5t-6.5 -0.5q-24 2 -47 4q-21 2 -43 4q-7 1 -13 1q-10 0 -20 1q-2 1 -4 1q-11 0 -14 -13q-16 -52 -33 -103q-30 -89 -59 -179l-126 -380q-13 -38 -40 -68q-7 -9 -16 -15q-10 -8 -21 -8q-8 0 -17 5
q-14 9 -14 23q0 4 1 9q4 15 7 30q6 29 15 57l146 442q7 22 14 43q18 53 35 107q6 17 11 35q2 5 4 11q0 2 1 5zM426 677v-3q3 -1 6 -1h5q27 1 53 3q55 3 111 4q116 6 231 6q135 0 270 -8h12q4 0 6 3.5t4 10.5q2 8 5 15q16 53 32 105q63 199 108 402q20 85 20 172q0 15 -1 30
q0 32 -9 63q-16 48 -65 48q-8 0 -18 -1q-45 -9 -85 -33q-57 -35 -104 -80q-119 -107 -221 -229q-197 -237 -356 -499l-1 -1q-2 -2 -2.5 -3.5t-0.5 -3.5zM83 74l10 6q9 7 17 13q59 45 111 97q51 50 89 110q20 30 29 66q2 11 2 22q0 41 -35 68q-5 4 -8 4q-4 0 -7 -6
q-2 -5 -5 -9q-1 -3 -3 -5q-79 -142 -161 -283q-16 -28 -31 -57q-1 -3 -2 -5l-2 -2q-2 -4 -3 -7.5t-1 -7.5v-4zM189 573q55 -16 106 -40q3 -2 5 -2q1 0 2 1q2 2 4 6q4 5 7 11q10 15 19 31l1 1q2 2 2 4v3t-1 4q-2 0 -3 -1q-71 -6 -142 -18zM1380 1764q20 -1 33 -12.5t13 -28.5
q0 -18 -12.5 -30.5t-29.5 -12.5q-16 0 -29.5 13t-14.5 31q1 17 11.5 28.5t25.5 11.5h3zM1185 1764q21 -1 34 -12.5t13 -28.5q0 -18 -12.5 -30.5t-29.5 -12.5t-30 13t-14 31q1 17 11 28.5t25 11.5h3z" />
    <glyph glyph-name="Aring" unicode="&#xc5;" 
d="M1105 633q-11 4 -20 4h-54q-139 0 -279 -9q-139 -10 -279 -22q-18 -2 -35 -4q-25 -3 -49 -5q-14 0 -21 -12q-17 -30 -35 -60q-3 -4 -3 -7v-2q0 -4 6 -8q14 -9 26 -21q48 -45 48 -103q0 -24 -9 -51q-12 -38 -35 -71q-39 -57 -89 -105q-58 -55 -124 -101q-21 -15 -45 -26
q-17 -8 -35 -9q-39 2 -39 37v5q3 17 11 32q17 35 38 68q92 148 179 299l4 6q3 5 3.5 8t-3 5.5t-13.5 6.5q-63 26 -132 36q-78 12 -157 16h-21q-46 0 -93 -7q-5 -1 -10 -1q-39 -5 -77 -9h-9q-8 0 -17 1q-15 1 -26 11q-12 12 -12 25q0 3 1 7q3 17 22 27q16 6 33 7
q101 10 201 26q106 17 212 27q102 8 204 15q18 1 26 16q147 236 319 457q123 155 266 294q48 48 105 87q35 26 76 42q32 12 65 12h9q74 -7 107 -70q26 -52 28 -111q1 -24 1 -47q0 -87 -20 -174q-54 -239 -131 -474l-2 -6q-3 -8 -5 -16q-2 -6 -2 -9v-1q2 -3 10 -4
q45 -7 89 -19q15 -4 29 -10q3 -1 5 -3t2 -6q-1 -5 -4.5 -5.5t-7.5 -0.5q-23 2 -47 4l-42 4q-7 1 -14 1q-10 0 -19 1l-5 1q-11 0 -14 -13q-16 -52 -33 -103q-29 -89 -59 -179l-126 -380q-12 -38 -39 -68q-8 -9 -16 -15q-11 -8 -21 -8q-9 0 -17 5q-14 8 -14 22q0 5 1 10
q4 15 7 30q5 29 14 57q74 221 146 442q8 22 15 43q17 53 34 107q6 17 12 35q1 5 3 11q1 2 2 5zM426 674q3 -1 6 -1h6q26 1 53 3q55 3 110 4q116 6 231 6q135 0 270 -8h12q4 0 6 3.5t4 10.5q3 8 5 15q17 53 33 105q63 199 108 402q19 88 19 178v24q-1 32 -10 63
q-16 48 -64 48q-9 0 -18 -1q-46 -9 -86 -33q-56 -35 -104 -80q-118 -107 -221 -229q-197 -237 -356 -499q0 -1 -1 -1q-1 -2 -2 -4.5t-1 -5.5zM84 80v-6q5 3 9 6q10 7 18 13q59 45 111 97q50 50 88 110q20 30 29 66q3 12 3 23q0 40 -36 67q-4 4 -8 4q-3 0 -6 -6q-3 -5 -5 -9
q-2 -3 -3 -5q-80 -142 -162 -283q-16 -28 -30 -57q-2 -3 -3 -5q-1 -1 -1 -2q-2 -4 -3 -7t-1 -6zM190 573q55 -16 105 -40q3 -2 5 -2q1 0 2 1q3 2 5 6q3 5 6 11q10 15 19 31q1 0 1 1q2 2 2.5 4.5t-1.5 6.5q-1 0 -3 -1q-70 -6 -141 -18zM1414 1801q0 -5 1 -10q2 -6 2 -12
q0 -11 -6 -21q-5 -7 -9 -13q-17 -26 -38 -50q-24 -24 -58 -42q-15 -8 -38 -10h-8q-38 0 -62 25q-16 17 -16 33q0 4 1 8q18 84 129 122q14 5 31 6h5q47 0 66 -36zM1349 1730q-25 5 -30 18q-1 3 -1 5q0 8 15 11q5 1 11 1q4 0 8 1q41 5 46 31v3q0 10 -14 18q-10 5 -18 5t-16 -3
q-23 -7 -36 -21q-43 -41 -64 -92q-3 -6 -3 -14v-4q2 -17 19 -17q6 0 13 2q1 0 3 1q49 18 78 48q2 2 2 4q0 1 -2 1.5t-4 0.5q-4 1 -7 1z" />
    <glyph glyph-name="AE" unicode="&#xc6;" horiz-adv-x="2016" 
d="M426 674q3 -1 7 -1h5l53 2q55 4 110 5q116 6 232 6q135 0 270 -8h7h5.5t4.5 3.5t4 10.5l5 15q17 52 33 105q63 199 108 402q19 88 19 178v24q0 32 -10 62q-16 50 -64 50q-9 0 -19 -2q-45 -8 -85 -33q-56 -35 -104 -80q-118 -108 -221 -229q-197 -237 -356 -499v-1
q-3 -3 -3.5 -4.5t-0.5 -5.5zM190 573q55 -16 105 -40q3 -2 5 -2q1 0 2 1q3 2 5 5q4 6 6 11l19 31q0 2 2 3q1 1 1.5 3t0.5 3l-1 3h-4q-71 -6 -141 -18zM84 74q5 4 10 6q9 7 16 13q59 45 112 98q50 49 89 109q19 30 29 66q2 10 2 20q0 41 -36 70q-4 4 -7 4h-1q-3 -1 -6 -5
l-8 -15q-80 -143 -162 -283q-15 -28 -31 -58l-2 -4q0 -2 -1 -2q-3 -4 -3.5 -7.5t-0.5 -5.5v-6zM1259 757q-20 -45 -39 -91h4q46 -7 89 -19q14 -5 29 -11q3 -1 5 -2.5t2 -4.5v-2q-1 -4 -5 -5t-7 -1q-23 3 -47 4q-20 2 -42 4q-7 1 -14 1q-10 0 -20 1l-5 1l-4 -1
q-11 -29 -23 -57q-9 -29 -19 -58q-29 -89 -59 -179q-53 -161 -107 -322q0 -20 5 -38q4 -12 10 -17t18 -5q25 0 50 11q187 65 360 173l136 86l40 27q78 53 153 114l50 41q22 18 47 33q11 7 17 7q5 0 7 -4q2 -3 2 -7q0 -9 -13 -21l-101 -89q-2 -2 -6 -5q-84 -74 -176 -130
q-66 -40 -130 -83q-76 -52 -156 -99q-97 -57 -198 -108q-7 -3 -14 -8q-28 -14 -58 -23q-16 -4 -31 -4q-35 0 -60 24l-5 5q-3 -3 -6 -7q-7 -8 -15 -14q-11 -8 -22 -8q-8 0 -17 4q-13 9 -13 23q0 5 1 10q4 15 6 30q6 28 15 57q7 22 15 44q1 34 9 68l7 32q2 5 4 11l15 -5
q49 146 96 292l15 43q18 53 34 107q6 18 12 35q2 6 3 10t2 6q-11 4 -20 4h-31q-151 0 -302 -10q-139 -8 -279 -21q-17 -3 -35 -4q-25 -2 -49 -5q-13 0 -21 -12q-16 -30 -34 -60q-4 -6 -4 -9q0 -4 6 -7q14 -10 26 -22q48 -45 48 -104q0 -24 -8 -50q-13 -38 -36 -70
q-38 -58 -89 -106q-57 -55 -123 -101q-22 -15 -46 -26q-17 -9 -35 -10q-38 3 -38 35v7q2 17 11 33q16 34 38 68q91 148 178 299l4 6q3 5 3 7v2q0 2 -3 4t-13 7q-63 27 -132 36q-78 12 -157 16h-20q-47 0 -94 -7q-5 0 -11 -2q-38 -4 -77 -8h-25q-15 2 -26 12q-12 12 -12 26v6
q3 17 24 27q15 6 32 7q101 10 202 26q105 16 211 27q102 8 204 15q18 2 26 16q147 236 318 457q124 155 267 294q49 48 104 88q36 25 77 41q32 12 65 12h9q45 -5 75 -30q153 25 309 36l56 4q115 11 231 12l136 -2q18 -1 37 -1l144 -5l158 -5h8q31 0 58 -21q28 -21 29 -59
q-1 -30 -23 -30h-4q-16 0 -32 2q-12 1 -24 1q-87 5 -175 8q-61 1 -122 3q-77 3 -153 3q-99 0 -198 -5q-192 -10 -383 -32q8 -28 9 -59q1 -21 1 -42q0 -90 -21 -179q-33 -145 -74 -288q-2 -16 -2 -27q0 -21 7 -21q6 0 16 14q-3 -6 -5 -13q-1 -4 -4 -8h44q24 0 48 1h28
q45 0 89 2q30 2 60 2q37 0 75 -3q12 0 25 -1q13 0 26 1h11l8 1q26 2 51 2q36 0 71 -4q21 -3 39 -17q10 -12 10 -25v-5q-3 -16 -18 -23q-3 -1 -6 -1h-4.5t-4.5 6t-5.5 8.5t-9.5 2.5q-22 2 -44 2q-15 0 -29 -1q-49 -4 -98 -4h-19l-89 1q-133 0 -267 -5q-9 0 -15 -3t-9 -13z
" />
    <glyph glyph-name="Ccedilla" unicode="&#xc7;" horiz-adv-x="1408" 
d="M224 -228l20 77q-12 1 -25 2q-30 4 -60 14q-127 51 -155 196q-7 42 -8 76v20q0 135 39 253q66 208 180 384q201 318 497 529q156 114 341 168q56 18 116 18q14 0 28 -1q27 -2 54 -14q90 -44 90 -136q0 -16 -3 -33q-8 -44 -30 -78q-32 -58 -73 -108q-74 -94 -165 -168
q-54 -45 -108 -88q-6 -5 -11 -10q-34 -27 -76 -31h-4q-11 0 -22 4q-18 7 -21.5 17t-3.5 14q0 11 8 22q13 15 31 21q31 15 60 33h1q53 32 104 67l67 45q37 24 65 62q48 58 87 127q18 30 29 66q5 15 5 31q0 7 -1 14q-5 38 -38 50q-21 7 -43 7h-9q-76 -9 -146 -35
q-121 -42 -228 -113q-376 -248 -597 -669q-71 -132 -109 -282q-22 -82 -23 -168v-9q0 -42 8 -83q17 -80 89 -109q48 -17 94 -17q35 0 68 9q88 24 167 69q56 32 109 70q156 113 304 239q33 29 68 57q242 202 412 358q6 5 10 10q2 1 2 2q3 2 5 3t3 1q2 0 5 -2q3 -3 6 -6.5
t3 -8.5q-1 -12 -4 -22.5t-11 -18.5q-173 -167 -419 -378q-36 -30 -71 -61q-132 -118 -270 -227q-113 -90 -243 -148q-70 -31 -147 -34l-14 -40q17 2 32 2q43 0 68 -20t25 -58t-30 -61t-82 -23q-55 0 -96 17v48q43 -26 77 -26q33 0 47.5 10.5t14.5 33.5q0 24 -24 34
q-20 7 -53 7q-7 0 -16 -1z" />
    <glyph glyph-name="Egrave" unicode="&#xc8;" horiz-adv-x="1361" 
d="M521 833h92q14 0 28 1h22q34 0 67 2q30 2 60 2q37 0 74 -3q13 0 26 -1q13 0 27 1h10q4 1 8 1q22 1 44 1q39 0 78 -4q22 -1 39 -16q10 -12 10 -25v-5q-3 -16 -19 -23q-3 -1 -5 -1h-3q-4 0 -6 6q-2 7 -6 8.5t-9 1.5v1q-18 2 -37 2q-18 0 -37 -2q-39 -3 -77 -3q-20 0 -39 1
q-178 0 -356 -5q-8 0 -14 -3t-11 -13q-109 -257 -206 -521q-33 -85 -50 -176q-3 -19 -4 -38q-1 -7 -1 -14q0 -16 5 -31q4 -13 10 -17.5t17 -4.5q26 1 51 11q188 65 361 173q67 43 135 87l40 26q79 52 153 114l50 40q22 18 47 34q11 7 17 7q5 0 7 -5q2 -3 2 -6q0 -9 -13 -21
q-50 -44 -100 -89q-3 -3 -6 -5q-84 -74 -177 -130q-66 -40 -130 -83q-77 -51 -155 -99q-98 -57 -199 -108l-14 -8q-28 -14 -57 -23q-17 -4 -31 -4q-36 0 -61 24q-35 34 -41 91q-1 15 -1 29q0 47 10 92q3 16 7 32l4 14q0 2 1 4t1.5 4.5t0.5 3.5l-1 2q-2 5 -2 8v2q1 5 3 10
q1 1 1 2q42 103 79 208q19 50 37 99q38 109 48 226l2 20q0 5 1 10v4q0 3 -1 6q-2 2 -6 2h-3q-20 -3 -39 -5q-71 -8 -141 -23q-7 -1 -13 -3t-9 -4t-3 -5q0 -4 1 -11q1 -6 1 -12q0 -12 -3 -24q-5 -15 -12 -15q-4 0 -9 4q-33 26 -54 63q-6 12 -6 24q0 7 2 14q5 18 22 30
q23 13 48 15q57 8 115 11q15 1 29 2q18 2 36 3l32 2q10 0 11 2.5t1 8.5v6q-7 69 -34 130q-35 83 -91 150q-12 14 -24 29q-17 20 -35 41q-26 31 -45 68q-16 34 -16 65q0 51 44 91q44 37 95 55q99 37 202 56q213 41 429 56q27 2 54 5q116 11 232 11q68 0 136 -3q18 0 36 -1
q73 -2 145 -4q79 -2 159 -4h3q34 0 63 -22q27 -20 28 -59q-1 -31 -26 -31h-2q-15 1 -31 3l-24 2q-87 5 -175 6q-61 1 -122 4q-77 3 -154 3q-99 0 -197 -5q-197 -10 -392 -33q-154 -16 -305 -56q-41 -11 -80 -30q-19 -9 -36 -23q-12 -10 -14 -17t-2 -11q0 -9 4 -20
q7 -21 18 -39q21 -34 45 -65q63 -82 104 -181q34 -81 39 -170q0 -14 9 -14h4l16 1l15 -1h2q14 0 21 17q34 80 69 158q57 124 122 242q28 53 62 101q11 16 26 27q11 7 21 7q13 0 24 -11q12 -14 12 -32q0 -8 -2 -17q-7 -25 -21 -47q-54 -96 -103 -195q-56 -110 -106 -225
q-2 -5 -4 -13q-2 -3 -4 -8zM389 764h-23q-10 0 -11 -12q-1 -19 -4 -39q-3 -26 -4 -52q11 28 23 57q9 22 19 46zM1075 1882q3 1 5 1q13 0 21 -13q53 -71 121 -117l26 -20l22 -16l24 -20q4 -1 4.5 -3t0.5 -3q0 -3 -2 -7q-2 -5 -4.5 -6.5t-4.5 -1.5h-3q-14 4 -26 10l-140 74
q-5 3 -9 5q-28 16 -60 24q-19 9 -19 32q0 8 2 18q5 17 16.5 29t25.5 14z" />
    <glyph glyph-name="Eacute" unicode="&#xc9;" horiz-adv-x="1361" 
d="M521 833h92q14 0 28 1h22q34 0 67 2q30 2 60 2q37 0 74 -3q13 0 26 -1q13 0 27 1h10q4 1 8 1q22 1 44 1q39 0 78 -4q22 -1 39 -16q10 -12 10 -25v-5q-3 -16 -19 -23q-3 -1 -5 -1h-3q-4 0 -6 6q-2 7 -6 8.5t-9 1.5v1q-18 2 -37 2q-18 0 -37 -2q-39 -3 -77 -3q-20 0 -39 1
q-178 0 -356 -5q-8 0 -14 -3t-11 -13q-109 -257 -206 -521q-33 -85 -50 -176q-3 -19 -4 -38q-1 -7 -1 -14q0 -16 5 -31q4 -13 10 -17.5t17 -4.5q26 1 51 11q188 65 361 173q67 43 135 87l40 26q79 52 153 114l50 40q22 18 47 34q11 7 17 7q5 0 7 -5q2 -3 2 -6q0 -9 -13 -21
q-50 -44 -100 -89q-3 -3 -6 -5q-84 -74 -177 -130q-66 -40 -130 -83q-77 -51 -155 -99q-98 -57 -199 -108l-14 -8q-28 -14 -57 -23q-17 -4 -31 -4q-36 0 -61 24q-35 34 -41 91q-1 15 -1 29q0 47 10 92q3 16 7 32l4 14q0 2 1 4t1.5 4.5t0.5 3.5l-1 2q-2 5 -2 8v2q1 5 3 10
q1 1 1 2q42 103 79 208q19 50 37 99q38 109 48 226l2 20q0 5 1 10v4q0 3 -1 6q-2 2 -6 2h-3q-20 -3 -39 -5q-71 -8 -141 -23q-7 -1 -13 -3t-9 -4t-3 -5q0 -4 1 -11q1 -6 1 -12q0 -12 -3 -24q-5 -15 -12 -15q-4 0 -9 4q-33 26 -54 63q-6 12 -6 24q0 7 2 14q5 18 22 30
q23 13 48 15q57 8 115 11q15 1 29 2q18 2 36 3l32 2q10 0 11 2.5t1 8.5v6q-7 69 -34 130q-35 83 -91 150q-12 14 -24 29q-17 20 -35 41q-26 31 -45 68q-16 34 -16 65q0 51 44 91q44 37 95 55q99 37 202 56q213 41 429 56q27 2 54 5q116 11 232 11q68 0 136 -3q18 0 36 -1
q73 -2 145 -4q79 -2 159 -4h3q34 0 63 -22q27 -20 28 -59q-1 -31 -26 -31h-2q-15 1 -31 3l-24 2q-87 5 -175 6q-61 1 -122 4q-77 3 -154 3q-99 0 -197 -5q-197 -10 -392 -33q-154 -16 -305 -56q-41 -11 -80 -30q-19 -9 -36 -23q-12 -10 -14 -17t-2 -11q0 -9 4 -20
q7 -21 18 -39q21 -34 45 -65q63 -82 104 -181q34 -81 39 -170q0 -14 9 -14h4l16 1l15 -1h2q14 0 21 17q34 80 69 158q57 124 122 242q28 53 62 101q11 16 26 27q11 7 21 7q13 0 24 -11q12 -14 12 -32q0 -8 -2 -17q-7 -25 -21 -47q-54 -96 -103 -195q-56 -110 -106 -225
q-2 -5 -4 -13q-2 -3 -4 -8zM389 764h-23q-10 0 -11 -12q-1 -19 -4 -39q-3 -26 -4 -52q11 28 23 57q9 22 19 46zM1256 1882q13 -2 24.5 -14t16.5 -29q2 -10 2 -18q0 -23 -19 -32q-32 -8 -60 -24q-4 -2 -9 -5q-70 -37 -139 -74q-13 -6 -27 -10h-2q-2 0 -5 1q-3 2 -5 7
q-2 4 -2 7v2q2 3 5 4l24 20l22 16l26 20q69 46 121 117q8 13 22 13q2 0 5 -1z" />
    <glyph glyph-name="Ecircumflex" unicode="&#xca;" horiz-adv-x="1361" 
d="M521 833h92q14 0 28 1h22q34 0 67 2q30 2 60 2q37 0 74 -3q13 0 26 -1q13 0 27 1h10q4 1 8 1q22 1 44 1q39 0 78 -4q22 -1 39 -16q10 -12 10 -25v-5q-3 -16 -19 -23q-3 -1 -5 -1h-3q-4 0 -6 6q-2 7 -6 8.5t-9 1.5v1q-18 2 -37 2q-18 0 -37 -2q-39 -3 -77 -3q-20 0 -39 1
q-178 0 -356 -5q-8 0 -14 -3t-11 -13q-109 -257 -206 -521q-33 -85 -50 -176q-3 -19 -4 -38q-1 -7 -1 -14q0 -16 5 -31q4 -13 10 -17.5t17 -4.5q26 1 51 11q188 65 361 173q67 43 135 87l40 26q79 52 153 114l50 40q22 18 47 34q11 7 17 7q5 0 7 -5q2 -3 2 -6q0 -9 -13 -21
q-50 -44 -100 -89q-3 -3 -6 -5q-84 -74 -177 -130q-66 -40 -130 -83q-77 -51 -155 -99q-98 -57 -199 -108l-14 -8q-28 -14 -57 -23q-17 -4 -31 -4q-36 0 -61 24q-35 34 -41 91q-1 15 -1 29q0 47 10 92q3 16 7 32l4 14q0 2 1 4t1.5 4.5t0.5 3.5l-1 2q-2 5 -2 8v2q1 5 3 10
q1 1 1 2q42 103 79 208q19 50 37 99q38 109 48 226l2 20q0 5 1 10v4q0 3 -1 6q-2 2 -6 2h-3q-20 -3 -39 -5q-71 -8 -141 -23q-7 -1 -13 -3t-9 -4t-3 -5q0 -4 1 -11q1 -6 1 -12q0 -12 -3 -24q-5 -15 -12 -15q-4 0 -9 4q-33 26 -54 63q-6 12 -6 24q0 7 2 14q5 18 22 30
q23 13 48 15q57 8 115 11q15 1 29 2q18 2 36 3l32 2q10 0 11 2.5t1 8.5v6q-7 69 -34 130q-35 83 -91 150q-12 14 -24 29q-17 20 -35 41q-26 31 -45 68q-16 34 -16 65q0 51 44 91q44 37 95 55q99 37 202 56q213 41 429 56q27 2 54 5q116 11 232 11q68 0 136 -3q18 0 36 -1
q73 -2 145 -4q79 -2 159 -4h3q34 0 63 -22q27 -20 28 -59q-1 -31 -26 -31h-2q-15 1 -31 3l-24 2q-87 5 -175 6q-61 1 -122 4q-77 3 -154 3q-99 0 -197 -5q-197 -10 -392 -33q-154 -16 -305 -56q-41 -11 -80 -30q-19 -9 -36 -23q-12 -10 -14 -17t-2 -11q0 -9 4 -20
q7 -21 18 -39q21 -34 45 -65q63 -82 104 -181q34 -81 39 -170q0 -14 9 -14h4l16 1l15 -1h2q14 0 21 17q34 80 69 158q57 124 122 242q28 53 62 101q11 16 26 27q11 7 21 7q13 0 24 -11q12 -14 12 -32q0 -8 -2 -17q-7 -25 -21 -47q-54 -96 -103 -195q-56 -110 -106 -225
q-2 -5 -4 -13q-2 -3 -4 -8zM389 764h-23q-10 0 -11 -12q-1 -19 -4 -39q-3 -26 -4 -52q11 28 23 57q9 22 19 46zM1037 1825q-5 -2 -7.5 -4t-4.5 -5l-2 -2q-31 -32 -59 -65q-9 -11 -19 -22q-20 -23 -43 -43h-1q-6 -6 -15 -10q-3 -1 -7 -1t-9 2q-4 4 -4 9v3h1q3 8 7 15
q57 100 129 195q3 3 5 6q4 6 10 12q14 16 38 16h8q30 -6 34 -30q11 -53 27 -105q6 -18 11 -35q7 -25 21 -48q8 -12 8 -24q0 -8 -3 -16q-2 -6 -6 -10q-9 -8 -19 -8q-8 0 -16 5q-17 13 -27 29q-21 39 -35 80q-7 19 -15 38q-3 9 -7 18z" />
    <glyph glyph-name="Edieresis" unicode="&#xcb;" horiz-adv-x="1361" 
d="M521 833h92q14 0 28 1h22q34 0 67 2q30 2 60 2q37 0 74 -3q13 0 26 -1q13 0 27 1h10q4 1 8 1q22 1 44 1q39 0 78 -4q22 -1 39 -16q10 -12 10 -25v-5q-3 -16 -19 -23q-3 -1 -5 -1h-3q-4 0 -6 6q-2 7 -6 8.5t-9 1.5v1q-18 2 -37 2q-18 0 -37 -2q-39 -3 -77 -3q-20 0 -39 1
q-178 0 -356 -5q-8 0 -14 -3t-11 -13q-109 -257 -206 -521q-33 -85 -50 -176q-3 -19 -4 -38q-1 -7 -1 -14q0 -16 5 -31q4 -13 10 -17.5t17 -4.5q26 1 51 11q188 65 361 173q67 43 135 87l40 26q79 52 153 114l50 40q22 18 47 34q11 7 17 7q5 0 7 -5q2 -3 2 -6q0 -9 -13 -21
q-50 -44 -100 -89q-3 -3 -6 -5q-84 -74 -177 -130q-66 -40 -130 -83q-77 -51 -155 -99q-98 -57 -199 -108l-14 -8q-28 -14 -57 -23q-17 -4 -31 -4q-36 0 -61 24q-35 34 -41 91q-1 15 -1 29q0 47 10 92q3 16 7 32l4 14q0 2 1 4t1.5 4.5t0.5 3.5l-1 2q-2 5 -2 8v2q1 5 3 10
q1 1 1 2q42 103 79 208q19 50 37 99q38 109 48 226l2 20q0 5 1 10v4q0 3 -1 6q-2 2 -6 2h-3q-20 -3 -39 -5q-71 -8 -141 -23q-7 -1 -13 -3t-9 -4t-3 -5q0 -4 1 -11q1 -6 1 -12q0 -12 -3 -24q-5 -15 -12 -15q-4 0 -9 4q-33 26 -54 63q-6 12 -6 24q0 7 2 14q5 18 22 30
q23 13 48 15q57 8 115 11q15 1 29 2q18 2 36 3l32 2q10 0 11 2.5t1 8.5v6q-7 69 -34 130q-35 83 -91 150q-12 14 -24 29q-17 20 -35 41q-26 31 -45 68q-16 34 -16 65q0 51 44 91q44 37 95 55q99 37 202 56q213 41 429 56q27 2 54 5q116 11 232 11q68 0 136 -3q18 0 36 -1
q73 -2 145 -4q79 -2 159 -4h3q34 0 63 -22q27 -20 28 -59q-1 -31 -26 -31h-2q-15 1 -31 3l-24 2q-87 5 -175 6q-61 1 -122 4q-77 3 -154 3q-99 0 -197 -5q-197 -10 -392 -33q-154 -16 -305 -56q-41 -11 -80 -30q-19 -9 -36 -23q-12 -10 -14 -17t-2 -11q0 -9 4 -20
q7 -21 18 -39q21 -34 45 -65q63 -82 104 -181q34 -81 39 -170q0 -14 9 -14h4l16 1l15 -1h2q14 0 21 17q34 80 69 158q57 124 122 242q28 53 62 101q11 16 26 27q11 7 21 7q13 0 24 -11q12 -14 12 -32q0 -8 -2 -17q-7 -25 -21 -47q-54 -96 -103 -195q-56 -110 -106 -225
q-2 -5 -4 -13q-2 -3 -4 -8zM389 764h-23q-10 0 -11 -12q-1 -19 -4 -39q-3 -26 -4 -52q11 28 23 57q9 22 19 46zM1079 1818q21 -1 34 -12.5t13 -28.5q0 -18 -12.5 -30.5t-29.5 -12.5t-30 13t-14 31q1 17 11.5 28.5t25.5 11.5h2zM885 1818q20 -1 33.5 -12.5t13.5 -28.5
q0 -18 -12.5 -30.5t-29.5 -12.5t-30 13t-15 31q2 17 12 28.5t25 11.5h3z" />
    <glyph glyph-name="Igrave" unicode="&#xcc;" horiz-adv-x="884" 
d="M727 1599h18q31 0 62 -6q104 -24 127 -130q4 -21 4 -41q0 -33 -10 -66q-14 -52 -37 -101q-54 -116 -121 -224l-102 -168q-67 -109 -133 -218q-191 -321 -353 -657q-13 -28 -25 -56q-5 -10 -9 -20q-9 -21 -25 -35q-12 -11 -27 -11q-8 0 -16 3q-23 11 -24 37v4q0 21 9 39
q5 10 9 20q17 38 35 75q211 437 469 847q83 130 159 264q47 81 85 166q20 44 29 92q2 13 2 27q0 21 -5 42q-10 50 -58 65q-38 12 -77 12q-14 0 -29 -2q-387 -45 -664 -323q-57 -55 -92 -127q-22 -42 -25 -89v-7q0 -57 50 -84h1l1 -1q14 -6 15 -10l1 -4q0 -7 -16 -17
q-13 -9 -26 -9q-14 0 -29 11q-47 36 -47 92v11q9 97 66 176q93 127 224 214q190 124 409 180q71 19 144 28q16 1 31 1zM674 1882q3 1 5 1q13 0 21 -13q53 -71 121 -117q14 -10 27 -20l22 -16q12 -10 23 -20q4 -1 4.5 -3t0.5 -3q0 -3 -2 -7q-2 -5 -4.5 -6.5t-4.5 -1.5h-3
q-14 4 -26 10l-140 74q-4 3 -9 5q-28 16 -59 24q-20 9 -20 31q0 9 3 19q5 17 16 29t25 14z" />
    <glyph glyph-name="Iacute" unicode="&#xcd;" horiz-adv-x="884" 
d="M727 1599h18q31 0 62 -6q104 -24 127 -130q4 -21 4 -41q0 -33 -10 -66q-14 -52 -37 -101q-54 -116 -121 -224l-102 -168q-67 -109 -133 -218q-191 -321 -353 -657q-13 -28 -25 -56q-5 -10 -9 -20q-9 -21 -25 -35q-12 -11 -27 -11q-8 0 -16 3q-23 11 -24 37v4q0 21 9 39
q5 10 9 20q17 38 35 75q211 437 469 847q83 130 159 264q47 81 85 166q20 44 29 92q2 13 2 27q0 21 -5 42q-10 50 -58 65q-38 12 -77 12q-14 0 -29 -2q-387 -45 -664 -323q-57 -55 -92 -127q-22 -42 -25 -89v-7q0 -57 50 -84h1l1 -1q14 -6 15 -10l1 -4q0 -7 -16 -17
q-13 -9 -26 -9q-14 0 -29 11q-47 36 -47 92v11q9 97 66 176q93 127 224 214q190 124 409 180q71 19 144 28q16 1 31 1zM855 1882q13 -2 24.5 -14t16.5 -29q2 -10 2 -18q0 -23 -19 -32q-31 -8 -59 -24q-5 -2 -9 -5l-140 -74q-12 -6 -27 -10h-2q-2 0 -4 1q-4 2 -6 7q-2 3 -2 6
q0 1 1 3q1 3 4 4l24 20l22 16l26 20q69 46 122 117q8 13 21 13q2 0 5 -1z" />
    <glyph glyph-name="Icircumflex" unicode="&#xce;" horiz-adv-x="885" 
d="M727 1599h18q31 0 62 -6q104 -24 126 -130q4 -22 4 -44q0 -32 -9 -63q-14 -52 -37 -101q-54 -116 -121 -224l-102 -168q-67 -109 -133 -218q-191 -321 -353 -657q-13 -28 -25 -56l-10 -20q-8 -21 -24 -35q-12 -11 -27 -11q-8 0 -16 3q-23 11 -24 37v4q0 21 9 39
q4 10 9 20q17 38 34 75q212 437 470 847q83 130 159 264q47 81 85 166q20 44 28 92q3 15 3 30q0 20 -5 39q-10 50 -59 65q-37 12 -76 12q-14 0 -29 -2q-387 -45 -664 -323q-57 -55 -93 -127q-21 -42 -24 -89v-7q0 -57 50 -84h1l1 -1q14 -6 15 -10l1 -4q0 -7 -16 -17
q-13 -9 -26 -9q-15 0 -29 11q-47 36 -47 92v11q9 97 66 176q93 127 224 214q190 124 409 180q71 19 144 28q15 1 31 1zM783 1822q-5 -1 -8 -3.5t-5 -5.5l-2 -2q-30 -33 -58 -67q-10 -11 -20 -23q-19 -23 -43 -44q-7 -6 -15 -10q-3 -1 -6 -1q-6 0 -10 3q-5 4 -5 8q0 2 1 4
q3 7 7 15q57 103 130 200q2 3 5 6q4 7 9 13q15 16 38 16h8q31 -6 35 -31q10 -54 27 -108l10 -36q8 -25 22 -48q8 -12 8 -26q0 -8 -3 -16q-3 -5 -7 -10q-9 -9 -18 -9q-8 0 -16 6q-17 13 -27 30q-21 40 -36 82q-6 19 -14 39q-4 9 -7 18z" />
    <glyph glyph-name="Idieresis" unicode="&#xcf;" horiz-adv-x="876" 
d="M727 1599h18q31 0 62 -6q104 -24 126 -130q4 -22 4 -44q0 -32 -9 -63q-14 -52 -37 -101q-55 -116 -121 -224l-102 -168q-67 -109 -133 -218q-191 -321 -353 -657q-13 -28 -25 -56l-10 -20q-8 -21 -24 -35q-13 -11 -27 -11q-8 0 -16 3q-23 11 -24 37v4q0 21 9 39
q4 10 9 20q17 38 34 75q212 437 470 847q82 130 159 264q46 81 84 166q20 44 29 92q3 15 3 30q0 20 -5 39q-10 50 -59 65q-38 12 -76 12q-15 0 -29 -2q-387 -45 -664 -323q-57 -55 -93 -127q-21 -42 -24 -89v-8q0 -56 50 -83h1v-1q15 -6 16 -9.5t1 -4.5q0 -7 -16 -17
q-13 -9 -26 -9q-15 0 -29 11q-47 36 -47 92v11q9 97 66 176q92 127 223 214q190 124 409 180q71 19 144 28q16 1 32 1zM870 1764q21 -1 34 -12.5t13 -28.5q0 -18 -12.5 -30.5t-29.5 -12.5t-30 13t-14 31q1 17 11.5 28.5t25.5 11.5h2zM676 1764q20 -1 33.5 -12.5t13.5 -28.5
q0 -18 -12.5 -30.5t-29.5 -12.5t-30 13t-15 31q2 17 12 28.5t25 11.5h3z" />
    <glyph glyph-name="Eth" unicode="&#xd0;" horiz-adv-x="1901" 
d="M397 401q-3 1 -4 1h-2l-6 -3l-2 -2q-108 -43 -210 -100q-95 -51 -179 -121q-39 -33 -69 -75q-16 -24 -24 -54q-3 -11 -3 -22q0 -32 29 -54q24 -19 52 -26q62 -17 123 -17q24 0 48 3q151 12 296 63q402 139 747 411q133 104 252 228q1 2 3 3q3 2 5 5.5t4 8.5q-4 2 -8 2
t-8 -2h-2q-42 -7 -84 -13t-83 -13q-222 -34 -439 -84q-144 -33 -284 -79q-18 -5 -25 -23q-6 -12 -12 -23q-5 -12 -11 -23q-46 -103 -106 -195q-2 -3 -3 -4q-10 -16 -23 -16q-6 0 -13 3q-18 12 -19 35q0 25 8 46l10 29q16 53 40 101v1q1 1 2 3t1 3zM841 701h-35q-48 0 -145 1
q-41 -76 -80 -153l-3 -4q-5 -6 -6 -16q3 -1 5 -1h4t4 2q3 0 5 1q246 76 501 117q182 30 366 51q14 3 28 4h9q13 1 21 11q83 99 125 230q18 57 18 117q0 20 -2 40q-15 105 -84 176q-84 85 -190 117q-104 34 -210 36q-20 1 -39 1q-133 0 -262 -30q-149 -33 -289 -94
q-143 -57 -274 -138q-128 -83 -234 -197q-42 -46 -73 -102q-14 -22 -17 -49q-2 -21 -19 -26q-4 -1 -7 -1q-13 0 -23 12q-12 15 -12 33q0 9 4 19q6 14 14 26q38 57 84 108q167 187 379 305q252 136 529 191q100 18 201 24q24 2 48 2q152 0 297 -71q75 -36 135 -97
q123 -127 123 -294q0 -45 -9 -93q-25 -122 -88 -221q-2 -3 -3 -5q-5 -6 -8 -16q5 -2 9 -2q3 0 6 1h5q34 1 70 7q23 5 47 8l77 7l61 6l6 1l7 -1q15 -5 16 -19q0 -15 -12 -17q-14 -4 -28 -4q-20 -1 -39 -2q-29 -1 -58 -4q-48 -5 -97 -12l-53 -7q-19 -2 -37 -6q-12 0 -20 -11
q-140 -180 -312 -315q-279 -228 -600 -371q-172 -78 -357 -111q-89 -16 -180 -16q-19 0 -38 1q-73 1 -145 27q-39 16 -70 46q-41 44 -41 99q0 19 5 39q13 53 46 91q44 54 99 94q117 84 244 145q87 43 179 78q19 8 28 29q51 103 105 204q-70 1 -149 1q-30 1 -59 1h-31l-41 1
q-7 0 -13 -3q-5 -3 -10 -3q-2 0 -5 1q-8 2 -13 8q-4 6 -4 13t6 13q12 13 28 15q26 2 47 2h6q31 1 138 1h127q29 55 59 108q77 137 165 264q39 58 91 102q18 17 41 27q11 5 21 5q17 0 34 -14q20 -20 20 -48q0 -7 -1 -14q-4 -29 -19 -45.5t-35 -16.5q-7 0 -14 1h-4
q-8 0 -16 -8q-28 -31 -54 -68q-79 -116 -148 -240q-15 -26 -30 -53q69 -1 141 -2h10q15 0 27 -9q9 -7 9 -16v-2q0 -9 -11 -16q-11 -6 -24 -6z" />
    <glyph glyph-name="Ntilde" unicode="&#xd1;" horiz-adv-x="1576" 
d="M674 491q7 6 11 14q1 2 3 4q121 200 257 391q218 297 483 547q25 23 51 44l4 4q15 14 34 21q10 3 19 3q29 0 43 -34q5 -17 5 -35q0 -7 -1 -15q-7 -45 -23 -88q-43 -121 -95 -237q-74 -172 -156 -341q-134 -275 -220 -572q-2 -8 -5 -16q-5 -20 -12 -40q-31 -97 -39 -200
q-1 -14 -4 -29q-5 -18 -18 -19q-13 0 -19 18q-2 11 -3 21q-2 20 -2 40q0 14 1 27v14q1 24 1 48v37q0 82 24 161q84 280 210 541q125 258 235 524q13 32 25 64q3 9 7 19q2 6 3 12q1 4 2 7q-11 -2 -17 -9q-2 -1 -3 -2q-68 -52 -129 -113q-281 -275 -493 -613
q-204 -322 -372 -666q-16 -33 -32 -65q-6 -11 -11 -21q-8 -17 -22 -29q-14 -10 -27 -10q-7 0 -13 2q-19 7 -26 32q-3 10 -3 20q0 13 5 26q9 33 23 63q1 4 3 8q127 316 277 621q121 242 215 498q47 124 58 257q1 12 1 25q0 16 -2 32q-4 39 -42 43h-11q-21 0 -41 -6
q-54 -15 -103 -42q-151 -80 -276 -202q-145 -140 -264 -306q-52 -78 -80 -168q-7 -15 -7 -31q0 -13 5 -26q2 -5 2 -10q0 -9 -8 -17q-7 -6 -16 -6q-5 0 -10 2q-15 5 -23 19.5t-8 32.5v4q4 33 19 63q21 41 46 80q74 115 162 217q85 95 178 181q135 126 295 210q48 26 101 42
q25 8 51 8h10q51 -5 74 -54q22 -51 23 -108v-7q0 -90 -25 -178q-33 -117 -80 -230q-99 -244 -217 -478q-5 -10 -9 -20l1 -2v-2zM1211 1855h2q44 0 69 -56q2 -5 4 -9q4 -9 7 -18q6 -18 20 -19h7q17 0 33 7q27 12 52 32q38 30 80 45h1q2 1 3 1q3 1 5.5 0.5t4.5 -4.5q1 -3 1 -5
v-3q-1 -4 -3 -7q-12 -19 -27 -29q-26 -19 -52 -39q-19 -15 -39 -30q-33 -23 -69 -28q-6 -1 -11 -1q-33 0 -54 40l-14 28q-7 16 -20 16h-4q-14 0 -28 -6q-42 -17 -82 -44l-60 -38q-7 -4 -14 -5q-9 1 -9 11q0 3 1 7q4 11 10 19q17 24 36 44q56 61 125 86q5 2 11 3q5 1 10 1
q2 0 4 1z" />
    <glyph glyph-name="Ograve" unicode="&#xd2;" horiz-adv-x="1761" 
d="M1566 1101q0 -70 -13.5 -135t-36.5 -128q-63 -167 -171 -310q-151 -202 -346 -362q-109 -93 -233 -166q-119 -71 -255 -98q-51 -9 -101 -9q-78 0 -154 22q-23 7 -44 17q-147 69 -148 229q0 86 33 165q34 83 84 157q49 73 105 140q6 6 7.5 9t1.5 5v3q-1 3 -5 10q0 1 -1 1
q-10 18 -18 37q-3 10 -12 10l-4 -1q-4 -2 -9 -3q-85 -22 -167 -55q-18 -7 -30 -23q-13 -16 -30 -16q-6 0 -14 3q-19 7 -23 26v4q0 16 13 26q19 13 41 16q21 4 41 8q25 5 49 10q57 12 115 25q11 2 12.5 4t1.5 3q0 4 -4 12q-25 75 -25 151q0 60 16 121q18 69 57 130
q52 84 123 153q183 179 429 250q102 29 205 29q91 0 182 -23q250 -64 312 -312q16 -65 16 -128v-7zM863 310q-1 -3 -3 -4.5t-4 -2.5q-1 0 -1 -1q-23 -9 -48 -9q-12 0 -25 2q-63 11 -119 40q-170 85 -303 219q-6 7 -9 7t-8 -8q-77 -93 -134 -200q-16 -29 -28 -61
q-27 -67 -27 -140q3 -119 115 -161l24 -8q60 -15 121 -15q41 0 82 7q108 18 206 69q119 63 223 147q237 182 411 423q107 147 157 320q24 79 24 158q0 68 -18 137q-61 223 -290 266q-60 10 -119 10q-99 0 -196 -28q-230 -68 -400 -236q-74 -71 -128 -158q-48 -77 -60 -167
q-4 -29 -4 -58q0 -56 14 -110q2 -6 4.5 -8t5.5 -2q2 0 5 1q29 8 57 13q19 4 31 18q67 70 137 137q88 86 187 161q54 41 115 71q54 28 114 32l13 1q43 0 80 -24q34 -25 34 -60q0 -15 -6 -31q-12 -29 -35 -51q-36 -35 -77 -62q-103 -67 -218 -109q-102 -36 -207 -62
q-15 -2 -28 -13q-71 -74 -139 -152q-5 -5 -5 -11q0 -4 4 -9q26 -39 60 -71q97 -89 212 -152q34 -18 70 -33q50 -20 103 -20h17q6 0 13 -2zM570 800q4 -1 6 -1q3 0 5 1h2q81 22 161 50q130 45 239 129q29 22 52 51q15 17 21 40q1 6 1 11q0 25 -28 33q-9 2 -18 2q-8 0 -17 -2
q-51 -10 -95 -37q-59 -33 -111 -75q-112 -92 -213 -195q-1 -2 -3 -4q-1 -1 -2 -3zM340 685q4 5 8 9q14 14 28 33l-10 -2q-9 -2 -16 -4q-20 -4 -21 -7t-1 -4q0 -7 8 -22l2 -1q0 -1 2 -2zM1075 1882q3 1 5 1q13 0 21 -13q53 -71 121 -117l26 -20l22 -16l24 -20q4 -1 4.5 -3
t0.5 -3q0 -3 -2 -7q-2 -5 -5 -6.5t-5 -1.5h-2q-14 4 -26 10l-140 74q-5 3 -9 5q-28 16 -60 24q-19 9 -19 32q0 8 2 18q5 17 16.5 29t25.5 14z" />
    <glyph glyph-name="Oacute" unicode="&#xd3;" horiz-adv-x="1761" 
d="M1566 1101q0 -70 -13.5 -135t-36.5 -128q-63 -167 -171 -310q-151 -202 -346 -362q-109 -93 -233 -166q-119 -71 -255 -98q-51 -9 -101 -9q-78 0 -154 22q-23 7 -44 17q-147 69 -148 229q0 86 33 165q34 83 84 157q49 73 105 140q6 6 7.5 9t1.5 5v3q-1 3 -5 10q0 1 -1 1
q-10 18 -18 37q-3 10 -12 10l-4 -1q-4 -2 -9 -3q-85 -22 -167 -55q-18 -7 -30 -23q-13 -16 -30 -16q-6 0 -14 3q-19 7 -23 26v4q0 16 13 26q19 13 41 16q21 4 41 8q25 5 49 10q57 12 115 25q11 2 12.5 4t1.5 3q0 4 -4 12q-25 75 -25 151q0 60 16 121q18 69 57 130
q52 84 123 153q183 179 429 250q102 29 205 29q91 0 182 -23q250 -64 312 -312q16 -65 16 -128v-7zM863 310q-1 -3 -3 -4.5t-4 -2.5q-1 0 -1 -1q-23 -9 -48 -9q-12 0 -25 2q-63 11 -119 40q-170 85 -303 219q-6 7 -9 7t-8 -8q-77 -93 -134 -200q-16 -29 -28 -61
q-27 -67 -27 -140q3 -119 115 -161l24 -8q60 -15 121 -15q41 0 82 7q108 18 206 69q119 63 223 147q237 182 411 423q107 147 157 320q24 79 24 158q0 68 -18 137q-61 223 -290 266q-60 10 -119 10q-99 0 -196 -28q-230 -68 -400 -236q-74 -71 -128 -158q-48 -77 -60 -167
q-4 -29 -4 -58q0 -56 14 -110q2 -6 4.5 -8t5.5 -2q2 0 5 1q29 8 57 13q19 4 31 18q67 70 137 137q88 86 187 161q54 41 115 71q54 28 114 32l13 1q43 0 80 -24q34 -25 34 -60q0 -15 -6 -31q-12 -29 -35 -51q-36 -35 -77 -62q-103 -67 -218 -109q-102 -36 -207 -62
q-15 -2 -28 -13q-71 -74 -139 -152q-5 -5 -5 -11q0 -4 4 -9q26 -39 60 -71q97 -89 212 -152q34 -18 70 -33q50 -20 103 -20h17q6 0 13 -2zM570 800q4 -1 6 -1q3 0 5 1h2q81 22 161 50q130 45 239 129q29 22 52 51q15 17 21 40q1 6 1 11q0 25 -28 33q-9 2 -18 2q-8 0 -17 -2
q-51 -10 -95 -37q-59 -33 -111 -75q-112 -92 -213 -195q-1 -2 -3 -4q-1 -1 -2 -3zM340 685q4 5 8 9q14 14 28 33l-10 -2q-9 -2 -16 -4q-20 -4 -21 -7t-1 -4q0 -7 8 -22l2 -1q0 -1 2 -2zM1255 1882q14 -2 25.5 -14t16.5 -29q2 -10 2 -18q0 -23 -19 -32q-32 -8 -60 -24
q-4 -2 -9 -5q-70 -37 -139 -74q-13 -6 -27 -10h-2q-2 0 -5 1q-3 2 -5 7q-2 4 -2 7v2q1 3 5 4l24 20l22 16l26 20q68 46 121 117q8 13 21 13q2 0 5 -1z" />
    <glyph glyph-name="Ocircumflex" unicode="&#xd4;" horiz-adv-x="1761" 
d="M1566 1101q0 -70 -13.5 -135t-36.5 -128q-63 -167 -171 -310q-151 -202 -346 -362q-109 -93 -233 -166q-119 -71 -255 -98q-51 -9 -101 -9q-78 0 -154 22q-23 7 -44 17q-147 69 -148 229q0 86 33 165q34 83 84 157q49 73 105 140q6 6 7.5 9t1.5 5v3q-1 3 -5 10q0 1 -1 1
q-10 18 -18 37q-3 10 -12 10l-4 -1q-4 -2 -9 -3q-85 -22 -167 -55q-18 -7 -30 -23q-13 -16 -30 -16q-6 0 -14 3q-19 7 -23 26v4q0 16 13 26q19 13 41 16q21 4 41 8q25 5 49 10q57 12 115 25q11 2 12.5 4t1.5 3q0 4 -4 12q-25 75 -25 151q0 60 16 121q18 69 57 130
q52 84 123 153q183 179 429 250q102 29 205 29q91 0 182 -23q250 -64 312 -312q16 -65 16 -128v-7zM863 310q-1 -3 -3 -4.5t-4 -2.5q-1 0 -1 -1q-23 -9 -48 -9q-12 0 -25 2q-63 11 -119 40q-170 85 -303 219q-6 7 -9 7t-8 -8q-77 -93 -134 -200q-16 -29 -28 -61
q-27 -67 -27 -140q3 -119 115 -161l24 -8q60 -15 121 -15q41 0 82 7q108 18 206 69q119 63 223 147q237 182 411 423q107 147 157 320q24 79 24 158q0 68 -18 137q-61 223 -290 266q-60 10 -119 10q-99 0 -196 -28q-230 -68 -400 -236q-74 -71 -128 -158q-48 -77 -60 -167
q-4 -29 -4 -58q0 -56 14 -110q2 -6 4.5 -8t5.5 -2q2 0 5 1q29 8 57 13q19 4 31 18q67 70 137 137q88 86 187 161q54 41 115 71q54 28 114 32l13 1q43 0 80 -24q34 -25 34 -60q0 -15 -6 -31q-12 -29 -35 -51q-36 -35 -77 -62q-103 -67 -218 -109q-102 -36 -207 -62
q-15 -2 -28 -13q-71 -74 -139 -152q-5 -5 -5 -11q0 -4 4 -9q26 -39 60 -71q97 -89 212 -152q34 -18 70 -33q50 -20 103 -20h17q6 0 13 -2zM570 800q4 -1 6 -1q3 0 5 1h2q81 22 161 50q130 45 239 129q29 22 52 51q15 17 21 40q1 6 1 11q0 25 -28 33q-9 2 -18 2q-8 0 -17 -2
q-51 -10 -95 -37q-59 -33 -111 -75q-112 -92 -213 -195q-1 -2 -3 -4q-1 -1 -2 -3zM340 685q4 5 8 9q14 14 28 33l-10 -2q-9 -2 -16 -4q-20 -4 -21 -7t-1 -4q0 -7 8 -22l2 -1q0 -1 2 -2zM1199 1825q-5 -2 -7.5 -4t-4.5 -5l-2 -2q-31 -32 -59 -65q-10 -11 -19 -22
q-20 -23 -43 -43h-1q-6 -6 -15 -10q-3 -1 -7 -1t-9 2q-5 4 -5 8q0 2 1 4q4 8 8 15q57 100 129 195q3 3 5 6q4 6 10 12q14 16 37 16h8q31 -6 35 -30q11 -53 27 -105q6 -18 11 -35q7 -25 21 -48q8 -12 8 -24q0 -8 -3 -16q-2 -6 -6 -10q-9 -8 -19 -8q-8 0 -16 5q-17 13 -27 29
q-21 39 -35 80q-7 19 -15 38q-3 9 -7 18z" />
    <glyph glyph-name="Otilde" unicode="&#xd5;" horiz-adv-x="1761" 
d="M1566 1101q0 -70 -13.5 -135t-36.5 -128q-63 -167 -171 -310q-151 -202 -346 -362q-109 -93 -233 -166q-119 -71 -255 -98q-51 -9 -101 -9q-78 0 -154 22q-23 7 -44 17q-147 69 -148 229q0 86 33 165q34 83 84 157q49 73 105 140q6 6 7.5 9t1.5 5v3q-1 3 -5 10q0 1 -1 1
q-10 18 -18 37q-3 10 -12 10l-4 -1q-4 -2 -9 -3q-85 -22 -167 -55q-18 -7 -30 -23q-13 -16 -30 -16q-6 0 -14 3q-19 7 -23 26v4q0 16 13 26q19 13 41 16q21 4 41 8q25 5 49 10q57 12 115 25q11 2 12.5 4t1.5 3q0 4 -4 12q-25 75 -25 151q0 60 16 121q18 69 57 130
q52 84 123 153q183 179 429 250q102 29 205 29q91 0 182 -23q250 -64 312 -312q16 -65 16 -128v-7zM863 310q-1 -3 -3 -4.5t-4 -2.5q-1 0 -1 -1q-23 -9 -48 -9q-12 0 -25 2q-63 11 -119 40q-170 85 -303 219q-6 7 -9 7t-8 -8q-77 -93 -134 -200q-16 -29 -28 -61
q-27 -67 -27 -140q3 -119 115 -161l24 -8q60 -15 121 -15q41 0 82 7q108 18 206 69q119 63 223 147q237 182 411 423q107 147 157 320q24 79 24 158q0 68 -18 137q-61 223 -290 266q-60 10 -119 10q-99 0 -196 -28q-230 -68 -400 -236q-74 -71 -128 -158q-48 -77 -60 -167
q-4 -29 -4 -58q0 -56 14 -110q2 -6 4.5 -8t5.5 -2q2 0 5 1q29 8 57 13q19 4 31 18q67 70 137 137q88 86 187 161q54 41 115 71q54 28 114 32l13 1q43 0 80 -24q34 -25 34 -60q0 -15 -6 -31q-12 -29 -35 -51q-36 -35 -77 -62q-103 -67 -218 -109q-102 -36 -207 -62
q-15 -2 -28 -13q-71 -74 -139 -152q-5 -5 -5 -11q0 -4 4 -9q26 -39 60 -71q97 -89 212 -152q34 -18 70 -33q50 -20 103 -20h17q6 0 13 -2zM570 800q4 -1 6 -1q3 0 5 1h2q81 22 161 50q130 45 239 129q29 22 52 51q15 17 21 40q1 6 1 11q0 25 -28 33q-9 2 -18 2q-8 0 -17 -2
q-51 -10 -95 -37q-59 -33 -111 -75q-112 -92 -213 -195q-1 -2 -3 -4q-1 -1 -2 -3zM340 685q4 5 8 9q14 14 28 33l-10 -2q-9 -2 -16 -4q-20 -4 -21 -7t-1 -4q0 -7 8 -22l2 -1q0 -1 2 -2zM1212 1855h2q44 0 69 -56q2 -5 4 -9q4 -9 7 -18q7 -18 20 -19h8q16 0 32 7q28 12 53 32
q38 30 80 45h1q1 1 2 1h1q3 1 5.5 0.5t3.5 -4.5q1 -3 1 -5v-3q-1 -4 -3 -7q-11 -19 -27 -29q-26 -19 -51 -39l-40 -30q-33 -23 -69 -28q-6 -1 -11 -1q-32 0 -53 40l-4 8q-6 10 -10 20q-7 16 -20 16h-4q-15 0 -29 -6q-42 -17 -82 -44l-60 -38q-6 -4 -13 -5q-10 1 -10 11
q0 3 1 7q4 11 10 19q17 24 36 44q57 61 125 86q5 2 11 3q5 1 10 1q2 0 4 1z" />
    <glyph glyph-name="Odieresis" unicode="&#xd6;" horiz-adv-x="1761" 
d="M1566 1101q0 -70 -13.5 -135t-36.5 -128q-63 -167 -171 -310q-151 -202 -346 -362q-109 -93 -233 -166q-119 -71 -255 -98q-51 -9 -101 -9q-78 0 -154 22q-23 7 -44 17q-147 69 -148 229q0 86 33 165q34 83 84 157q49 73 105 140q6 6 7.5 9t1.5 5v3q-1 3 -5 10q0 1 -1 1
q-10 18 -18 37q-3 10 -12 10l-4 -1q-4 -2 -9 -3q-85 -22 -167 -55q-18 -7 -30 -23q-13 -16 -30 -16q-6 0 -14 3q-19 7 -23 26v4q0 16 13 26q19 13 41 16q21 4 41 8q25 5 49 10q57 12 115 25q11 2 12.5 4t1.5 3q0 4 -4 12q-25 75 -25 151q0 60 16 121q18 69 57 130
q52 84 123 153q183 179 429 250q102 29 205 29q91 0 182 -23q250 -64 312 -312q16 -65 16 -128v-7zM863 310q-1 -3 -3 -4.5t-4 -2.5q-1 0 -1 -1q-23 -9 -48 -9q-12 0 -25 2q-63 11 -119 40q-170 85 -303 219q-6 7 -9 7t-8 -8q-77 -93 -134 -200q-16 -29 -28 -61
q-27 -67 -27 -140q3 -119 115 -161l24 -8q60 -15 121 -15q41 0 82 7q108 18 206 69q119 63 223 147q237 182 411 423q107 147 157 320q24 79 24 158q0 68 -18 137q-61 223 -290 266q-60 10 -119 10q-99 0 -196 -28q-230 -68 -400 -236q-74 -71 -128 -158q-48 -77 -60 -167
q-4 -29 -4 -58q0 -56 14 -110q2 -6 4.5 -8t5.5 -2q2 0 5 1q29 8 57 13q19 4 31 18q67 70 137 137q88 86 187 161q54 41 115 71q54 28 114 32l13 1q43 0 80 -24q34 -25 34 -60q0 -15 -6 -31q-12 -29 -35 -51q-36 -35 -77 -62q-103 -67 -218 -109q-102 -36 -207 -62
q-15 -2 -28 -13q-71 -74 -139 -152q-5 -5 -5 -11q0 -4 4 -9q26 -39 60 -71q97 -89 212 -152q34 -18 70 -33q50 -20 103 -20h17q6 0 13 -2zM570 800q4 -1 6 -1q3 0 5 1h2q81 22 161 50q130 45 239 129q29 22 52 51q15 17 21 40q1 6 1 11q0 25 -28 33q-9 2 -18 2q-8 0 -17 -2
q-51 -10 -95 -37q-59 -33 -111 -75q-112 -92 -213 -195q-1 -2 -3 -4q-1 -1 -2 -3zM340 685q4 5 8 9q14 14 28 33l-10 -2q-9 -2 -16 -4q-20 -4 -21 -7t-1 -4q0 -7 8 -22l2 -1q0 -1 2 -2zM1257 1802q20 -1 33.5 -12.5t13.5 -28.5q0 -18 -12.5 -30.5t-29.5 -12.5t-30 13.5
t-15 31.5q2 16 12 27.5t25 11.5h3zM1063 1802q20 -1 33 -12.5t13 -28.5q0 -18 -12.5 -30.5t-29.5 -12.5q-16 0 -29.5 13.5t-14.5 31.5q1 16 11.5 27.5t25.5 11.5h3z" />
    <glyph glyph-name="multiply" unicode="&#xd7;" horiz-adv-x="620" 
d="M397 706l17 -17q21 -20 41 -39q15 -15 23 -35q5 -7 5 -15q0 -7 -5 -15q-8 -10 -18 -10q-4 0 -9 2q-19 7 -36 19q-33 24 -64 52q-4 4 -9 7q-7 7 -9.5 8.5t-4.5 1.5t-4 -1q-4 -1 -12 -6q-11 -7 -21 -13q-41 -27 -84 -50q-14 -8 -25 -20q-4 -4 -7.5 -5t-4.5 -1q-3 0 -6 2
q-9 6 -9 18v2q1 9 6 17q30 62 79 105q3 2 6 5q4 3 4 5v2q0 3 -3 5q-7 4 -14 9q-23 18 -49 31q-3 2 -6 3l-12 6q-16 7 -16 25q1 18 19 26q10 3 20 3q8 0 17 -2q27 -5 51 -20q3 -2 5 -3q27 -15 52 -34q6 -5 13 -5q5 0 10 3q31 18 66 25q12 3 24 3q20 -2 28 -23q1 -6 1 -11
q0 -13 -9 -25q-11 -12 -25 -20q-7 -5 -15 -10q-5 -2 -10 -5z" />
    <glyph glyph-name="Oslash" unicode="&#xd8;" horiz-adv-x="1763" 
d="M1567 1101v7q0 63 -16 128q-63 248 -312 312q-91 23 -182 23q-103 0 -205 -29q-247 -71 -429 -250q-72 -69 -124 -153q-38 -61 -56 -130q-16 -61 -16 -121q0 -76 25 -151q3 -9 3 -12q0 -1 -1 -3t-13 -4q-57 -13 -114 -25q-25 -5 -49 -10q-21 -4 -41 -8q-22 -3 -41 -16
q-13 -9 -13 -24v-6q4 -19 23 -26q8 -3 14 -3q17 0 30 16q12 16 30 23q82 33 167 55q4 1 9 3q2 1 4 1q8 0 11 -10q9 -19 19 -37v-1q4 -7 5 -10l1 -4q0 -1 -1.5 -4t-7.5 -9q-56 -67 -105 -140q-50 -74 -84 -157q-34 -79 -34 -165q2 -160 148 -229q22 -10 45 -17
q76 -22 154 -22q50 0 100 9q137 27 256 98q123 73 232 166q196 160 347 362q108 143 170 310q24 63 37.5 128t13.5 135zM864 310q-7 2 -13 2h-18q-53 0 -103 20q-35 15 -69 33q-116 63 -212 152q-34 32 -61 71q-4 5 -4 9q0 6 5 11q68 78 140 152q12 11 28 13q105 26 207 62
q115 42 217 109q42 27 77 62q23 22 35 51q6 17 6 32q0 34 -33 59q-37 24 -80 24q-7 0 -13 -1q-60 -4 -114 -32q-61 -30 -115 -71q-99 -75 -187 -161q-70 -67 -137 -137q-13 -14 -31 -18q-29 -5 -57 -13q-3 -1 -5 -1q-4 0 -6.5 2t-3.5 8q-14 54 -14 110q0 29 4 58
q12 90 59 167q54 87 129 158q170 168 400 236q97 28 195 28q59 0 119 -10q230 -43 291 -266q18 -69 18 -137q0 -79 -24 -158q-51 -173 -157 -320q-175 -241 -411 -423q-105 -84 -224 -147q-97 -51 -206 -69q-41 -7 -82 -7q-60 0 -120 15l-24 8q-113 42 -115 161v5
q0 70 27 135q12 32 27 61q57 107 134 200q6 8 9 8t9 -7q133 -134 303 -219q56 -29 119 -40q12 -2 24 -2q25 0 48 9q1 1 2 1q2 1 4 2.5t3 4.5zM571 800q1 2 2 3q1 2 3 4q101 103 213 195q52 42 110 75q45 27 96 37q9 2 17 2q9 0 17 -2q29 -8 29 -33q0 -5 -1 -11
q-6 -23 -21 -40q-23 -29 -53 -51q-108 -84 -239 -129q-79 -28 -161 -50h-1q-2 -1 -5 -1t-6 1zM340 685l-2 2q-1 1 -2 1q-8 14 -8 21q0 2 1.5 5t21.5 7q7 2 16 4q4 1 10 2q-14 -19 -28 -33zM65 -307q-7 -17 -7 -29q0 -7 3 -12q4 -6 10 -6q8 0 20 8q30 21 56 54q15 19 31 39
q30 39 61 79q441 561 887 1110q162 200 329 390q2 3 5 6q4 4 7.5 8t8.5 6q30 14 56 43.5t50 65.5q12 19 16 35q1 6 1 11q0 9 -4 16q-5 7 -12 7q-12 0 -32 -18q-15 -14 -30 -31l-1 -1q-132 -144 -261 -297q-484 -579 -960 -1173q-84 -105 -169 -210l-22 -28q-27 -33 -43 -73z
" />
    <glyph glyph-name="Ugrave" unicode="&#xd9;" 
d="M841 465q-11 -6 -16 -15q-1 -1 -2 -3q-157 -211 -342 -399q-51 -54 -110 -100q-50 -40 -111 -62q-35 -13 -72 -13q-71 3 -97 68q-13 39 -13 79q0 14 1 27q8 95 41 185q72 210 180 406q71 131 149 258l26 44q100 167 193 338q46 80 72 169q7 24 9 50v6q0 10 -3 13
q-2 2 -7 2t-13 -2q-31 -9 -59 -25q-76 -43 -144 -97q-159 -124 -297 -271q-156 -161 -305 -328q-2 -2 -4 -5q-4 -5 -8.5 -9t-13.5 -4q-1 0 -3 -2t-4 -5t-3 -5q-70 -89 -158 -162q-20 -18 -43 -30q-14 -8 -28 -8q-10 0 -20 4q-16 6 -24 21q-3 6 -3 11q0 8 5 15q7 8 16 8
q3 0 7 -1q11 -4 20 -4q6 0 12 2q14 5 28 15q52 35 98 79q101 99 196 202q34 36 67 72q31 32 61 65q105 114 216 222q132 129 282 236q35 26 74 48q23 13 49 18q9 1 17 1q52 0 71 -53q6 -23 6 -46q0 -21 -5 -41q-14 -63 -41 -121q-27 -59 -59 -117q-108 -196 -224 -388
l-40 -68q-130 -215 -225 -447q-39 -96 -62 -196q-9 -37 -9 -73q0 -19 2 -37l4 -14v-1q5 -17 24 -18h6q20 0 39 6q45 15 83 42q47 33 88 72q164 153 302 330q56 70 111 140q101 131 206 259q13 17 24 35q3 3 5 7q200 300 415 590q50 70 111 131q12 12 26 23q9 8 21 11
q6 2 12 2q16 0 28 -13q8 -10 8 -21q0 -9 -5 -18q-12 -21 -27 -40l-2 -2q-22 -29 -45 -58q-47 -61 -94 -123q-82 -108 -158 -220q-40 -58 -81 -116q-127 -179 -241 -366q-129 -211 -200 -448l-12 -36q-15 -43 -24 -88v-4q-1 -5 -1 -9v-6t7 -9q2 -2 2.5 -5.5t-0.5 -6.5
q-4 -22 -24 -30q-6 -2 -12 -2q-13 0 -24 10q-13 13 -16 32q-2 19 -2 37t2 36l2 20q6 65 27 127q34 103 78 201q2 5 4 11q1 2 3 5zM1073 1882q3 1 5 1q13 0 21 -13q53 -71 122 -117l26 -20l22 -16l24 -20q3 -1 4 -3t1 -4q0 -3 -3 -6q-1 -5 -4 -6.5t-5 -1.5h-3q-14 4 -26 10
l-140 74q-4 3 -9 5q-28 16 -59 24q-19 9 -19 32q0 8 2 18q5 17 16.5 29t24.5 14z" />
    <glyph glyph-name="Uacute" unicode="&#xda;" 
d="M841 465q-11 -6 -16 -15q-1 -1 -2 -3q-157 -211 -342 -399q-51 -54 -110 -100q-50 -40 -111 -62q-35 -13 -72 -13q-71 3 -97 68q-13 39 -13 79q0 14 1 27q8 95 41 185q72 210 180 406q71 131 149 258l26 44q100 167 193 338q46 80 72 169q7 24 9 50v6q0 10 -3 13
q-2 2 -7 2t-13 -2q-31 -9 -59 -25q-76 -43 -144 -97q-159 -124 -297 -271q-156 -161 -305 -328q-2 -2 -4 -5q-4 -5 -8.5 -9t-13.5 -4q-1 0 -3 -2t-4 -5t-3 -5q-70 -89 -158 -162q-20 -18 -43 -30q-14 -8 -28 -8q-10 0 -20 4q-16 6 -24 21q-3 6 -3 11q0 8 5 15q7 8 16 8
q3 0 7 -1q11 -4 20 -4q6 0 12 2q14 5 28 15q52 35 98 79q101 99 196 202q34 36 67 72q31 32 61 65q105 114 216 222q132 129 282 236q35 26 74 48q23 13 49 18q9 1 17 1q52 0 71 -53q6 -23 6 -46q0 -21 -5 -41q-14 -63 -41 -121q-27 -59 -59 -117q-108 -196 -224 -388
l-40 -68q-130 -215 -225 -447q-39 -96 -62 -196q-9 -37 -9 -73q0 -19 2 -37l4 -14v-1q5 -17 24 -18h6q20 0 39 6q45 15 83 42q47 33 88 72q164 153 302 330q56 70 111 140q101 131 206 259q13 17 24 35q3 3 5 7q200 300 415 590q50 70 111 131q12 12 26 23q9 8 21 11
q6 2 12 2q16 0 28 -13q8 -10 8 -21q0 -9 -5 -18q-12 -21 -27 -40l-2 -2q-22 -29 -45 -58q-47 -61 -94 -123q-82 -108 -158 -220q-40 -58 -81 -116q-127 -179 -241 -366q-129 -211 -200 -448l-12 -36q-15 -43 -24 -88v-4q-1 -5 -1 -9v-6t7 -9q2 -2 2.5 -5.5t-0.5 -6.5
q-4 -22 -24 -30q-6 -2 -12 -2q-13 0 -24 10q-13 13 -16 32q-2 19 -2 37t2 36l2 20q6 65 27 127q34 103 78 201q2 5 4 11q1 2 3 5zM1254 1882q13 -2 24.5 -14t16.5 -29q2 -10 2 -18q0 -23 -19 -32q-31 -8 -59 -24q-5 -2 -9 -5l-140 -74q-12 -6 -26 -10h-3q-2 0 -4 1
q-4 2 -5 7q-3 3 -3 6q0 2 1 3q1 3 4 4l24 20l22 16l26 20q69 46 122 117q8 13 21 13q2 0 5 -1z" />
    <glyph glyph-name="Ucircumflex" unicode="&#xdb;" 
d="M841 465q-11 -6 -16 -15q-1 -1 -2 -3q-157 -211 -342 -399q-51 -54 -110 -100q-50 -40 -111 -62q-35 -13 -72 -13q-71 3 -97 68q-13 39 -13 79q0 14 1 27q8 95 41 185q72 210 180 406q71 131 149 258l26 44q100 167 193 338q46 80 72 169q7 24 9 50v6q0 10 -3 13
q-2 2 -7 2t-13 -2q-31 -9 -59 -25q-76 -43 -144 -97q-159 -124 -297 -271q-156 -161 -305 -328q-2 -2 -4 -5q-4 -5 -8.5 -9t-13.5 -4q-1 0 -3 -2t-4 -5t-3 -5q-70 -89 -158 -162q-20 -18 -43 -30q-14 -8 -28 -8q-10 0 -20 4q-16 6 -24 21q-3 6 -3 11q0 8 5 15q7 8 16 8
q3 0 7 -1q11 -4 20 -4q6 0 12 2q14 5 28 15q52 35 98 79q101 99 196 202q34 36 67 72q31 32 61 65q105 114 216 222q132 129 282 236q35 26 74 48q23 13 49 18q9 1 17 1q52 0 71 -53q6 -23 6 -46q0 -21 -5 -41q-14 -63 -41 -121q-27 -59 -59 -117q-108 -196 -224 -388
l-40 -68q-130 -215 -225 -447q-39 -96 -62 -196q-9 -37 -9 -73q0 -19 2 -37l4 -14v-1q5 -17 24 -18h6q20 0 39 6q45 15 83 42q47 33 88 72q164 153 302 330q56 70 111 140q101 131 206 259q13 17 24 35q3 3 5 7q200 300 415 590q50 70 111 131q12 12 26 23q9 8 21 11
q6 2 12 2q16 0 28 -13q8 -10 8 -21q0 -9 -5 -18q-12 -21 -27 -40l-2 -2q-22 -29 -45 -58q-47 -61 -94 -123q-82 -108 -158 -220q-40 -58 -81 -116q-127 -179 -241 -366q-129 -211 -200 -448l-12 -36q-15 -43 -24 -88v-4q-1 -5 -1 -9v-6t7 -9q2 -2 2.5 -5.5t-0.5 -6.5
q-4 -22 -24 -30q-6 -2 -12 -2q-13 0 -24 10q-13 13 -16 32q-2 19 -2 37t2 36l2 20q6 65 27 127q34 103 78 201q2 5 4 11q1 2 3 5zM1198 1825q-5 -2 -8 -4t-5 -5l-2 -2q-31 -32 -58 -65l-20 -22q-19 -23 -43 -43q-7 -6 -16 -10q-3 -1 -7 -1t-8 2q-5 4 -5 8q0 2 1 4q3 8 7 15
q57 100 130 195q2 3 5 6q4 6 9 12q15 16 38 16h8q31 -6 35 -30q10 -53 27 -105q5 -18 10 -35q8 -25 22 -48q8 -12 8 -24q0 -8 -3 -16q-3 -6 -7 -10q-9 -8 -19 -8q-8 0 -16 5q-16 13 -26 29q-22 39 -36 80q-6 19 -14 38q-4 9 -7 18z" />
    <glyph glyph-name="Udieresis" unicode="&#xdc;" 
d="M841 465q-11 -6 -16 -15q-1 -1 -2 -3q-157 -211 -342 -399q-51 -54 -110 -100q-50 -40 -111 -62q-35 -13 -72 -13q-71 3 -97 68q-13 39 -13 79q0 14 1 27q8 95 41 185q72 210 180 406q71 131 149 258l26 44q100 167 193 338q46 80 72 169q7 24 9 50v6q0 10 -3 13
q-2 2 -7 2t-13 -2q-31 -9 -59 -25q-76 -43 -144 -97q-159 -124 -297 -271q-156 -161 -305 -328q-2 -2 -4 -5q-4 -5 -8.5 -9t-13.5 -4q-1 0 -3 -2t-4 -5t-3 -5q-70 -89 -158 -162q-20 -18 -43 -30q-14 -8 -28 -8q-10 0 -20 4q-16 6 -24 21q-3 6 -3 11q0 8 5 15q7 8 16 8
q3 0 7 -1q11 -4 20 -4q6 0 12 2q14 5 28 15q52 35 98 79q101 99 196 202q34 36 67 72q31 32 61 65q105 114 216 222q132 129 282 236q35 26 74 48q23 13 49 18q9 1 17 1q52 0 71 -53q6 -23 6 -46q0 -21 -5 -41q-14 -63 -41 -121q-27 -59 -59 -117q-108 -196 -224 -388
l-40 -68q-130 -215 -225 -447q-39 -96 -62 -196q-9 -37 -9 -73q0 -19 2 -37l4 -14v-1q5 -17 24 -18h6q20 0 39 6q45 15 83 42q47 33 88 72q164 153 302 330q56 70 111 140q101 131 206 259q13 17 24 35q3 3 5 7q200 300 415 590q50 70 111 131q12 12 26 23q9 8 21 11
q6 2 12 2q16 0 28 -13q8 -10 8 -21q0 -9 -5 -18q-12 -21 -27 -40l-2 -2q-22 -29 -45 -58q-47 -61 -94 -123q-82 -108 -158 -220q-40 -58 -81 -116q-127 -179 -241 -366q-129 -211 -200 -448l-12 -36q-15 -43 -24 -88v-4q-1 -5 -1 -9v-6t7 -9q2 -2 2.5 -5.5t-0.5 -6.5
q-4 -22 -24 -30q-6 -2 -12 -2q-13 0 -24 10q-13 13 -16 32q-2 19 -2 37t2 36l2 20q6 65 27 127q34 103 78 201q2 5 4 11q1 2 3 5zM1255 1802q21 -1 34 -12.5t13 -28.5q0 -18 -12.5 -30.5t-29.5 -12.5t-30 13.5t-14 31.5q1 16 11.5 27.5t25.5 11.5h2zM1061 1802
q20 -1 33.5 -12.5t13.5 -28.5q0 -18 -12.5 -30.5t-29.5 -12.5t-30 13.5t-15 31.5q2 16 12 27.5t25 11.5h3z" />
    <glyph glyph-name="Yacute" unicode="&#xdd;" horiz-adv-x="1316" 
d="M931 581q9 0 16 4l4 2q33 15 65 29q93 42 187 78q39 14 78 27l18 6q13 5 27 6q17 -1 19 -14v-3q0 -5 -3 -7q-3 -3 -8 -5q-1 0 -2 -1q-100 -28 -224 -80t-195 -93q-16 -6 -24 -22q-160 -278 -358 -526q-91 -115 -205 -205q-38 -32 -82 -55q-33 -18 -69 -18q-9 0 -17 1
q-93 19 -109 120q-1 10 -1 19q0 41 17 77q22 46 53 84q73 88 161 159q224 185 477 323q21 11 33 33q7 12 14 25q29 50 55 102q182 323 259 477q32 62 54 128l2 4q4 12 6 24q-3 3 -6 2.5t-6 -1.5q-1 -1 -2 -1q-29 -12 -55 -32q-58 -43 -109 -97q-70 -72 -139 -143
q-60 -63 -121 -126q-78 -80 -160 -157q-85 -78 -177 -145q-85 -61 -177 -109q-1 0 -2 -1q-32 -17 -67 -18h-6q-32 0 -60 20q-31 22 -47 59q-14 36 -14 75q0 77 16 152q40 198 135 374q95 187 230 345q44 52 97 92q34 28 76 36q9 2 18 2q37 -2 48.5 -21t11.5 -36
q0 -14 -5 -30l-10 -22l-2 -2q-1 -2 -2.5 -3t-3.5 -1q-4 2 -4 6q-1 5 -1 10v6l1 6l-1 5q0 18 -4 20t-6 2q-6 0 -16 -6q-21 -12 -39 -29q-31 -26 -58 -57q-209 -237 -325 -536q-50 -131 -66 -272q-3 -20 -3 -40q0 -10 1 -20q1 -12 4 -24q5 -22 26 -23q7 -1 15 -1q24 0 48 8
q69 22 125 68q52 39 103 79l14 12q107 85 209 177q14 12 27 24t25 25q9 10 19 19q158 152 323 294q44 38 93 68q13 8 27 16q1 1 2 1q17 9 30 9q14 0 24 -9q21 -17 25 -44q1 -10 1 -19q0 -24 -7 -48q-18 -66 -48 -127q-171 -310 -243 -448q-11 -21 -21 -42l-2 -4
q-5 -7 -7 -17zM734 431h-3q-2 0 -4 -1q-3 -1 -5 -2q-1 -1 -3 -2q-193 -109 -365 -252q-89 -72 -166 -159q-32 -36 -57 -78q-20 -32 -26 -70q-1 -6 -1 -13q0 -22 11 -41q12 -25 35 -25q7 0 14 2q20 6 38 16q36 21 69 48q106 85 192 194q138 176 260 363l2 4q6 6 9 16z
M959 1882q3 1 5 1q13 0 21 -13q53 -71 121 -117q13 -10 27 -20q10 -8 21 -16l24 -20q4 -1 4.5 -3t0.5 -3q0 -3 -2 -7q-2 -5 -4.5 -6.5t-4.5 -1.5h-3q-14 4 -26 10l-140 74q-4 3 -9 5q-28 16 -60 24q-19 9 -19 32q0 8 2 18q5 17 16.5 29t25.5 14z" />
    <glyph glyph-name="agrave" unicode="&#xe0;" horiz-adv-x="456" 
d="M128 583q-10 -5 -14 -11l-2 -4q-20 -23 -40 -47q-27 -31 -54 -63q-25 -29 -54 -53q-14 -13 -30 -20q-12 -5 -24 -5t-23 6q-21 11 -27 37q-3 13 -3 25t3 24q37 163 154 281q23 22 51 36q4 3 8 4q19 7 35 7q29 0 50 -22q14 -17 14.5 -30t0.5 -15q0 -22 -10 -42q-1 0 -1 -1
q-1 -2 -2 -3q-3 -4 -5.5 -6.5t-5.5 -2.5q-2 0 -4 1q-5 1 -6.5 4.5t-2.5 8.5q0 2 -1 4q-1 10 -3 19q-2 10 -4 10.5t-3 0.5q-3 0 -10 -5q-31 -21 -55 -49q-70 -84 -104 -188v-2q-1 -2 -1 -4v-2q0 -2 1 -4q11 4 20 12q2 2 4 3q87 67 158 151q24 27 39 60q7 16 17 32l4 8
q7 13 17 22q12 12 27 12q6 0 12 -2q23 -9 26 -33l1 -9q0 -13 -5 -26q-9 -23 -19 -45q-12 -25 -19 -40q-9 -17 -16 -33.5t-15 -46.5q-8 -26 -12 -52l-2 -16v-2q0 -11 5 -11q4 0 10 5q21 16 40 35q14 15 28 29q101 95 162 185q8 10 19 17q3 3 6 3q4 0 7 -3q4 -3 4 -8
q0 -2 -1 -5q-5 -12 -13 -22q-15 -20 -33 -45q-49 -69 -106.5 -143.5t-103.5 -114.5q-21 -16 -42 -16h-7q-26 3 -45 27q-20 29 -20 64v3q2 51 17 90q2 7 4 13q1 2 1 5q1 3 3 8zM56 1096q3 1 5 1q14 0 22 -13q52 -71 121 -117l26 -20l22 -16l24 -20q3 -1 4 -3t1 -3q0 -3 -2 -7
q-2 -5 -5 -6.5t-5 -1.5h-2q-14 4 -27 10q-70 37 -139 74q-5 3 -9 5q-28 16 -60 24q-19 9 -19 32q0 8 2 18q5 17 16.5 29t24.5 14z" />
    <glyph glyph-name="aacute" unicode="&#xe1;" horiz-adv-x="456" 
d="M128 583q-10 -5 -14 -11l-2 -4q-20 -23 -40 -47q-27 -31 -54 -63q-25 -29 -54 -53q-14 -13 -30 -20q-12 -5 -24 -5t-23 6q-21 11 -27 37q-3 13 -3 25t3 24q37 163 154 281q23 22 51 36q4 3 8 4q19 7 35 7q29 0 50 -22q14 -17 14.5 -30t0.5 -15q0 -22 -10 -42q-1 0 -1 -1
q-1 -2 -2 -3q-3 -4 -5.5 -6.5t-5.5 -2.5q-2 0 -4 1q-5 1 -6.5 4.5t-2.5 8.5q0 2 -1 4q-1 10 -3 19q-2 10 -4 10.5t-3 0.5q-3 0 -10 -5q-31 -21 -55 -49q-70 -84 -104 -188v-2q-1 -2 -1 -4v-2q0 -2 1 -4q11 4 20 12q2 2 4 3q87 67 158 151q24 27 39 60q7 16 17 32l4 8
q7 13 17 22q12 12 27 12q6 0 12 -2q23 -9 26 -33l1 -9q0 -13 -5 -26q-9 -23 -19 -45q-12 -25 -19 -40q-9 -17 -16 -33.5t-15 -46.5q-8 -26 -12 -52l-2 -16v-2q0 -11 5 -11q4 0 10 5q21 16 40 35q14 15 28 29q101 95 162 185q8 10 19 17q3 3 6 3q4 0 7 -3q4 -3 4 -8
q0 -2 -1 -5q-5 -12 -13 -22q-15 -20 -33 -45q-49 -69 -106.5 -143.5t-103.5 -114.5q-21 -16 -42 -16h-7q-26 3 -45 27q-20 29 -20 64v3q2 51 17 90q2 7 4 13q1 2 1 5q1 3 3 8zM237 1096q14 -2 25.5 -14t16.5 -29q2 -10 2 -18q0 -23 -19 -32q-32 -8 -60 -24q-5 -2 -9 -5
l-140 -74q-12 -6 -26 -10h-3q-2 0 -4 1q-3 2 -5 7q-2 4 -2 7v2q1 3 5 4l24 20q11 8 21 16q14 10 27 20q68 46 121 117q8 13 21 13q2 0 5 -1z" />
    <glyph glyph-name="acircumflex" unicode="&#xe2;" horiz-adv-x="456" 
d="M128 583q-10 -5 -14 -11l-2 -4q-20 -23 -40 -47q-27 -31 -54 -63q-25 -29 -54 -53q-14 -13 -30 -20q-12 -5 -24 -5t-23 6q-21 11 -27 37q-3 13 -3 25t3 24q37 163 154 281q23 22 51 36q4 3 8 4q19 7 35 7q29 0 50 -22q14 -17 14.5 -30t0.5 -15q0 -22 -10 -42q-1 0 -1 -1
q-1 -2 -2 -3q-3 -4 -5.5 -6.5t-5.5 -2.5q-2 0 -4 1q-5 1 -6.5 4.5t-2.5 8.5q0 2 -1 4q-1 10 -3 19q-2 10 -4 10.5t-3 0.5q-3 0 -10 -5q-31 -21 -55 -49q-70 -84 -104 -188v-2q-1 -2 -1 -4v-2q0 -2 1 -4q11 4 20 12q2 2 4 3q87 67 158 151q24 27 39 60q7 16 17 32l4 8
q7 13 17 22q12 12 27 12q6 0 12 -2q23 -9 26 -33l1 -9q0 -13 -5 -26q-9 -23 -19 -45q-12 -25 -19 -40q-9 -17 -16 -33.5t-15 -46.5q-8 -26 -12 -52l-2 -16v-2q0 -11 5 -11q4 0 10 5q21 16 40 35q14 15 28 29q101 95 162 185q8 10 19 17q3 3 6 3q4 0 7 -3q4 -3 4 -8
q0 -2 -1 -5q-5 -12 -13 -22q-15 -20 -33 -45q-49 -69 -106.5 -143.5t-103.5 -114.5q-21 -16 -42 -16h-7q-26 3 -45 27q-20 29 -20 64v3q2 51 17 90q2 7 4 13q1 2 1 5q1 3 3 8zM212 1075q-5 -2 -7.5 -4.5l-4.5 -4.5q-1 -2 -2 -3q-31 -32 -59 -66q-10 -12 -19 -23
q-20 -24 -43 -44h-1q-6 -7 -15 -10q-3 -1 -7 -1t-9 2q-5 4 -5 8q0 2 1 4q4 8 8 15q57 103 129 200q3 3 5 6q4 7 10 13q13 17 36 17q4 0 9 -1q31 -6 35 -30q11 -55 27 -108q6 -18 11 -36q7 -26 21 -49q8 -12 8 -25q0 -8 -3 -16q-2 -6 -6 -11q-9 -8 -18 -8q-8 0 -17 6
q-17 12 -27 29q-21 40 -35 82q-7 20 -15 39q-3 9 -7 19z" />
    <glyph glyph-name="atilde" unicode="&#xe3;" horiz-adv-x="456" 
d="M128 583q-10 -5 -14 -11l-2 -4q-20 -23 -40 -47q-27 -31 -54 -63q-25 -29 -54 -53q-14 -13 -30 -20q-12 -5 -24 -5t-23 6q-21 11 -27 37q-3 13 -3 25t3 24q37 163 154 281q23 22 51 36q4 3 8 4q19 7 35 7q29 0 50 -22q14 -17 14.5 -30t0.5 -15q0 -22 -10 -42q-1 0 -1 -1
q-1 -2 -2 -3q-3 -4 -5.5 -6.5t-5.5 -2.5q-2 0 -4 1q-5 1 -6.5 4.5t-2.5 8.5q0 2 -1 4q-1 10 -3 19q-2 10 -4 10.5t-3 0.5q-3 0 -10 -5q-31 -21 -55 -49q-70 -84 -104 -188v-2q-1 -2 -1 -4v-2q0 -2 1 -4q11 4 20 12q2 2 4 3q87 67 158 151q24 27 39 60q7 16 17 32l4 8
q7 13 17 22q12 12 27 12q6 0 12 -2q23 -9 26 -33l1 -9q0 -13 -5 -26q-9 -23 -19 -45q-12 -25 -19 -40q-9 -17 -16 -33.5t-15 -46.5q-8 -26 -12 -52l-2 -16v-2q0 -11 5 -11q4 0 10 5q21 16 40 35q14 15 28 29q101 95 162 185q8 10 19 17q3 3 6 3q4 0 7 -3q4 -3 4 -8
q0 -2 -1 -5q-5 -12 -13 -22q-15 -20 -33 -45q-49 -69 -106.5 -143.5t-103.5 -114.5q-21 -16 -42 -16h-7q-26 3 -45 27q-20 29 -20 64v3q2 51 17 90q2 7 4 13q1 2 1 5q1 3 3 8zM181 1091h7q45 0 68 -56q2 -4 4 -9q4 -8 7 -17q7 -18 21 -19h7q17 0 33 7q27 12 52 31
q38 31 80 46h1q1 1 3 1q3 1 5.5 0.5t4.5 -4.5q1 -4 0.5 -8t-2.5 -7q-12 -19 -27 -30q-27 -18 -52 -38l-40 -30q-32 -24 -68 -29q-5 -1 -10 -1q-33 0 -55 40q-2 4 -4 9l-10 20q-7 16 -20 16h-4q-14 0 -28 -6q-43 -17 -82 -44q-30 -19 -61 -38q-6 -4 -13 -5q-9 1 -9 10
q0 3 1 8q4 11 10 19q16 24 35 44q57 61 125 86q6 2 12 3q4 1 9 1z" />
    <glyph glyph-name="adieresis" unicode="&#xe4;" horiz-adv-x="456" 
d="M128 583q-10 -5 -14 -11l-2 -4q-20 -23 -40 -47q-27 -31 -54 -63q-25 -29 -54 -53q-14 -13 -30 -20q-12 -5 -24 -5t-23 6q-21 11 -27 37q-3 13 -3 25t3 24q37 163 154 281q23 22 51 36q4 3 8 4q19 7 35 7q29 0 50 -22q14 -17 14.5 -30t0.5 -15q0 -22 -10 -42q-1 0 -1 -1
q-1 -2 -2 -3q-3 -4 -5.5 -6.5t-5.5 -2.5q-2 0 -4 1q-5 1 -6.5 4.5t-2.5 8.5q0 2 -1 4q-1 10 -3 19q-2 10 -4 10.5t-3 0.5q-3 0 -10 -5q-31 -21 -55 -49q-70 -84 -104 -188v-2q-1 -2 -1 -4v-2q0 -2 1 -4q11 4 20 12q2 2 4 3q87 67 158 151q24 27 39 60q7 16 17 32l4 8
q7 13 17 22q12 12 27 12q6 0 12 -2q23 -9 26 -33l1 -9q0 -13 -5 -26q-9 -23 -19 -45q-12 -25 -19 -40q-9 -17 -16 -33.5t-15 -46.5q-8 -26 -12 -52l-2 -16v-2q0 -11 5 -11q4 0 10 5q21 16 40 35q14 15 28 29q101 95 162 185q8 10 19 17q3 3 6 3q4 0 7 -3q4 -3 4 -8
q0 -2 -1 -5q-5 -12 -13 -22q-15 -20 -33 -45q-49 -69 -106.5 -143.5t-103.5 -114.5q-21 -16 -42 -16h-7q-26 3 -45 27q-20 29 -20 64v3q2 51 17 90q2 7 4 13q1 2 1 5q1 3 3 8zM300 1046q20 -1 33.5 -12.5t13.5 -28.5q0 -18 -12.5 -30.5t-29.5 -12.5t-30 13.5t-15 31.5
q2 16 12 27.5t25 11.5h3zM106 1046q20 -1 33 -12.5t13 -28.5q0 -18 -12.5 -30.5t-29.5 -12.5q-16 0 -29.5 13.5t-14.5 31.5q1 16 11.5 27.5t25.5 11.5h3z" />
    <glyph glyph-name="aring" unicode="&#xe5;" horiz-adv-x="456" 
d="M128 583q-10 -5 -14 -11l-2 -4q-20 -23 -40 -47q-27 -31 -54 -63q-25 -29 -54 -53q-14 -13 -30 -20q-12 -5 -24 -5t-23 6q-21 11 -27 37q-3 13 -3 25t3 24q37 163 154 281q23 22 51 36q4 3 8 4q19 7 35 7q29 0 50 -22q14 -17 14.5 -30t0.5 -15q0 -22 -10 -42q-1 0 -1 -1
q-1 -2 -2 -3q-3 -4 -5.5 -6.5t-5.5 -2.5q-2 0 -4 1q-5 1 -6.5 4.5t-2.5 8.5q0 2 -1 4q-1 10 -3 19q-2 10 -4 10.5t-3 0.5q-3 0 -10 -5q-31 -21 -55 -49q-70 -84 -104 -188v-2q-1 -2 -1 -4v-2q0 -2 1 -4q11 4 20 12q2 2 4 3q87 67 158 151q24 27 39 60q7 16 17 32l4 8
q7 13 17 22q12 12 27 12q6 0 12 -2q23 -9 26 -33l1 -9q0 -13 -5 -26q-9 -23 -19 -45q-12 -25 -19 -40q-9 -17 -16 -33.5t-15 -46.5q-8 -26 -12 -52l-2 -16v-2q0 -11 5 -11q4 0 10 5q21 16 40 35q14 15 28 29q101 95 162 185q8 10 19 17q3 3 6 3q4 0 7 -3q4 -3 4 -8
q0 -2 -1 -5q-5 -12 -13 -22q-15 -20 -33 -45q-49 -69 -106.5 -143.5t-103.5 -114.5q-21 -16 -42 -16h-7q-26 3 -45 27q-20 29 -20 64v3q2 51 17 90q2 7 4 13q1 2 1 5q1 3 3 8zM326 1029q0 -4 2 -9q1 -6 1 -12q0 -11 -5 -22q-5 -7 -10 -13q-16 -25 -37 -49q-24 -24 -59 -42
q-14 -9 -37 -11h-6q-39 0 -65 25q-15 17 -15 33q0 4 1 8q18 84 128 122q15 5 32 6h7q45 0 63 -36zM262 959q-26 4 -30 18q-1 3 -1 5q0 8 15 10q5 1 11 1q3 0 8 2q41 4 46 31v2q0 11 -15 18q-9 5 -17 5t-16 -2q-23 -8 -36 -22q-43 -41 -64 -91q-4 -6 -4 -13q0 -2 1 -5
q2 -18 20 -18q5 0 12 2q1 0 2 1q50 18 78 48q3 3 3 4t-2 1.5t-4 0.5q-4 2 -7 2z" />
    <glyph glyph-name="ae" unicode="&#xe6;" horiz-adv-x="456" 
d="M264 678l1 -1q0 -1 1 -3q5 2 10 3l20 8q52 20 92 59q14 12 25 35q-92 -31 -149 -101zM110 523q1 25 5 48l-3 -2q-19 -24 -39 -47q-28 -33 -54 -64q-26 -29 -54 -54q-14 -12 -30 -19q-12 -5 -24 -5t-23 6q-21 11 -28 37q-3 12 -3 25q0 12 3 25q39 162 155 280q23 22 50 36
q5 3 9 4q19 7 35 7q29 0 50 -23q13 -16 14 -40v-5q0 -15 -5 -30l5 7q14 20 30 37q6 8 12 15l6 4q29 28 63 51q41 27 90 37q11 2 21 2q19 0 38 -7q25 -12 31.5 -27.5t6.5 -25.5q0 -13 -6 -27q-11 -23 -30 -40q-80 -76 -188 -93l-9 -18q-4 -9 -25 -26q-10 -30 -13 -62v-6
q0 -10 2 -20q9 -24 34 -27h16q40 0 77 12q99 42 163 102.5t99 106.5q20 25 31 36q4 3 8 3q1 0 3 -1q5 -2 5.5 -4.5t0.5 -4.5t-1 -5q-55 -84 -135.5 -170.5t-169.5 -137.5q-37 -21 -78 -26q-9 -1 -17 -1q-48 0 -83 29q-40 34 -45 94q-1 4 -1 9zM130 628q10 27 25 53l-1 -1
q-2 -1 -5 -1h-3q-5 1 -7 4.5t-3 7.5v5q-1 9 -3 19q-3 10 -5 11h-2q-4 0 -10 -5q-31 -20 -55 -49q-70 -84 -104 -189l-1 -1q-1 -2 -1 -5q0 -2 2 -4q11 3 20 12l4 2q81 63 149 141z" />
    <glyph glyph-name="ccedilla" unicode="&#xe7;" horiz-adv-x="351" 
d="M-47 289l23 85q-46 1 -66 46q-14 32 -14 65q0 15 3 30q4 15 9 30q27 90 78 169q33 54 85 89q30 21 67 25l11 1l11 -1q44 -11 44 -51q0 -6 -1 -12q-5 -26 -19 -46q-6 -8 -14 -12q-4 -3 -8 -3q-3 0 -6 1q-4 3 -4.5 6t-0.5 8q1 4 3 10q1 5 1 9t-1 8l-3 1l-2 -1q-3 -1 -4 -2
h-1q-58 -43 -92.5 -101t-56.5 -128q-7 -20 -7 -42q0 -7 1 -14q1 -10 3.5 -12t5.5 -2q4 0 9 1q29 7 54 24q67 42 125 94.5t107 102.5q31 30 59 56q1 0 2 2q2 1 4.5 1h3.5q2 0 4 -3q4 -2 4 -5l-1 -2q-2 -5 -5 -8q-4 -5 -6 -9q-116 -142 -238 -250q-40 -34 -86 -59
q-12 -7 -25 -11l-19 -53q17 3 33 3q43 0 67.5 -20.5t24.5 -57.5q0 -39 -30 -61.5t-81 -22.5q-56 0 -96 16v48q43 -26 76 -26q34 0 48.5 11t14.5 33q0 24 -24 34q-21 7 -53 7q-7 0 -17 -1z" />
    <glyph glyph-name="egrave" unicode="&#xe8;" horiz-adv-x="428" 
d="M-85 523q4 103 64 187q46 63 111 106q41 28 89 37q11 2 22 2q19 0 38 -7q25 -11 31.5 -27t6.5 -27q0 -13 -6 -27q-11 -22 -30 -39q-80 -76 -190 -93q-15 -2 -20 -15q-21 -43 -26 -91v-6q0 -10 3 -20q8 -24 34 -27q9 -1 18 -1q39 0 76 14q97 41 161.5 102t98.5 106
q21 26 32 36q4 3 8 3q1 0 3 -1q4 -2 5 -4.5t1 -4.5t-1 -5q-55 -84 -136 -170.5t-169 -137.5q-37 -20 -78 -25q-9 -1 -18 -1q-47 0 -82 28q-41 34 -46 93v15zM70 678l1 -1q0 -1 1 -3q5 2 10 3l20 8q52 20 92 59q14 12 25 35q-92 -31 -149 -101zM56 1096q3 1 5 1q13 0 21 -13
q53 -71 122 -117l26 -20l22 -16l24 -20q3 -1 4 -3t1 -4q0 -3 -3 -6q-1 -5 -4 -6.5t-5 -1.5h-3q-14 4 -26 10l-140 74q-4 3 -9 5q-28 16 -59 24q-19 9 -19 32q0 8 2 18q5 17 16.5 29t24.5 14z" />
    <glyph glyph-name="eacute" unicode="&#xe9;" horiz-adv-x="428" 
d="M-85 523q4 103 64 187q46 63 111 106q41 28 89 37q11 2 22 2q19 0 38 -7q25 -11 31.5 -27t6.5 -27q0 -13 -6 -27q-11 -22 -30 -39q-80 -76 -190 -93q-15 -2 -20 -15q-21 -43 -26 -91v-6q0 -10 3 -20q8 -24 34 -27q9 -1 18 -1q39 0 76 14q97 41 161.5 102t98.5 106
q21 26 32 36q4 3 8 3q1 0 3 -1q4 -2 5 -4.5t1 -4.5t-1 -5q-55 -84 -136 -170.5t-169 -137.5q-37 -20 -78 -25q-9 -1 -18 -1q-47 0 -82 28q-41 34 -46 93v15zM70 678l1 -1q0 -1 1 -3q5 2 10 3l20 8q52 20 92 59q14 12 25 35q-92 -31 -149 -101zM237 1096q13 -2 24.5 -14
t16.5 -29q2 -10 2 -18q0 -23 -19 -32q-31 -8 -59 -24q-5 -2 -9 -5l-140 -74q-12 -6 -26 -10h-3q-2 0 -4 1q-4 2 -5 7q-3 3 -3 6q0 2 1 3q1 3 4 4l24 20l22 16l26 20q69 46 122 117q8 13 21 13q2 0 5 -1z" />
    <glyph glyph-name="ecircumflex" unicode="&#xea;" horiz-adv-x="428" 
d="M-85 523q4 103 64 187q46 63 111 106q41 28 89 37q11 2 22 2q19 0 38 -7q25 -11 31.5 -27t6.5 -27q0 -13 -6 -27q-11 -22 -30 -39q-80 -76 -190 -93q-15 -2 -20 -15q-21 -43 -26 -91v-6q0 -10 3 -20q8 -24 34 -27q9 -1 18 -1q39 0 76 14q97 41 161.5 102t98.5 106
q21 26 32 36q4 3 8 3q1 0 3 -1q4 -2 5 -4.5t1 -4.5t-1 -5q-55 -84 -136 -170.5t-169 -137.5q-37 -20 -78 -25q-9 -1 -18 -1q-47 0 -82 28q-41 34 -46 93v15zM70 678l1 -1q0 -1 1 -3q5 2 10 3l20 8q52 20 92 59q14 12 25 35q-92 -31 -149 -101zM212 1075q-5 -2 -8 -4.5
t-5 -4.5q-1 -2 -2 -3q-30 -32 -58 -66q-10 -12 -20 -23q-19 -24 -43 -44q-7 -7 -15 -10q-4 -1 -7 -1q-5 0 -9 2q-5 4 -5 8q0 2 1 4q3 8 7 15q57 103 130 200q2 3 5 6q4 7 9 13q14 17 37 17q4 0 9 -1q31 -6 35 -30q10 -55 27 -108l10 -36q8 -26 22 -49q8 -12 8 -25
q0 -8 -3 -16q-3 -6 -7 -11q-9 -8 -18 -8q-8 0 -16 6q-17 12 -27 29q-21 40 -36 82q-6 20 -14 39q-4 9 -7 19z" />
    <glyph glyph-name="edieresis" unicode="&#xeb;" horiz-adv-x="428" 
d="M-85 523q4 103 64 187q46 63 111 106q41 28 89 37q11 2 22 2q19 0 38 -7q25 -11 31.5 -27t6.5 -27q0 -13 -6 -27q-11 -22 -30 -39q-80 -76 -190 -93q-15 -2 -20 -15q-21 -43 -26 -91v-6q0 -10 3 -20q8 -24 34 -27q9 -1 18 -1q39 0 76 14q97 41 161.5 102t98.5 106
q21 26 32 36q4 3 8 3q1 0 3 -1q4 -2 5 -4.5t1 -4.5t-1 -5q-55 -84 -136 -170.5t-169 -137.5q-37 -20 -78 -25q-9 -1 -18 -1q-47 0 -82 28q-41 34 -46 93v15zM70 678l1 -1q0 -1 1 -3q5 2 10 3l20 8q52 20 92 59q14 12 25 35q-92 -31 -149 -101zM300 1046q20 -1 33 -12.5
t13 -28.5q0 -18 -12.5 -30.5t-29.5 -12.5q-16 0 -29.5 13.5t-14.5 31.5q1 16 11.5 27.5t25.5 11.5h3zM105 1046q21 -1 34 -12.5t13 -28.5q0 -18 -12.5 -30.5t-29.5 -12.5t-30 13.5t-14 31.5q1 16 11 27.5t25 11.5h3z" />
    <glyph glyph-name="igrave" unicode="&#xec;" horiz-adv-x="271" 
d="M272 740q9 5 14 5q6 0 9 -5q4 -4 4 -9l-1 -3q-1 -6 -5 -11q-24 -33 -79.5 -103t-113.5 -136.5t-89 -89.5q-22 -16 -50 -21h-8q-52 0 -69 53q-3 13 -3 25q0 17 5 33q11 44 29 85q31 69 61 137q4 9 8 17q15 32 35 61q6 10 15 18q14 10 27 10q11 0 21 -6q22 -13 22 -37
q0 -4 -1 -8q-4 -16 -12 -29q-51 -96 -91 -198l-14 -32q-8 -20 -8 -29q0 -8 5 -8q2 0 4 1q18 5 57 40.5t84 83t83 89t54 59.5zM-29 1096q3 1 5 1q13 0 21 -13q53 -71 121 -117q13 -10 27 -20l22 -16q11 -10 23 -20q4 -1 4.5 -3t0.5 -3q0 -3 -2 -7q-2 -5 -4.5 -6.5t-4.5 -1.5
h-3q-14 4 -26 10l-140 74q-4 3 -9 5q-28 16 -59 24q-20 9 -20 31q0 9 3 19q4 17 15.5 29t25.5 14z" />
    <glyph glyph-name="iacute" unicode="&#xed;" horiz-adv-x="271" 
d="M272 740q9 5 14 5q6 0 9 -5q4 -4 4 -9l-1 -3q-1 -6 -5 -11q-24 -33 -79.5 -103t-113.5 -136.5t-89 -89.5q-22 -16 -50 -21h-8q-52 0 -69 53q-3 13 -3 25q0 17 5 33q11 44 29 85q31 69 61 137q4 9 8 17q15 32 35 61q6 10 15 18q14 10 27 10q11 0 21 -6q22 -13 22 -37
q0 -4 -1 -8q-4 -16 -12 -29q-51 -96 -91 -198l-14 -32q-8 -20 -8 -29q0 -8 5 -8q2 0 4 1q18 5 57 40.5t84 83t83 89t54 59.5zM183 1096q13 -2 24.5 -14t16.5 -29q2 -10 2 -18q0 -23 -19 -32q-31 -8 -59 -24q-5 -2 -9 -5l-140 -74q-12 -6 -26 -10h-3q-2 0 -4 1q-4 2 -5 7
q-3 3 -3 6q0 2 1 3q1 3 4 4l24 20l22 16l26 20q69 46 122 117q8 13 21 13q2 0 5 -1z" />
    <glyph glyph-name="icircumflex" unicode="&#xee;" horiz-adv-x="271" 
d="M272 740q9 5 14 5q6 0 9 -5q4 -4 4 -9l-1 -3q-1 -6 -5 -11q-24 -33 -79.5 -103t-113.5 -136.5t-89 -89.5q-22 -16 -50 -21h-8q-52 0 -69 53q-3 13 -3 25q0 17 5 33q11 44 29 85q31 69 61 137q4 9 8 17q15 32 35 61q6 10 15 18q14 10 27 10q11 0 21 -6q22 -13 22 -37
q0 -4 -1 -8q-4 -16 -12 -29q-51 -96 -91 -198l-14 -32q-8 -20 -8 -29q0 -8 5 -8q2 0 4 1q18 5 57 40.5t84 83t83 89t54 59.5zM151 1075q-5 -2 -8 -4.5t-5 -4.5q-1 -2 -2 -3q-31 -32 -58 -66q-10 -12 -20 -23q-19 -24 -43 -44q-7 -7 -16 -10q-3 -1 -7 -1t-8 2q-5 4 -5 8
q0 2 1 4q3 8 7 15q57 103 130 200q2 3 5 6q4 7 9 13q14 17 37 17q4 0 9 -1q31 -6 35 -30q10 -55 27 -108l10 -36q8 -26 22 -49q8 -12 8 -25q0 -8 -3 -16q-3 -6 -7 -11q-9 -8 -18 -8q-8 0 -17 6q-16 12 -26 29q-22 40 -36 82q-6 20 -14 39q-4 9 -7 19z" />
    <glyph glyph-name="idieresis" unicode="&#xef;" horiz-adv-x="271" 
d="M272 740q9 5 14 5q6 0 9 -5q4 -4 4 -9l-1 -3q-1 -6 -5 -11q-24 -33 -79.5 -103t-113.5 -136.5t-89 -89.5q-22 -16 -50 -21h-8q-52 0 -69 53q-3 13 -3 25q0 17 5 33q11 44 29 85q31 69 61 137q4 9 8 17q15 32 35 61q6 10 15 18q14 10 27 10q11 0 21 -6q22 -13 22 -37
q0 -4 -1 -8q-4 -16 -12 -29q-51 -96 -91 -198l-14 -32q-8 -20 -8 -29q0 -8 5 -8q2 0 4 1q18 5 57 40.5t84 83t83 89t54 59.5zM181 1046q20 -1 33.5 -12.5t13.5 -28.5q0 -18 -13 -30.5t-29 -12.5q-17 0 -30.5 13.5t-14.5 31.5q1 16 11.5 27.5t25.5 11.5h3zM33 1046
q21 -1 34 -12.5t13 -28.5q0 -18 -12.5 -30.5t-29.5 -12.5t-30 13.5t-14 31.5q1 16 11 27.5t25 11.5h3z" />
    <glyph glyph-name="ntilde" unicode="&#xf1;" horiz-adv-x="496" 
d="M-3 525q9 3 13 9q2 1 3 3q67 66 126 138l2 2q1 1 1 2q31 38 66 72q13 11 26 21q14 11 32 17q12 3 23 3q23 0 40 -14q21 -19 21 -52v-8q-4 -28 -16 -54q-12 -27 -19.5 -47t-13.5 -39q-8 -25 -23 -63q0 -2 -2 -6q-4 -9 -8 -20t-3.5 -16.5t3.5 -5.5t7 2q37 17 80.5 69
t82.5 107q39 54 64 80l2 2q4 4 7 5.5t5 1.5q4 0 8 -4q3 -3 3 -7v-2q-1 -5 -4 -9q-1 -1 -1 -2q-20 -37 -80 -123.5t-121.5 -150.5t-98.5 -64q-7 0 -13 2q-38 20 -41 63v13q0 33 12 64q11 32 18 54t14.5 43.5t20.5 52.5l2 4q3 7 4 15l-3 1l-6 -3l-2 -2q-27 -19 -50 -43
q-65 -70 -121 -148q-5 -8 -11 -15q-19 -26 -38 -51q-11 -14 -23 -27q-12 -14 -30 -21q-13 -7 -27 -7q-17 0 -34 12q-22 19 -22 44q0 6 1 12q12 69 39 131q40 97 85 192q7 15 19 27q15 12 30 12q13 0 26 -8q19 -15 19 -36q0 -8 -3 -17q-8 -20 -17 -38q-4 -10 -8 -19
q-31 -69 -61 -138q-1 -1 -1 -2q-3 -6 -4 -14zM181 1091h7q45 0 68 -56q2 -4 4 -9q4 -8 7 -17q7 -18 21 -19h7q17 0 33 7q27 12 52 31q38 31 80 46h1q1 1 3 1q3 1 5.5 0.5t4.5 -4.5q1 -4 0.5 -8t-2.5 -7q-12 -19 -28 -30q-26 -18 -51 -38l-40 -30q-32 -24 -69 -29
q-5 -1 -10 -1q-32 0 -54 40q-2 4 -4 9l-10 20q-7 16 -20 16h-4q-15 0 -29 -6q-42 -17 -81 -44q-30 -19 -61 -38q-6 -4 -13 -5q-9 1 -9 10q0 3 1 8q3 11 10 19q16 24 35 44q57 61 125 86q6 2 11 3t10 1z" />
    <glyph glyph-name="ograve" unicode="&#xf2;" horiz-adv-x="379" 
d="M-28 484q2 1 3 2q3 1 4 3q60 51 102 118q6 9 6 19q0 4 -1 8q-2 9 -2 18q0 18 9 35q11 19 33 21q30 -1 35 -30v-11q0 -22 12 -35q14 -12 32 -12q17 0 38 10q43 20 78 49t54 47q6 5 11 5q4 0 8 -4q4 -5 4 -10t-5 -10q-24 -37 -93 -86t-136 -49q-12 0 -25 2q-4 2 -7 2
q-2 0 -4 -1q-4 -1 -6 -7q-27 -52 -58 -100q-18 -30 -40 -57q-21 -27 -54 -40q-14 -5 -26 -5q-17 0 -33 9q-26 14 -36 48q-4 15 -4 30q0 13 3 25q1 13 5 26q43 149 144 262q26 28 57 49q20 14 44 19q7 1 14 1q21 0 37 -11q22 -15 29 -44q2 -11 2 -22q0 -30 -18 -55
q-3 -5 -7 -7.5t-8 -2.5q-2 0 -5 1q-12 5 -14 18q-2 12 -7 23q-2 6 -7 6q-3 0 -6 -2q-2 -2 -5 -4l-10 -8q-34 -28 -60 -63q-54 -75 -84 -163q-1 -1 -1 -2q-2 -3 -2 -5.5v-4.5v-5zM56 1096q3 1 5 1q14 0 22 -13q52 -71 121 -117l26 -20l22 -16l24 -20q3 -1 4 -3t1 -3
q0 -3 -2 -7q-2 -5 -5 -6.5t-5 -1.5h-2q-14 4 -27 10q-70 37 -139 74q-5 3 -9 5q-28 16 -60 24q-19 9 -19 32q0 8 2 18q5 17 16.5 29t24.5 14z" />
    <glyph glyph-name="oacute" unicode="&#xf3;" horiz-adv-x="379" 
d="M-28 484q2 1 3 2q3 1 4 3q60 51 102 118q6 9 6 19q0 4 -1 8q-2 9 -2 18q0 18 9 35q11 19 33 21q30 -1 35 -30v-11q0 -22 12 -35q14 -12 32 -12q17 0 38 10q43 20 78 49t54 47q6 5 11 5q4 0 8 -4q4 -5 4 -10t-5 -10q-24 -37 -93 -86t-136 -49q-12 0 -25 2q-4 2 -7 2
q-2 0 -4 -1q-4 -1 -6 -7q-27 -52 -58 -100q-18 -30 -40 -57q-21 -27 -54 -40q-14 -5 -26 -5q-17 0 -33 9q-26 14 -36 48q-4 15 -4 30q0 13 3 25q1 13 5 26q43 149 144 262q26 28 57 49q20 14 44 19q7 1 14 1q21 0 37 -11q22 -15 29 -44q2 -11 2 -22q0 -30 -18 -55
q-3 -5 -7 -7.5t-8 -2.5q-2 0 -5 1q-12 5 -14 18q-2 12 -7 23q-2 6 -7 6q-3 0 -6 -2q-2 -2 -5 -4l-10 -8q-34 -28 -60 -63q-54 -75 -84 -163q-1 -1 -1 -2q-2 -3 -2 -5.5v-4.5v-5zM237 1096q14 -2 25.5 -14t16.5 -29q2 -10 2 -18q0 -23 -19 -32q-32 -8 -60 -24q-5 -2 -9 -5
l-140 -74q-12 -6 -26 -10h-3q-2 0 -4 1q-3 2 -5 7q-2 4 -2 7v2q1 3 5 4l24 20q11 8 21 16q14 10 27 20q68 46 121 117q8 13 21 13q2 0 5 -1z" />
    <glyph glyph-name="ocircumflex" unicode="&#xf4;" horiz-adv-x="379" 
d="M-28 484q2 1 3 2q3 1 4 3q60 51 102 118q6 9 6 19q0 4 -1 8q-2 9 -2 18q0 18 9 35q11 19 33 21q30 -1 35 -30v-11q0 -22 12 -35q14 -12 32 -12q17 0 38 10q43 20 78 49t54 47q6 5 11 5q4 0 8 -4q4 -5 4 -10t-5 -10q-24 -37 -93 -86t-136 -49q-12 0 -25 2q-4 2 -7 2
q-2 0 -4 -1q-4 -1 -6 -7q-27 -52 -58 -100q-18 -30 -40 -57q-21 -27 -54 -40q-14 -5 -26 -5q-17 0 -33 9q-26 14 -36 48q-4 15 -4 30q0 13 3 25q1 13 5 26q43 149 144 262q26 28 57 49q20 14 44 19q7 1 14 1q21 0 37 -11q22 -15 29 -44q2 -11 2 -22q0 -30 -18 -55
q-3 -5 -7 -7.5t-8 -2.5q-2 0 -5 1q-12 5 -14 18q-2 12 -7 23q-2 6 -7 6q-3 0 -6 -2q-2 -2 -5 -4l-10 -8q-34 -28 -60 -63q-54 -75 -84 -163q-1 -1 -1 -2q-2 -3 -2 -5.5v-4.5v-5zM212 1075q-5 -2 -7.5 -4.5l-4.5 -4.5q-1 -2 -2 -3q-31 -32 -59 -66q-10 -12 -19 -23
q-20 -24 -43 -44h-1q-6 -7 -15 -10q-3 -1 -7 -1t-9 2q-5 4 -5 8q0 2 1 4q4 8 8 15q57 103 129 200q3 3 5 6q4 7 10 13q13 17 36 17q4 0 9 -1q31 -6 35 -30q11 -55 27 -108q6 -18 11 -36q7 -26 21 -49q8 -12 8 -25q0 -8 -3 -16q-2 -6 -6 -11q-9 -8 -18 -8q-8 0 -17 6
q-17 12 -27 29q-21 40 -35 82q-7 20 -15 39q-3 9 -7 19z" />
    <glyph glyph-name="otilde" unicode="&#xf5;" horiz-adv-x="378" 
d="M-28 484q1 1 3 2t4 3q59 51 101 118q6 9 6 19q0 4 -1 8q-2 9 -2 18q0 18 9 35q11 19 34 21q29 -1 34 -30v-11q1 -22 13 -35q13 -12 31 -12q17 0 38 10q43 20 78 49t54 47q6 5 11 5t8 -4q4 -5 4 -10t-5 -10q-23 -37 -92.5 -86t-136.5 -49q-12 0 -25 2q-4 2 -7 2
q-2 0 -4 -1q-3 -1 -6 -7q-26 -52 -58 -100q-18 -30 -40 -57q-21 -27 -54 -40q-14 -5 -26 -5q-17 0 -32 9q-27 14 -37 48q-3 15 -3 30q0 13 2 25q2 13 5 26q43 149 145 262q25 28 56 49q20 14 45 19q7 1 14 1q20 0 36 -11q22 -15 30 -44q2 -10 2 -20q0 -31 -19 -57
q-3 -5 -7 -7.5t-7 -2.5t-5 1q-13 5 -15 18q-1 12 -6 23q-3 6 -8 6q-3 0 -6 -2q-2 -2 -5 -4l-10 -8q-34 -28 -59 -63q-55 -75 -85 -163q-1 -1 -1 -2q-2 -3 -2 -5.5v-3.5q0 -3 1 -6zM181 1091h7q44 0 68 -56q2 -4 4 -9q4 -8 7 -17q6 -18 20 -19h7q17 0 33 7q27 12 52 31
q38 31 80 46h1q2 1 3 1q3 1 5.5 0.5t4.5 -4.5q1 -3 1 -5v-3q-1 -4 -3 -7q-12 -19 -27 -30q-26 -18 -52 -38q-19 -15 -39 -30q-33 -24 -69 -29q-5 -1 -10 -1q-33 0 -55 40q-2 4 -4 9l-10 20q-7 16 -20 16h-4q-14 0 -28 -6q-42 -17 -82 -44l-60 -38q-7 -4 -14 -5q-9 1 -9 11
q0 3 1 7q4 11 10 19q17 24 36 44q56 61 125 86q5 2 11 3q5 1 10 1z" />
    <glyph glyph-name="odieresis" unicode="&#xf6;" horiz-adv-x="379" 
d="M-28 484q2 1 3 2q3 1 4 3q60 51 102 118q6 9 6 19q0 4 -1 8q-2 9 -2 18q0 18 9 35q11 19 33 21q30 -1 35 -30v-11q0 -22 12 -35q14 -12 32 -12q17 0 38 10q43 20 78 49t54 47q6 5 11 5q4 0 8 -4q4 -5 4 -10t-5 -10q-24 -37 -93 -86t-136 -49q-12 0 -25 2q-4 2 -7 2
q-2 0 -4 -1q-4 -1 -6 -7q-27 -52 -58 -100q-18 -30 -40 -57q-21 -27 -54 -40q-14 -5 -26 -5q-17 0 -33 9q-26 14 -36 48q-4 15 -4 30q0 13 3 25q1 13 5 26q43 149 144 262q26 28 57 49q20 14 44 19q7 1 14 1q21 0 37 -11q22 -15 29 -44q2 -11 2 -22q0 -30 -18 -55
q-3 -5 -7 -7.5t-8 -2.5q-2 0 -5 1q-12 5 -14 18q-2 12 -7 23q-2 6 -7 6q-3 0 -6 -2q-2 -2 -5 -4l-10 -8q-34 -28 -60 -63q-54 -75 -84 -163q-1 -1 -1 -2q-2 -3 -2 -5.5v-4.5v-5zM300 1046q20 -1 33.5 -12.5t13.5 -28.5q0 -18 -12.5 -30.5t-29.5 -12.5t-30 13.5t-15 31.5
q2 16 12 27.5t25 11.5h3zM106 1046q20 -1 33 -12.5t13 -28.5q0 -18 -12.5 -30.5t-29.5 -12.5q-16 0 -29.5 13.5t-14.5 31.5q1 16 11.5 27.5t25.5 11.5h3z" />
    <glyph glyph-name="divide" unicode="&#xf7;" horiz-adv-x="888" 
d="M166 666q-30 3 -37 31q-1 5 -1 9q0 21 22 31q10 3 20 3q4 0 9 -1q40 -2 80 -2q61 0 120 4q52 2 104 3h57q56 0 113 -1q25 0 50 -2q14 0 28 -3q1 0 2 -1q12 -3 15 -17v-4q0 -13 -12 -17q-17 -4 -35 -6q-7 0 -14 -1q-19 -1 -38 -1t-38 1q-72 6 -144 6q-105 0 -209 -13
q-32 -4 -63 -13q-2 -1 -3 -1q-13 -5 -26 -5zM534 930v-3q-1 -12 -7 -22q-8 -12 -16 -14t-11 -2q-8 0 -16 5q-12 8 -14.5 16.5t-2.5 11.5q0 10 6 19q13 18 36 19q12 0 18.5 -8.5t6.5 -21.5zM426 591q13 -1 22 -10.5t11 -22.5q-2 -15 -10.5 -23t-19.5 -8h-5q-12 1 -21 10
t-10 21q0 13 10 23t23 10z" />
    <glyph glyph-name="oslash" unicode="&#xf8;" horiz-adv-x="378" 
d="M-28 484q-1 3 -1 6v3.5t2 5.5q0 1 1 2q30 88 85 163q25 35 59 63l10 8q3 2 5 4q3 2 6 2q5 0 8 -6q5 -11 6 -23q2 -13 15 -18q2 -1 5 -1t7 2.5t7 7.5q19 26 19 57q0 10 -2 20q-8 29 -30 44q-16 11 -36 11q-7 0 -14 -1q-25 -5 -45 -19q-31 -21 -56 -49q-102 -113 -145 -262
q-3 -13 -5 -26q-2 -12 -2 -25q0 -15 3 -30q10 -34 37 -48q15 -9 32 -9q12 0 26 5q33 13 54 40q22 27 40 57q32 48 58 100q3 6 6 7q2 1 4 1q3 0 7 -2q13 -2 25 -2q67 0 136.5 49t92.5 86q5 5 5 10t-4 10q-3 4 -8 4t-11 -5q-19 -18 -54 -47t-78 -49q-21 -10 -38 -10
q-18 0 -31 12q-12 13 -13 35v11q-5 29 -34 30q-23 -2 -34 -21q-9 -17 -9 -35q0 -9 2 -18q1 -4 1 -8q0 -10 -6 -19q-42 -67 -101 -118q-2 -2 -4 -3t-3 -2zM-230 471q0 -12 9.5 -23.5t20.5 -12.5q5 -1 9 -1q10 0 16 5q5 4 11 8q10 9 21 17q152 120 312 230q58 40 122 72
q1 0 2 1t3 1q1 1 2 1t2 -1q11 -4 18 -4q6 0 12.5 3.5t13.5 13.5q2 3 2 7q0 3 -1.5 8.5t-8.5 14.5q-14 16 -27 16h-2q-7 -2 -12 -4l-1 -1q-53 -21 -101 -49q-178 -109 -346 -231q-30 -22 -60 -43l-8 -6q-9 -6 -9 -22z" />
    <glyph glyph-name="ugrave" unicode="&#xf9;" horiz-adv-x="438" 
d="M88 497q-3 -5 -7 -11l-20 -28q-21 -31 -51 -55q-19 -15 -42 -15h-8q-44 8 -51 52q-1 8 -1 16q0 24 7 46q38 150 109 288v1q7 14 17 25q18 18 37 18q12 0 25 -8q16 -11 18 -22t2 -15q0 -14 -8 -27q-65 -109 -97 -232l-12 -38v-5q3 0 5.5 1t4.5 3h1q28 19 51 45
q20 24 40 49q6 7 13 15q8 11 14 23q29 58 61 114l20 36q6 11 13 20q16 18 35 18q10 0 21 -5q23 -13 23 -37q0 -8 -2 -16q-3 -11 -9 -20l-34 -64q-14 -25 -28 -51q-25 -44 -42 -92q-7 -18 -9 -37v-3q0 -7 4 -7h2q8 1 19.5 9t21 16.5t12.5 11.5q65 64 111 123q33 41 73 85
q6 6 12 11q5 5 11 5q4 0 9 -4t5 -9q0 -6 -3 -11q-4 -7 -10 -13q-10 -13 -32 -43q-44 -61 -110.5 -140.5t-106.5 -103.5t-56 -24q-32 0 -49 46q-5 18 -5 36v22h-2q-1 1 -2 1zM56 1096q3 1 5 1q14 0 22 -13q52 -71 121 -117l26 -20l22 -16l24 -20q3 -1 4 -3t1 -3q0 -3 -2 -7
q-2 -5 -5 -6.5t-5 -1.5h-2q-14 4 -27 10q-69 37 -139 74q-5 3 -9 5q-28 16 -60 24q-19 9 -19 32q0 8 2 18q5 17 16.5 29t24.5 14z" />
    <glyph glyph-name="uacute" unicode="&#xfa;" horiz-adv-x="438" 
d="M88 497q-3 -5 -7 -11l-20 -28q-21 -31 -51 -55q-19 -15 -42 -15h-8q-44 8 -51 52q-1 8 -1 16q0 24 7 46q38 150 109 288v1q7 14 17 25q18 18 37 18q12 0 25 -8q16 -11 18 -22t2 -15q0 -14 -8 -27q-65 -109 -97 -232l-12 -38v-5q3 0 5.5 1t4.5 3h1q28 19 51 45
q20 24 40 49q6 7 13 15q8 11 14 23q29 58 61 114l20 36q6 11 13 20q16 18 35 18q10 0 21 -5q23 -13 23 -37q0 -8 -2 -16q-3 -11 -9 -20l-34 -64q-14 -25 -28 -51q-25 -44 -42 -92q-7 -18 -9 -37v-3q0 -7 4 -7h2q8 1 19.5 9t21 16.5t12.5 11.5q65 64 111 123q33 41 73 85
q6 6 12 11q5 5 11 5q4 0 9 -4t5 -9q0 -6 -3 -11q-4 -7 -10 -13q-10 -13 -32 -43q-44 -61 -110.5 -140.5t-106.5 -103.5t-56 -24q-32 0 -49 46q-5 18 -5 36v22h-2q-1 1 -2 1zM237 1096q14 -2 25.5 -14t16.5 -29q2 -10 2 -18q0 -23 -19 -32q-32 -8 -60 -24q-4 -2 -9 -5
l-140 -74q-12 -6 -26 -10h-3q-2 0 -4 1q-3 2 -5 7q-2 4 -2 7v2q1 3 5 4l24 20l22 16l26 20q68 46 121 117q8 13 21 13q2 0 5 -1z" />
    <glyph glyph-name="ucircumflex" unicode="&#xfb;" horiz-adv-x="438" 
d="M88 497q-3 -5 -7 -11l-20 -28q-21 -31 -51 -55q-19 -15 -42 -15h-8q-44 8 -51 52q-1 8 -1 16q0 24 7 46q38 150 109 288v1q7 14 17 25q18 18 37 18q12 0 25 -8q16 -11 18 -22t2 -15q0 -14 -8 -27q-65 -109 -97 -232l-12 -38v-5q3 0 5.5 1t4.5 3h1q28 19 51 45
q20 24 40 49q6 7 13 15q8 11 14 23q29 58 61 114l20 36q6 11 13 20q16 18 35 18q10 0 21 -5q23 -13 23 -37q0 -8 -2 -16q-3 -11 -9 -20l-34 -64q-14 -25 -28 -51q-25 -44 -42 -92q-7 -18 -9 -37v-3q0 -7 4 -7h2q8 1 19.5 9t21 16.5t12.5 11.5q65 64 111 123q33 41 73 85
q6 6 12 11q5 5 11 5q4 0 9 -4t5 -9q0 -6 -3 -11q-4 -7 -10 -13q-10 -13 -32 -43q-44 -61 -110.5 -140.5t-106.5 -103.5t-56 -24q-32 0 -49 46q-5 18 -5 36v22h-2q-1 1 -2 1zM212 1075q-5 -2 -7.5 -4.5l-4.5 -4.5q-1 -2 -2 -3q-31 -32 -59 -66q-9 -12 -19 -23
q-20 -24 -43 -44h-1q-6 -7 -15 -10q-3 -1 -7 -1t-9 2q-4 4 -4 9v3h1q3 8 7 15q57 103 129 200q3 3 5 6q4 7 10 13q13 17 36 17q5 0 10 -1q30 -6 34 -30q11 -55 27 -108q6 -18 11 -36q7 -26 21 -49q8 -12 8 -25q0 -8 -3 -16q-2 -6 -6 -11q-9 -8 -18 -8q-8 0 -17 6
q-17 12 -27 29q-21 40 -35 82q-7 20 -15 39q-3 9 -7 19z" />
    <glyph glyph-name="udieresis" unicode="&#xfc;" horiz-adv-x="438" 
d="M88 497q-3 -5 -7 -11l-20 -28q-21 -31 -51 -55q-19 -15 -42 -15h-8q-44 8 -51 52q-1 8 -1 16q0 24 7 46q38 150 109 288v1q7 14 17 25q18 18 37 18q12 0 25 -8q16 -11 18 -22t2 -15q0 -14 -8 -27q-65 -109 -97 -232l-12 -38v-5q3 0 5.5 1t4.5 3h1q28 19 51 45
q20 24 40 49q6 7 13 15q8 11 14 23q29 58 61 114l20 36q6 11 13 20q16 18 35 18q10 0 21 -5q23 -13 23 -37q0 -8 -2 -16q-3 -11 -9 -20l-34 -64q-14 -25 -28 -51q-25 -44 -42 -92q-7 -18 -9 -37v-3q0 -7 4 -7h2q8 1 19.5 9t21 16.5t12.5 11.5q65 64 111 123q33 41 73 85
q6 6 12 11q5 5 11 5q4 0 9 -4t5 -9q0 -6 -3 -11q-4 -7 -10 -13q-10 -13 -32 -43q-44 -61 -110.5 -140.5t-106.5 -103.5t-56 -24q-32 0 -49 46q-5 18 -5 36v22h-2q-1 1 -2 1zM246 1046q20 -1 33.5 -12.5t13.5 -28.5q0 -18 -12.5 -30.5t-29.5 -12.5t-30 13.5t-15 31.5
q2 16 12 27.5t25 11.5h3zM106 1046q20 -1 33 -12.5t13 -28.5q0 -18 -12.5 -30.5t-29.5 -12.5q-16 0 -29.5 13.5t-14.5 31.5q1 16 11.5 27.5t25.5 11.5h3z" />
    <glyph glyph-name="yacute" unicode="&#xfd;" horiz-adv-x="400" 
d="M127 572q-3 -1 -5.5 -3t-3.5 -4t-3 -3q-49 -57 -104 -109q-17 -18 -38 -31q-18 -10 -34 -10q-12 0 -23 6q-26 13 -30 48q-1 7 -1 13q0 26 10 51q13 38 33 73q14 27 36 70q28 57 47 92q9 17 21 33q18 21 38 21q12 0 25 -8q19 -15 19 -34q0 -13 -8 -28q-17 -31 -42 -83
q-22 -44 -37 -71q-21 -36 -38 -73q-1 -2 -1 -3q-5 -8 -6 -19q5 1 8.5 3t6.5 5q2 1 3 2q37 28 69 61q41 44 89 112q36 52 66 86l10 14l6 8q17 21 38 21q9 0 19 -4q23 -13 23 -39q0 -8 -2 -18q-7 -18 -18 -34q-13 -23 -32.5 -67.5t-29.5 -68.5q-13 -32 -29 -62
q-38 -71 -68 -146q-1 -1 -1 -2q-4 -7 -4 -10q0 -1 1 -2q1 -2 8 -2h5q24 1 61 1h41q67 -2 144 -4q80 -2 132 -2.5t79 -0.5h45q4 1 9 1q7 1 15 1h7q13 -2 24 -8q1 -1 1 -2q5 -2 8 -5.5t3 -7.5v-3q-1 -16 -16 -24q-34 -16 -68 -16q-26 0 -52 9q-27 8 -125 13.5t-181 7t-120 1.5
h-29q-16 0 -21 -15q-20 -44 -40 -87q-12 -28 -25 -55q-54 -122 -128 -233q-32 -51 -75 -94q-77 -76 -186 -77q-73 0 -127 46q-69 62 -104 132t-35 130q0 20 3 39q12 79 101 137q64 37 136 53q110 27 223 37l144 14q7 1 15 1q6 0 10.5 2t7.5 8q26 56 53 112q23 47 46 95v1
q1 2 1.5 4t-0.5 4zM-439 -142q34 -26 74 -26q8 0 16 1q50 6 91 36q50 39 84 92q110 159 178 340q1 3 2 5v3q0 5 -4 5h-13l-42 -4l-88 -8q-106 -8 -211 -30q-75 -14 -139 -54q-76 -53 -80 -91t-4 -48q0 -56 34 -110q39 -64 102 -111zM56 1096q3 1 5 1q13 0 21 -13
q53 -71 122 -117l26 -20l22 -16l24 -20q3 -1 4 -3t1 -4q0 -3 -3 -6q-1 -5 -4 -6.5t-5 -1.5h-3q-14 4 -26 10l-140 74q-4 3 -9 5q-28 16 -59 24q-19 9 -19 32q0 8 2 18q5 17 16.5 29t24.5 14z" />
    <glyph glyph-name="ydieresis" unicode="&#xff;" horiz-adv-x="400" 
d="M127 572q-3 -1 -5.5 -3t-3.5 -4t-3 -3q-49 -57 -104 -109q-17 -18 -38 -31q-18 -10 -34 -10q-12 0 -23 6q-26 13 -30 48q-1 7 -1 13q0 26 10 51q13 38 33 73q14 27 36 70q28 57 47 92q9 17 21 33q18 21 38 21q12 0 25 -8q19 -15 19 -34q0 -13 -8 -28q-17 -31 -42 -83
q-22 -44 -37 -71q-21 -36 -38 -73q-1 -2 -1 -3q-5 -8 -6 -19q5 1 8.5 3t6.5 5q2 1 3 2q37 28 69 61q41 44 89 112q36 52 66 86l10 14l6 8q17 21 38 21q9 0 19 -4q23 -13 23 -39q0 -8 -2 -18q-7 -18 -18 -34q-13 -23 -32.5 -67.5t-29.5 -68.5q-13 -32 -29 -62
q-38 -71 -68 -146q-1 -1 -1 -2q-4 -7 -4 -10q0 -1 1 -2q1 -2 8 -2h5q24 1 61 1h41q67 -2 144 -4q80 -2 132 -2.5t79 -0.5h45q4 1 9 1q7 1 15 1h7q13 -2 24 -8q1 -1 1 -2q5 -2 8 -5.5t3 -7.5v-3q-1 -16 -16 -24q-34 -16 -68 -16q-26 0 -52 9q-27 8 -125 13.5t-181 7t-120 1.5
h-29q-16 0 -21 -15q-20 -44 -40 -87q-12 -28 -25 -55q-54 -122 -128 -233q-32 -51 -75 -94q-77 -76 -186 -77q-73 0 -127 46q-69 62 -104 132t-35 130q0 20 3 39q12 79 101 137q64 37 136 53q110 27 223 37l144 14q7 1 15 1q6 0 10.5 2t7.5 8q26 56 53 112q23 47 46 95v1
q1 2 1.5 4t-0.5 4zM-439 -142q34 -26 74 -26q8 0 16 1q50 6 91 36q50 39 84 92q110 159 178 340q1 3 2 5v3q0 5 -4 5h-13l-42 -4l-88 -8q-106 -8 -211 -30q-75 -14 -139 -54q-76 -53 -80 -91t-4 -48q0 -56 34 -110q39 -64 102 -111zM300 1046q20 -1 33 -12.5t13 -28.5
q0 -18 -12.5 -30.5t-29.5 -12.5q-16 0 -29.5 13.5t-14.5 31.5q1 16 11.5 27.5t25.5 11.5h3zM105 1046q21 -1 34 -12.5t13 -28.5q0 -18 -12.5 -30.5t-29.5 -12.5t-30 13.5t-14 31.5q1 16 11 27.5t25 11.5h3z" />
    <glyph glyph-name="dotlessi" unicode="&#x131;" horiz-adv-x="617" 
d="M283 865q-25 2 -25 15q0 8 10 20q9 12 17 24q25 33 48 68q20 30 37 61q5 10 12 19q12 15 29 15q5 0 10 -1q24 -6 29 -31q2 -5 2 -11q0 -5 -2 -11q-3 -16 -9 -30q-35 -79 -68 -160q-36 -91 -76 -180q-11 -24 -23 -48q-8 -16 -23 -26q-11 -7 -23 -7q-9 0 -18 5
q-19 9 -23 34v7q0 14 7 28q5 12 10 23q17 35 32 71q17 38 33 77q5 13 11 26q0 1 1 2q1 3 1.5 5t0.5 5z" />
    <glyph glyph-name="circumflex" unicode="&#x2c6;" horiz-adv-x="457" 
d="M234 1138q-4 -2 -7 -5t-5 -6l-2 -2q-31 -37 -59 -75q-9 -13 -19 -26q-19 -26 -43 -49q0 -1 -1 -1q-6 -7 -15 -11q-3 -1 -6 -1q-5 0 -9 3q-5 4 -5 8q0 3 1 5q3 9 7 17q57 116 130 225l4 8l10 14q14 19 37 19q4 0 9 -1q30 -6 34 -34q11 -62 28 -122q5 -21 10 -41
q8 -28 22 -54q7 -14 7 -28q0 -9 -3 -19q-2 -6 -6 -12q-9 -9 -18 -9q-8 0 -17 6q-17 15 -26 34q-22 45 -36 92l-14 44q-4 10 -8 21z" />
    <glyph glyph-name="caron" unicode="&#x2c7;" horiz-adv-x="458" 
d="M192 1063q5 3 7.5 5.5t4.5 5.5q1 1 2 3q31 36 59 74q10 13 19 26q20 27 43 50h1q6 7 15 11q4 2 7 2q5 0 9 -3q5 -4 5 -9q0 -3 -1 -5q-4 -9 -8 -17q-57 -116 -129 -225q-3 -4 -5 -7q-4 -8 -10 -14q-14 -20 -37 -20q-4 0 -8 1q-31 7 -35 35q-11 61 -27 122q-6 20 -11 40
q-7 28 -21 55q-8 14 -8 28q0 9 3 18q2 7 6 12q9 10 18 10q8 0 17 -7q17 -14 27 -34q21 -45 35 -92q7 -22 15 -44q3 -10 7 -21z" />
    <glyph glyph-name="uni02C9" unicode="&#x2c9;" horiz-adv-x="1229" 
d="M305 1304v150h619v-150h-619z" />
    <glyph glyph-name="breve" unicode="&#x2d8;" horiz-adv-x="559" 
d="M85 1221h34q11 -48 49.5 -71t111.5 -23t111 22.5t49 71.5h34q-14 -88 -63 -134t-131 -46q-81 0 -131 46t-64 134z" />
    <glyph glyph-name="dotaccent" unicode="&#x2d9;" horiz-adv-x="369" 
d="M177 1139q20 -2 33.5 -13t13.5 -28q0 -18 -12.5 -30.5t-29.5 -12.5t-30 13t-15 31q2 17 12 28.5t25 11.5h3z" />
    </font>
</defs>
</svg>
